<?xml version="1.0" standalone="no"?>
<!DOCTYPE svg PUBLIC "-//W3C//DTD SVG 1.1//EN" "http://www.w3.org/Graphics/SVG/1.1/DTD/svg11.dtd" >
<svg>
<metadata>
Created by FontForge 20120731 at Mon Apr 18 22:47:12 2016
 By www
Copyright (c) 1987, 1993, 1995 Adobe Systems Incorporated.  All Rights Reserved.Univers is a trademark of Linotype-Hell AG and/or its subsidiaries.
</metadata>
<defs>
<font id="UniversCE-Light" horiz-adv-x="556" >
  <font-face 
    font-family="Univers CE 45 Light"
    font-weight="300"
    font-stretch="normal"
    units-per-em="1000"
    panose-1="2 0 4 3 3 0 0 2 0 3"
    ascent="800"
    descent="-200"
    x-height="502"
    cap-height="725"
    bbox="-151 -250 1000 919"
    underline-thickness="50"
    underline-position="-75"
    unicode-range="U+0020-FB02"
  />
<missing-glyph horiz-adv-x="278" 
 />
    <glyph glyph-name=".notdef" horiz-adv-x="278" 
 />
    <glyph glyph-name="exclam" unicode="!" horiz-adv-x="389" 
d="M223 171l13 551h-82l13 -551h56zM155 86v-86h80v86h-80z" />
    <glyph glyph-name="quotedbl" unicode="&#x22;" horiz-adv-x="278" 
d="M58 496h52v226h-52v-226zM168 496h52v226h-52v-226z" />
    <glyph glyph-name="numbersign" unicode="#" 
d="M361 423l-20 -137h-137l22 137h135zM527 483h-99l31 209h-59l-30 -209h-135l31 209h-59l-32 -209h-119v-60h111l-20 -137h-118v-60h109l-34 -226h58l34 226h136l-31 -226h59l31 226h110v60h-101l20 137h107v60z" />
    <glyph glyph-name="dollar" unicode="$" 
d="M301 309q24 -9 49.5 -18.5t46.5 -24t34.5 -36t13.5 -54.5q0 -31 -13 -54.5t-33.5 -40t-46 -25.5t-51.5 -11v264zM301 -15q39 0 77.5 11t69 34.5t49 59t18.5 84.5q0 51 -19 84t-49 54.5t-68.5 35.5t-77.5 26v275q22 -1 45.5 -7.5t42.5 -20t31.5 -35.5t12.5 -54h70
q-3 42 -21 75t-46 55t-63 33.5t-72 11.5v48h-50v-48q-35 0 -70 -15t-63 -41t-45.5 -61t-17.5 -75q0 -56 23.5 -90t55 -54.5t64.5 -31.5t53 -19v-275q-29 2 -55 10t-45.5 24t-30 40t-8.5 57h-70q-2 -49 15.5 -84.5t47.5 -59t68.5 -35t77.5 -12.5v-53h50v53zM251 389
q-23 7 -45.5 17t-40.5 24.5t-29 35.5t-11 50q0 30 10.5 54t28 41t40.5 26.5t47 9.5v-258z" />
    <glyph glyph-name="percent" unicode="%" horiz-adv-x="1000" 
d="M277 662q29 0 49 -13.5t32 -34.5t17.5 -46.5t5.5 -49.5t-5.5 -49.5t-17.5 -46.5t-32 -34.5t-49 -13.5t-49 13.5t-32 34.5t-17.5 46.5t-5.5 49.5t5.5 49.5t17.5 46.5t32 34.5t49 13.5zM653 707l-390 -707h58l390 707h-58zM277 707q-38 0 -67.5 -15.5t-50 -42t-31 -60.5
t-10.5 -71t10.5 -71t31 -60.5t50 -42t67.5 -15.5t67.5 15.5t50 42t31 60.5t10.5 71t-10.5 71t-31 60.5t-50 42t-67.5 15.5zM723 363q-38 0 -67.5 -15.5t-50 -42t-31 -60.5t-10.5 -71t10.5 -71t31 -60.5t50 -42t67.5 -15.5t67.5 15.5t50 42t31 60.5t10.5 71t-10.5 71
t-31 60.5t-50 42t-67.5 15.5zM723 318q29 0 49 -13.5t32 -34.5t17.5 -46.5t5.5 -49.5t-5.5 -49.5t-17.5 -46.5t-32 -34.5t-49 -13.5t-49 13.5t-32 34.5t-17.5 46.5t-5.5 49.5t5.5 49.5t17.5 46.5t32 34.5t49 13.5z" />
    <glyph glyph-name="ampersand" unicode="&#x26;" horiz-adv-x="722" 
d="M501 138q-41 -43 -84.5 -68t-104.5 -25q-36 0 -70 11.5t-60.5 33t-42 52.5t-15.5 70q0 24 17 49t40.5 47.5t49.5 41.5t44 31zM287 461q-12 13 -26 30t-25.5 36t-19 38.5t-7.5 39.5q0 19 7.5 33t20.5 22.5t29 12.5t34 4q33 0 60.5 -17.5t27.5 -54.5q0 -24 -10 -43.5
t-25 -37t-33 -33t-33 -30.5zM230 422q-30 -20 -61.5 -42t-57 -49t-41.5 -59.5t-16 -73.5q0 -50 20.5 -89t56.5 -67t84 -42.5t103 -14.5q70 0 123 28.5t98 82.5l86 -96h93l-137 149q21 35 33 73.5t19.5 78t11.5 80.5t8 80h-70q1 -30 -1 -65t-8 -70.5t-15.5 -69.5t-21.5 -62
l-211 225q24 18 47.5 38t42 43t30.5 50t12 59q0 33 -14 57.5t-37 40t-52 23t-58 7.5q-30 0 -58 -8t-50.5 -24t-36 -41t-13.5 -58q0 -27 8.5 -51.5t22.5 -46.5t30.5 -42.5t33.5 -39.5q-1 -1 -2 -1.5t-2 -2.5z" />
    <glyph glyph-name="quotesingle" unicode="'" horiz-adv-x="278" 
d="M113 496h52v226h-52v-226z" />
    <glyph glyph-name="parenleft" unicode="(" horiz-adv-x="278" 
d="M234 -96q-17 44 -33 94.5t-28 103t-19.5 106.5t-7.5 105q0 97 24 202t64 207h-50q-19 -49 -38.5 -99t-35 -101.5t-25 -103.5t-9.5 -105q0 -54 10 -106t25.5 -103t34.5 -101t37 -99h51z" />
    <glyph glyph-name="parenright" unicode=")" horiz-adv-x="278" 
d="M95 -96q18 49 37 99t34.5 101t25.5 103t10 106q0 53 -9.5 105t-25 103.5t-35 101.5t-38.5 99h-50q40 -102 64 -207t24 -202q0 -51 -7.5 -105t-19.5 -106.5t-28 -103t-33 -94.5h51z" />
    <glyph glyph-name="asterisk" unicode="*" 
d="M211 722l-53 -29l91 -126l-145 12v-58l144 10l-87 -128l50 -29l68 140l65 -138l52 27l-86 129l142 -11v58l-143 -12l88 127l-51 28l-67 -136z" />
    <glyph glyph-name="plus" unicode="+" horiz-adv-x="660" 
d="M300 281h-220v-60h220v-221h60v221h220v60h-220v221h-60v-221z" />
    <glyph glyph-name="comma" unicode="," horiz-adv-x="278" 
d="M102 81l-43 -205h52l72 205h-81z" />
    <glyph glyph-name="hyphen" unicode="-" horiz-adv-x="278" 
d="M13 237h252v60h-252v-60z" />
    <glyph glyph-name="hyphen" unicode="&#xad;" horiz-adv-x="278" 
d="M13 237h252v60h-252v-60z" />
    <glyph glyph-name="period" unicode="." horiz-adv-x="278" 
d="M179 0v86h-80v-86h80z" />
    <glyph glyph-name="slash" unicode="/" horiz-adv-x="278" 
d="M-23 -96h63l261 818h-65z" />
    <glyph glyph-name="zero" unicode="0" 
d="M278 647q55 0 87 -32.5t48 -79.5t20.5 -98.5t4.5 -90.5t-4.5 -90.5t-20.5 -98.5t-48 -79.5t-87 -32.5t-87 32.5t-48 79.5t-20.5 98.5t-4.5 90.5t4.5 90.5t20.5 98.5t48 79.5t87 32.5zM278 707q-71 0 -115.5 -31.5t-70 -83t-35 -116t-9.5 -130.5t9.5 -130.5t35 -116
t70 -83t115.5 -31.5t115.5 31.5t70 83t35 116t9.5 130.5t-9.5 130.5t-35 116t-70 83t-115.5 31.5z" />
    <glyph glyph-name="one" unicode="1" 
d="M116 518q42 20 81.5 45.5t74.5 58.5v-622h65v692h-62q-34 -34 -74 -62.5t-85 -46.5v-65z" />
    <glyph glyph-name="two" unicode="2" 
d="M485 0v60h-357q27 26 63 59.5t74.5 72t76.5 80.5t67.5 85.5t48 87t18.5 83.5q0 45 -16.5 78.5t-45 56t-66 33.5t-79.5 11q-45 0 -84 -14t-67.5 -39.5t-44.5 -62t-16 -82.5h70q0 30 10 55.5t28.5 44t44.5 28.5t57 10q28 0 53.5 -8t44.5 -23.5t30 -38.5t11 -53
q0 -31 -20 -71t-52 -84t-72 -89t-79.5 -85.5t-75 -73.5t-57.5 -53v-68h435z" />
    <glyph glyph-name="three" unicode="3" 
d="M225 329q36 5 72 0t65 -21.5t47 -44.5t18 -70q0 -37 -13.5 -65t-36 -46.5t-53.5 -27.5t-65 -9q-30 0 -58 9.5t-50 27.5t-35.5 43.5t-13.5 57.5h-70q1 -50 20 -87t50 -61.5t71.5 -37t86.5 -12.5q43 0 85.5 13t76.5 38.5t54.5 62.5t20.5 86q0 35 -11.5 64t-31.5 51.5
t-48 37.5t-61 22v2q29 6 54.5 19.5t45 33t30.5 45.5t11 58q0 50 -20 86t-52.5 59t-74 33.5t-85.5 10.5q-41 0 -79 -12.5t-67.5 -36.5t-47.5 -58.5t-18 -78.5h70q7 60 46 93t105 33q30 0 58 -8.5t49 -24t33.5 -39t12.5 -53.5q0 -39 -17.5 -65.5t-45 -42t-61.5 -21t-67 -1.5
v-63z" />
    <glyph glyph-name="four" unicode="4" 
d="M347 0h65v161h111v54h-111v477h-86l-304 -468v-63h325v-161zM347 215h-270l268 412h2v-412z" />
    <glyph glyph-name="five" unicode="5" 
d="M76 291h67q11 49 50.5 77t89.5 28q78 0 116.5 -46.5t38.5 -121.5q0 -38 -9.5 -71t-29.5 -58t-50 -39.5t-70 -14.5q-30 0 -56 8t-45.5 23.5t-32 39t-13.5 54.5h-70q1 -49 20 -84t49.5 -57.5t70.5 -33t84 -10.5q51 0 92.5 19t70 51.5t44 76t15.5 93.5q0 46 -14.5 88t-42 74
t-66.5 50.5t-88 18.5q-47 0 -85 -19.5t-67 -53.5l-2 2l11 247h319v60h-381z" />
    <glyph glyph-name="six" unicode="6" 
d="M296 394q39 0 66.5 -15t45 -40t25.5 -57t8 -66q0 -37 -10.5 -68t-30.5 -54t-49.5 -36t-67.5 -13q-34 0 -62.5 13.5t-49.5 36.5t-32.5 53t-11.5 63q0 39 11 72t32.5 58t53 39t72.5 14zM297 707q-56 0 -96.5 -17t-68.5 -46.5t-45 -68.5t-26.5 -83t-12.5 -90.5t-3 -90.5
q0 -62 11.5 -121t40 -104.5t76.5 -73t120 -27.5q51 0 91.5 18t68.5 50t43 74.5t15 92.5q0 49 -14 91t-41 73t-66.5 48t-90.5 17q-61 0 -110 -28t-72 -85h-2q0 49 5.5 103.5t24.5 100.5t56 76.5t99 30.5q27 0 50.5 -8t41 -23.5t28.5 -37t12 -48.5h70q-1 45 -17 78.5t-44 55
t-65 32.5t-79 11z" />
    <glyph glyph-name="seven" unicode="7" 
d="M492 692h-441v-60h373l-277 -632h76l269 634v58z" />
    <glyph glyph-name="eight" unicode="8" 
d="M278 45q-32 0 -62 8.5t-53 26t-36.5 44.5t-13.5 64t13.5 64t36.5 44.5t53 26t62 8.5t62 -8.5t53 -26t36.5 -44.5t13.5 -64t-13.5 -64t-36.5 -44.5t-53 -26t-62 -8.5zM278 652q29 0 57.5 -7.5t51.5 -23t37 -40.5t14 -60q0 -65 -45.5 -97.5t-114.5 -32.5t-114.5 32.5
t-45.5 97.5q0 35 14 60t37 40.5t51.5 23t57.5 7.5zM194 359q-34 -7 -62 -22t-48 -37t-30.5 -50.5t-10.5 -61.5q0 -53 20.5 -91t53.5 -63t75 -37t86 -12q43 0 85.5 12t75.5 37t53.5 63t20.5 91q0 69 -40 111.5t-109 60.5v2v-1q30 7 55 21t44 34.5t29.5 46.5t10.5 58
q0 48 -19.5 83t-51.5 58t-72 34t-82 11t-82 -11t-72 -34t-51.5 -58t-19.5 -83q0 -31 10.5 -58.5t29.5 -49t45 -35.5t56 -17v-2z" />
    <glyph glyph-name="nine" unicode="9" 
d="M267 647q36 0 65.5 -12t51.5 -33.5t34 -51t12 -65.5t-12.5 -66t-35 -52t-53 -34t-66.5 -12q-69 0 -108.5 43t-39.5 112q0 36 9.5 67t28 54.5t47 36.5t67.5 13zM47 170q7 -83 58 -134t144 -51q83 0 134.5 33t80 87t38.5 122t10 138q0 64 -10 125.5t-37.5 109.5t-75.5 77.5
t-123 29.5q-50 0 -91 -17t-70 -47t-44.5 -71.5t-15.5 -90.5q0 -47 15.5 -86t43.5 -68t67 -45t86 -16q60 0 108.5 27.5t74.5 78.5h2q0 -26 -2 -60.5t-8.5 -71t-18 -71.5t-31 -62.5t-48 -44.5t-67.5 -17q-32 0 -59 6.5t-47 21.5t-31.5 39t-12.5 58h-70z" />
    <glyph glyph-name="colon" unicode=":" horiz-adv-x="278" 
d="M99 502v-86h80v86h-80zM99 86v-86h80v86h-80z" />
    <glyph glyph-name="semicolon" unicode=";" horiz-adv-x="278" 
d="M121 81l-43 -205h52l72 205h-81zM107 502v-86h80v86h-80z" />
    <glyph glyph-name="semicolon" unicode="&#x37e;" horiz-adv-x="278" 
d="M121 81l-43 -205h52l72 205h-81zM107 502v-86h80v86h-80z" />
    <glyph glyph-name="less" unicode="&#x3c;" horiz-adv-x="660" 
d="M159 251l421 186v64l-500 -223v-53l500 -235v64z" />
    <glyph glyph-name="equal" unicode="=" horiz-adv-x="660" 
d="M580 378h-500v-60h500v60zM580 184h-500v-60h500v60z" />
    <glyph glyph-name="greater" unicode="&#x3e;" horiz-adv-x="660" 
d="M501 251l-421 -186v-64l500 223v53l-500 235v-64z" />
    <glyph glyph-name="question" unicode="?" horiz-adv-x="500" 
d="M234 169v70q-2 22 1.5 35.5t14 26.5t28 29.5t44.5 44.5q21 20 39.5 39.5t33 41t22.5 46t8 56.5q0 46 -17 79.5t-46 55.5t-67.5 33t-80.5 11q-28 0 -55.5 -3t-54.5 -11v-61q23 7 46.5 11t47.5 4q31 0 60 -5.5t51.5 -19.5t36.5 -37.5t14 -58.5q0 -32 -13.5 -58t-34 -49
t-44.5 -44t-44.5 -41.5t-34.5 -41.5t-15 -45v-108h60zM164 86v-86h80v86h-80z" />
    <glyph glyph-name="at" unicode="@" horiz-adv-x="800" 
d="M257 290q0 34 12 75t34.5 76.5t54.5 59.5t72 24q30 0 49 -21t19 -50q0 -33 -13 -77.5t-35 -84.5t-52 -68t-64 -28q-38 0 -57.5 29t-19.5 65zM539 520q-15 32 -45.5 48.5t-65.5 16.5q-55 0 -100.5 -28t-77.5 -72t-50 -97t-18 -103q0 -31 9.5 -58t27 -47.5t43 -32
t57.5 -11.5t64 13.5t55 36.5q8 -27 33.5 -39.5t51.5 -12.5q40 0 81 23t74.5 63t54.5 92.5t21 111.5q0 68 -26.5 125.5t-73 99t-109 65t-133.5 23.5q-76 0 -143.5 -29.5t-118.5 -80t-80.5 -118.5t-29.5 -145q0 -78 29 -147t79.5 -120.5t119 -81.5t148.5 -30q49 0 96.5 12.5
t89.5 36.5t77 58.5t58 77.5h-58q-45 -65 -115.5 -100t-147.5 -35q-67 0 -125 25t-100.5 68.5t-66.5 102.5t-24 126t23 127t65 105t99.5 71.5t126.5 26.5q56 0 107 -18t89.5 -51.5t61 -82t22.5 -108.5q0 -40 -13 -82t-35 -76.5t-50 -57t-59 -22.5q-15 0 -21.5 6t-7.5 16
t2.5 24t9.5 31l100 300h-66z" />
    <glyph glyph-name="A" unicode="A" horiz-adv-x="667" 
d="M173 255l159 407l156 -407h-315zM76 0l76 195h359l77 -195h71l-288 722h-76l-286 -722h67z" />
    <glyph glyph-name="B" unicode="B" horiz-adv-x="667" 
d="M165 344h120q51 0 94 -5t74.5 -20t49 -43t17.5 -74q0 -42 -13 -69.5t-38.5 -44t-62 -23t-82.5 -5.5h-159v284zM165 404v258h154q32 0 62.5 -5.5t54.5 -19t39 -38.5t15 -64q0 -37 -14.5 -62t-38 -40.5t-54 -22t-61.5 -6.5h-157zM375 0q59 0 100 17t66.5 44t37 61.5
t11.5 70.5q0 78 -45 124.5t-119 58.5v2q28 7 52.5 22t42.5 36.5t28.5 48t10.5 56.5q0 43 -16.5 76.5t-44 56.5t-64 35t-76.5 12l-259 1v-722h275z" />
    <glyph glyph-name="C" unicode="C" horiz-adv-x="667" 
d="M612 553q-4 49 -25.5 83.5t-54.5 57t-74.5 33t-85.5 10.5q-82 0 -140.5 -31t-96.5 -83t-56 -120t-18 -142q0 -75 18 -143t55.5 -120t96.5 -82.5t141 -30.5q43 0 84.5 12.5t75 37t57 60t31.5 80.5h-70q-7 -34 -24.5 -58.5t-41.5 -40.5t-53 -23.5t-59 -7.5
q-69 0 -115.5 28.5t-74.5 74t-39.5 101.5t-11.5 112q0 55 11.5 111.5t39.5 102t74.5 74t115.5 28.5q31 0 59.5 -7t51.5 -22t38.5 -38.5t20.5 -56.5h70z" />
    <glyph glyph-name="D" unicode="D" horiz-adv-x="722" 
d="M156 60v602h102q77 2 138 -14.5t104 -53.5t65.5 -95t22.5 -138q0 -68 -16 -123.5t-50.5 -95t-89 -61t-130.5 -21.5h-146zM91 722v-722h195q179 0 275.5 90.5t96.5 270.5t-96.5 270.5t-275.5 90.5h-195z" />
    <glyph glyph-name="E" unicode="E" horiz-adv-x="611" 
d="M546 0v60h-379v283h350v60h-350v259h364v60h-429v-722h444z" />
    <glyph glyph-name="F" unicode="F" 
d="M160 0v347h331v60h-331v255h343v60h-408v-722h65z" />
    <glyph glyph-name="G" unicode="G" horiz-adv-x="722" 
d="M385 368v-60h181v-233q-38 -11 -78.5 -20.5t-81.5 -9.5q-73 0 -124.5 23.5t-84.5 65.5t-48 100t-15 127q0 56 13 112.5t41.5 101.5t73.5 73.5t110 28.5q32 0 62.5 -8t55 -24t41 -41.5t21.5 -59.5h74q-4 48 -27.5 84t-58.5 60.5t-79 36.5t-89 12q-78 0 -136 -32.5
t-96.5 -85.5t-57 -120.5t-18.5 -137.5q0 -83 20.5 -152.5t59.5 -119t96.5 -77t131.5 -27.5q70 0 131.5 9.5t127.5 35.5v338h-246z" />
    <glyph glyph-name="H" unicode="H" horiz-adv-x="722" 
d="M164 0v345h394v-345h65v722h-65v-317h-394v317h-65v-722h65z" />
    <glyph glyph-name="I" unicode="I" horiz-adv-x="278" 
d="M172 0v725h-65v-725h65z" />
    <glyph glyph-name="J" unicode="J" horiz-adv-x="500" 
d="M13 178q5 -39 18.5 -74.5t36 -61.5t55 -41.5t76.5 -15.5q47 0 89.5 16.5t73.5 54.5q18 21 28 44.5t15 46.5t6 45.5t1 42.5v487h-65v-497q0 -33 -7 -65t-22 -57.5t-39.5 -41.5t-58.5 -16q-59 0 -95.5 37t-41.5 96h-70z" />
    <glyph glyph-name="K" unicode="K" horiz-adv-x="611" 
d="M170 0l1 377l346 -377h89l-363 396l333 326h-82l-323 -318l-1 318h-64v-722h64z" />
    <glyph glyph-name="L" unicode="L" 
d="M528 0v60h-363v662h-65v-722h428z" />
    <glyph glyph-name="M" unicode="M" horiz-adv-x="944" 
d="M162 0v664h2l276 -664h65l276 667h2v-667h65v722h-99l-277 -629l-271 629h-104v-722h65z" />
    <glyph glyph-name="N" unicode="N" horiz-adv-x="722" 
d="M92 0h65v624h2l390 -624h82v722h-65v-635h-2l-398 635h-74v-722z" />
    <glyph glyph-name="O" unicode="O" horiz-adv-x="778" 
d="M137 361q0 59 14 116t44.5 101.5t78 71.5t115.5 27q67 0 115 -27t78.5 -71.5t44.5 -101.5t14 -116t-14 -116t-44.5 -101.5t-78.5 -71.5t-115 -27q-68 0 -115.5 27t-78 71.5t-44.5 101.5t-14 116zM711 361q0 84 -21 153.5t-62 119t-101 76.5t-138 27t-138 -27t-101 -76.5
t-62 -119t-21 -153.5t21 -153.5t62 -119t101 -76.5t138 -27t138 27t101 76.5t62 119t21 153.5z" />
    <glyph glyph-name="P" unicode="P" horiz-adv-x="611" 
d="M165 662h158q36 0 69.5 -6.5t58.5 -23t40 -44.5t15 -70t-15 -70t-40 -44.5t-58.5 -23t-69.5 -6.5h-158v288zM165 0v314h116q52 -1 104.5 6.5t95 30t69 62.5t26.5 105q0 64 -26.5 104.5t-69 63t-95 30t-104.5 6.5h-181v-722h65z" />
    <glyph glyph-name="Q" unicode="Q" horiz-adv-x="778" 
d="M137 361q0 59 14 116t44.5 101.5t78 71.5t115.5 27q67 0 115 -27t78.5 -71.5t44.5 -101.5t14 -116t-14 -116t-44.5 -101.5t-78.5 -71.5t-115 -27q-68 0 -115.5 27t-78 71.5t-44.5 101.5t-14 116zM738 0v60q-40 -2 -79.5 -1.5t-77.5 -5.5l-2 2q34 26 59 60.5t41 74.5
t24 83.5t8 87.5q0 84 -21 153.5t-62 119t-101 76.5t-138 27t-138 -27t-101 -76.5t-62 -119t-21 -153.5t21 -153.5t62 -119t101 -76.5t138 -27q16 0 35.5 4t38.5 10q15 4 32.5 4.5t34.5 0t33 -2t28 -1.5h147z" />
    <glyph glyph-name="R" unicode="R" horiz-adv-x="667" 
d="M168 404v258h146q26 0 60.5 -0.5t65 -12t52 -38t21.5 -78.5q0 -46 -19.5 -72t-49.5 -38.5t-66.5 -15.5t-70.5 -3h-139zM168 344h179q49 0 77.5 -7t44 -28t22 -59t12.5 -100q3 -38 7.5 -76t17.5 -74h75q-11 16 -16.5 35.5t-8.5 44.5t-5.5 58t-7.5 77q-3 31 -9.5 58t-20 48
t-35.5 35t-56 20v2q63 16 101 56t38 99q0 52 -18 90t-56 61q-41 25 -82 31.5t-88 6.5h-236v-722h65v344z" />
    <glyph glyph-name="S" unicode="S" horiz-adv-x="611" 
d="M553 190q0 62 -30 99t-75.5 60t-98.5 38t-98.5 34.5t-75.5 49t-30 80.5q0 33 15.5 57t40 39t54.5 22.5t58 7.5t55.5 -5t50 -17.5t36.5 -34.5t15 -55h70q-6 52 -30 85.5t-58 52.5t-72.5 26.5t-74.5 7.5q-43 0 -84 -13t-73.5 -37.5t-52.5 -61t-20 -83.5q0 -59 29.5 -97
t74 -63t96 -41t95.5 -31q23 -8 43.5 -18.5t36 -25.5t24.5 -35t9 -47q0 -35 -16 -61t-41 -43t-56 -26t-61 -9q-36 0 -68.5 6.5t-57.5 23t-39.5 44t-15.5 69.5h-70q1 -45 18.5 -82t47 -64t68 -42t81.5 -15q54 0 104.5 10t89.5 33.5t62.5 63t23.5 98.5z" />
    <glyph glyph-name="T" unicode="T" 
d="M248 0h64l1 662h229v60h-528v-60h233z" />
    <glyph glyph-name="U" unicode="U" horiz-adv-x="722" 
d="M97 722v-468q1 -58 17.5 -107.5t49.5 -85.5t82 -56t115 -20t115 20t82 56t49.5 85.5t17.5 107.5v468h-65v-467q-4 -99 -56.5 -154.5t-142.5 -55.5t-142.5 55.5t-56.5 154.5v467h-65z" />
    <glyph glyph-name="V" unicode="V" horiz-adv-x="611" 
d="M77 722h-71l264 -722h74l261 722h-65l-229 -657h-2z" />
    <glyph glyph-name="W" unicode="W" horiz-adv-x="1000" 
d="M497 655h2l213 -655h89l190 722h-63l-167 -657h-2l-220 657h-79l-211 -657h-2l-168 657h-69l188 -722h92z" />
    <glyph glyph-name="X" unicode="X" horiz-adv-x="611" 
d="M301 323l219 -323h83l-258 372l250 350h-73l-212 -304l-204 304h-85l244 -350l-257 -372h74z" />
    <glyph glyph-name="Y" unicode="Y" horiz-adv-x="611" 
d="M274 0h65v314l264 408h-70l-221 -349l-221 349h-83l266 -410v-312z" />
    <glyph glyph-name="Z" unicode="Z" 
d="M517 0v60h-402l402 602v60h-478v-60h401l-401 -602v-60h478z" />
    <glyph glyph-name="bracketleft" unicode="[" horiz-adv-x="278" 
d="M222 -96v50h-72v718h72v50h-137v-818h137z" />
    <glyph glyph-name="backslash" unicode="\" horiz-adv-x="278" 
d="M42 722h-65l261 -818h63z" />
    <glyph glyph-name="bracketright" unicode="]" horiz-adv-x="278" 
d="M56 722v-50h72v-718h-72v-50h137v818h-137z" />
    <glyph glyph-name="asciicircum" unicode="^" horiz-adv-x="660" 
d="M132 239l197 392l201 -392h57l-231 453h-52l-230 -453h58z" />
    <glyph glyph-name="underscore" unicode="_" horiz-adv-x="500" 
d="M500 -124v56h-500v-56h500z" />
    <glyph glyph-name="grave" unicode="`" horiz-adv-x="278" 
d="M20 762l127 -143h44l-91 143h-80z" />
    <glyph glyph-name="a" unicode="a" horiz-adv-x="500" 
d="M101 140q0 47 29 70.5t70.5 32.5t86.5 9t77 1q2 -39 -2.5 -77.5t-21 -68.5t-47 -48.5t-79.5 -18.5q-46 0 -79.5 24.5t-33.5 75.5zM364 308q-27 -2 -56.5 -1.5t-59 -0.5t-58 -5.5t-53.5 -15.5q-45 -19 -73 -56.5t-28 -88.5q0 -37 13 -65.5t35.5 -48.5t53 -30.5t65.5 -10.5
q25 0 50 7t46 18.5t37 26t24 30.5l3 7h2l2 -74h62q-2 26 -4 55t-1 58v238q1 86 -47 126t-131 40q-36 0 -68 -7.5t-56.5 -24.5t-41 -44t-22.5 -66h64q3 25 13.5 42t27 27t37.5 14t45 4q54 0 84 -23t35 -85v-46z" />
    <glyph glyph-name="b" unicode="b" 
d="M292 462q43 0 72 -18.5t47 -47.5t26 -65.5t8 -72.5q0 -35 -6.5 -73.5t-22.5 -70.5t-44 -53t-71 -21q-49 0 -82 18.5t-52.5 49t-28 70.5t-8.5 83q0 38 9 74.5t28.5 64.5t50 45t74.5 17zM130 74l2 4q31 -45 75.5 -69t99.5 -24t93.5 24t63 62.5t35.5 86.5t11 95q0 49 -11 96
t-36 84.5t-64 60.5t-95 23q-50 0 -98 -23.5t-74 -67.5l-2 2v294h-60v-609q0 -29 -1.5 -58t-3.5 -55h62z" />
    <glyph glyph-name="c" unicode="c" horiz-adv-x="500" 
d="M462 348q-2 40 -17.5 71.5t-41.5 53t-60 33t-73 11.5q-56 0 -98 -22.5t-70 -59.5t-42 -85t-14 -99t13.5 -99t40.5 -85t68.5 -59.5t97.5 -22.5q172 0 196 172h-65q-4 -52 -41 -84.5t-96 -32.5q-35 0 -62.5 17t-46.5 46t-29.5 67.5t-10.5 81.5t10.5 81t29.5 66.5t46.5 45.5
t62.5 17q63 0 98 -28t39 -86h65z" />
    <glyph glyph-name="d" unicode="d" 
d="M424 263q0 -43 -8.5 -83t-28 -71t-52.5 -50t-82 -19q-43 0 -70.5 21.5t-43.5 54t-22 71t-6 73.5q0 36 7.5 72t25 65t46.5 47t72 18q44 0 74.5 -17t50 -44.5t28.5 -63.5t9 -74zM429 0h62q-2 26 -3.5 55t-1.5 58v609h-60v-294l-2 -2q-26 44 -74 67.5t-98 23.5
q-56 0 -95 -23t-64 -60.5t-36 -84.5t-11 -96q0 -47 11 -95t36 -86.5t64 -62.5t95 -24q53 0 97 24t75 69l2 -4z" />
    <glyph glyph-name="e" unicode="e" 
d="M503 237q0 59 -12 110t-39.5 89t-71 59.5t-106.5 21.5q-56 0 -98 -22.5t-70 -59.5t-42 -85t-14 -99t13.5 -99t40.5 -85t68.5 -59.5t97.5 -22.5q91 0 147.5 42t79.5 133h-63q-6 -26 -19 -48t-32.5 -38t-43 -25t-50.5 -9q-46 0 -78.5 15.5t-53.5 42.5t-31 63t-11 76h388z
M117 292q3 33 14.5 63.5t31 54.5t47.5 38t65 14q39 0 68.5 -13t49.5 -35.5t31 -54t14 -67.5h-321z" />
    <glyph glyph-name="f" unicode="f" horiz-adv-x="333" 
d="M183 0v447h114v55h-114v64q-1 27 0 48t8.5 35.5t24.5 22t48 7.5q9 0 18.5 -1t18.5 -3v48q-14 3 -28.5 7t-28.5 4q-65 0 -93 -30t-28 -95v-107h-101v-55h101v-447h60z" />
    <glyph glyph-name="g" unicode="g" 
d="M426 262q0 -37 -8.5 -73.5t-27.5 -66t-49.5 -47.5t-73.5 -18q-41 0 -71 19t-49 48t-28 65t-9 71q0 34 9 70t27.5 65.5t48 48t70.5 18.5q40 0 70.5 -18t50.5 -46.5t30 -64t10 -71.5zM426 428l-2 -4q-30 44 -70 68.5t-95 24.5q-57 0 -98 -22t-66.5 -58t-37.5 -83.5
t-12 -98.5q0 -52 12.5 -98t39 -80.5t67 -54.5t97.5 -20q49 0 95 24.5t68 69.5h2v-94q-1 -32 -14 -57.5t-34 -43.5t-48 -28t-56 -10q-24 0 -48 4t-44 13.5t-33.5 24.5t-16.5 38h-65q0 -39 18.5 -65t47 -41.5t64 -22t69.5 -6.5q35 0 59.5 4.5t54.5 18.5q42 19 63.5 48t31 62.5
t10.5 71t1 75.5v301q0 29 1.5 58t3.5 55h-62z" />
    <glyph glyph-name="h" unicode="h" 
d="M140 722h-60v-722h60v289q0 34 8.5 65t26.5 55t45 38.5t64 14.5q62 0 97 -36t35 -102v-324h60v314q0 14 -1.5 35t-7.5 43.5t-18 45t-31.5 40t-48.5 28.5t-70 11q-49 0 -90 -22t-67 -69h-2v296z" />
    <glyph glyph-name="i" unicode="i" horiz-adv-x="222" 
d="M81 502v-502h60v502h-60zM146 722h-70v-75h70v75z" />
    <glyph glyph-name="j" unicode="j" horiz-adv-x="222" 
d="M3 -192q51 -2 78.5 6.5t41 28.5t16 53.5t2.5 81.5v524h-60v-485v-79q0 -31 -6 -47.5t-22.5 -22t-49.5 -5.5v-55zM146 722h-70v-75h70v75z" />
    <glyph glyph-name="k" unicode="k" horiz-adv-x="500" 
d="M146 722h-60v-722h60v272l264 -272h76l-274 285l254 217h-77l-243 -205v425z" />
    <glyph glyph-name="l" unicode="l" horiz-adv-x="222" 
d="M141 722h-60v-722h60v722z" />
    <glyph glyph-name="m" unicode="m" horiz-adv-x="889" 
d="M136 502h-62q2 -26 3.5 -55t1.5 -58v-389h60v289q0 34 8.5 65t26.5 55t45 38.5t64 14.5q62 0 97 -36t35 -102v-324h60v289q0 34 8.5 65t26.5 55t45 38.5t64 14.5q62 0 97 -36t35 -102v-324h60v314q0 14 -1.5 35t-7.5 43.5t-18 45t-31.5 40t-48.5 28.5t-70 11
q-29 0 -54.5 -9t-47.5 -24t-39.5 -35t-31.5 -42q-17 50 -60 80t-103 30q-49 0 -90 -22t-67 -69l-2 2z" />
    <glyph glyph-name="n" unicode="n" 
d="M140 289q0 34 8.5 65t26.5 55t45 38.5t64 14.5q62 0 97 -36t35 -102v-324h60v314q0 14 -1.5 35t-7.5 43.5t-18 45t-31.5 40t-48.5 28.5t-70 11q-49 0 -90 -22t-67 -69l-2 2l-3 74h-62q2 -26 3.5 -55t1.5 -58v-389h60v289z" />
    <glyph glyph-name="o" unicode="o" 
d="M447 251q0 -35 -9.5 -72.5t-29.5 -68t-52.5 -50.5t-77.5 -20t-77.5 20t-52.5 50.5t-29.5 68t-9.5 72.5t9.5 72.5t29.5 68t52.5 50.5t77.5 20t77.5 -20t52.5 -50.5t29.5 -68t9.5 -72.5zM278 517q-60 0 -104 -23t-73 -60.5t-43 -85.5t-14 -97q0 -50 14 -97.5t43 -85
t73 -60.5t104 -23t104 23t73 60.5t43 85t14 97.5q0 49 -14 97t-43 85.5t-73 60.5t-104 23z" />
    <glyph glyph-name="p" unicode="p" 
d="M130 263q0 38 9 74t28.5 63.5t50 44.5t74.5 17q43 0 72 -18t47 -47t26 -65t8 -72q0 -35 -6.5 -73.5t-22.5 -71t-44 -54t-71 -21.5q-49 0 -82 19t-52.5 50t-28 71t-8.5 83zM130 78h2q31 -45 75.5 -69t99.5 -24t93.5 24t63 62.5t35.5 86.5t11 95q0 49 -11 96t-36 84.5
t-64 60.5t-95 23q-50 0 -98 -23.5t-74 -67.5l-2 2l-3 74h-62q2 -26 4 -55t1 -58v-581h60v270z" />
    <glyph glyph-name="q" unicode="q" 
d="M426 263q0 -43 -8.5 -83t-28 -71t-52.5 -50t-82 -19q-43 0 -71 21.5t-44 54t-22.5 71t-6.5 73.5q0 36 8 72t26 65t47 47t72 18q44 0 74.5 -17t50 -44.5t28.5 -63.5t9 -74zM486 -191v580q0 29 1.5 58t3.5 55h-62l-3 -74h-2q-26 43 -74 66t-98 23q-56 0 -95 -23t-64 -60.5
t-36 -84.5t-11 -96q0 -47 11 -95t35.5 -86.5t63 -62.5t93.5 -24t99.5 24t75.5 69h2v-269h60z" />
    <glyph glyph-name="r" unicode="r" horiz-adv-x="333" 
d="M140 302q2 72 36.5 116t101.5 44q9 0 18.5 -1.5t18.5 -2.5v58q-15 1 -30 1.5t-30 -0.5q-38 -2 -68.5 -26.5t-44.5 -62.5h-2l-3 74h-62q2 -26 4 -55t1 -58v-389h60v302z" />
    <glyph glyph-name="s" unicode="s" horiz-adv-x="500" 
d="M63 377q0 -35 13.5 -57.5t36 -37.5t51 -24t58.5 -16t58.5 -13.5t51 -17t36 -27.5t13.5 -44q0 -26 -11.5 -45t-30 -31t-42 -18t-47.5 -6q-26 0 -50 4.5t-43 16t-31.5 30t-14.5 46.5h-65q1 -42 18.5 -71t44.5 -47t60 -26t66 -8q40 0 78 9.5t67.5 30t47.5 51.5t18 73
q0 41 -23 72t-62 45q-51 18 -94 28t-73.5 20t-48 24.5t-17.5 42.5q0 22 10 37.5t25.5 25t36 14t41.5 4.5q23 0 44.5 -4.5t38.5 -14t28 -25.5t13 -40h65q-3 40 -18.5 66.5t-40.5 42.5t-56.5 23t-67.5 7q-33 0 -66 -7.5t-59 -24t-42.5 -43t-16.5 -65.5z" />
    <glyph glyph-name="t" unicode="t" horiz-adv-x="333" 
d="M123 134q0 -26 1 -52t11.5 -48t35 -35.5t72.5 -13.5q15 0 31 2.5t30 6.5v52q-12 -4 -25 -5t-27 -1q-71 0 -69 71v336h114v55h-114v133l-60 -26v-107h-100v-55h100v-313z" />
    <glyph glyph-name="u" unicode="u" 
d="M416 213q0 -34 -8.5 -65t-26.5 -55t-45 -38.5t-64 -14.5q-62 0 -97 36t-35 102v324h-60v-314q0 -15 1.5 -35.5t7.5 -43t18 -45t31.5 -40t48.5 -28.5t70 -11q49 0 90 22t67 69l2 -2l3 -74h62q-2 26 -3.5 55t-1.5 58v389h-60v-289z" />
    <glyph glyph-name="v" unicode="v" horiz-adv-x="500" 
d="M14 502l205 -502h68l199 502h-66l-167 -419l-173 419h-66z" />
    <glyph glyph-name="w" unicode="w" horiz-adv-x="833" 
d="M82 502h-66l184 -502h61l157 433h2l154 -433h57l187 502h-66l-145 -419h-2l-148 419h-71l-152 -423h-2z" />
    <glyph glyph-name="x" unicode="x" horiz-adv-x="500" 
d="M253 300l-147 202h-80l185 -245l-194 -257h68l158 218l161 -218h79l-196 259l180 243h-63z" />
    <glyph glyph-name="y" unicode="y" horiz-adv-x="500" 
d="M8 502l208 -502l-76 -192h66l277 694h-65l-168 -420l-169 420h-73z" />
    <glyph glyph-name="z" unicode="z" horiz-adv-x="444" 
d="M40 0h364v55h-291l291 392v55h-364v-55h293l-293 -392v-55z" />
    <glyph glyph-name="braceleft" unicode="{" horiz-adv-x="278" 
d="M248 -46h-33q-20 5 -30 22.5t-10 52.5v142q0 36 -9 61.5t-20.5 42.5t-22 26t-13.5 11q3 3 13.5 12t22 26t20.5 42.5t9 61.5v143q0 35 10 52.5t30 22.5h33v50h-50q-15 -2 -30.5 -9.5t-28.5 -21.5t-21 -33.5t-8 -44.5v-144q0 -28 -2.5 -50.5t-10 -39.5t-22 -27t-37.5 -13
v-55q23 -3 37.5 -13t22 -26.5t10 -39t2.5 -49.5v-143q0 -25 8 -44.5t21 -33.5t28.5 -22t30.5 -9h50v50z" />
    <glyph glyph-name="bar" unicode="|" horiz-adv-x="222" 
d="M81 -214h60v1000h-60v-1000z" />
    <glyph glyph-name="braceright" unicode="}" horiz-adv-x="278" 
d="M30 672h33q20 -5 30 -22.5t10 -52.5v-142q0 -36 9 -61.5t20.5 -42.5t22 -26t13.5 -11q-3 -3 -13.5 -12t-22 -26t-20.5 -42.5t-9 -61.5v-143q0 -35 -10 -52.5t-30 -22.5h-33v-50h50q15 1 30.5 9t28.5 22t21 33.5t8 44.5v144q0 27 2.5 50t10 39.5t22 26.5t37.5 13v55
q-23 3 -37.5 13t-22 26.5t-10 39t-2.5 50.5v143q0 25 -8 44.5t-21 33.5t-28.5 21.5t-30.5 9.5h-50v-50z" />
    <glyph glyph-name="asciitilde" unicode="~" horiz-adv-x="660" 
d="M221 319q-27 0 -48 -10t-38 -25.5t-30.5 -33.5t-24.5 -34l33 -47q9 15 19.5 31.5t23.5 30.5t29 23.5t36 9.5q22 0 43 -11.5t41 -19.5q13 -5 30.5 -12.5t36 -14t36.5 -11t32 -4.5q25 0 46 9.5t38.5 25t31 35t24.5 39.5l-40 34q-7 -14 -17 -29t-22.5 -28t-27.5 -21.5
t-32 -8.5q-20 0 -46.5 11t-56.5 25q-29 14 -59.5 25t-57.5 11z" />
    <glyph glyph-name="quotesinglbase" horiz-adv-x="278" 
d="M124 81l-43 -205h52l72 205h-81z" />
    <glyph glyph-name="quotesinglbase" unicode="&#x201a;" horiz-adv-x="278" 
d="M124 81l-43 -205h52l72 205h-81z" />
    <glyph glyph-name="quotedblbase" 
d="M354 81l-43 -205h52l72 205h-81zM170 81l-43 -205h52l72 205h-81z" />
    <glyph glyph-name="quotedblbase" unicode="&#x201e;" 
d="M354 81l-43 -205h52l72 205h-81zM170 81l-43 -205h52l72 205h-81z" />
    <glyph glyph-name="ellipsis" unicode="&#x85;" horiz-adv-x="1000" 
d="M127 86v-86h80v86h-80zM460 86v-86h80v86h-80zM793 86v-86h80v86h-80z" />
    <glyph glyph-name="ellipsis" unicode="&#x2026;" horiz-adv-x="1000" 
d="M127 86v-86h80v86h-80zM460 86v-86h80v86h-80zM793 86v-86h80v86h-80z" />
    <glyph glyph-name="dagger" 
d="M248 487v-487h60v487h172v55h-172v180h-60v-180h-172v-55h172z" />
    <glyph glyph-name="dagger" unicode="&#x2020;" 
d="M248 487v-487h60v487h172v55h-172v180h-60v-180h-172v-55h172z" />
    <glyph glyph-name="daggerdbl" 
d="M248 487v-255h-172v-55h172v-177h60v177h172v55h-172v255h172v55h-172v180h-60v-180h-172v-55h172z" />
    <glyph glyph-name="daggerdbl" unicode="&#x2021;" 
d="M248 487v-255h-172v-55h172v-177h60v177h172v55h-172v255h172v55h-172v180h-60v-180h-172v-55h172z" />
    <glyph glyph-name="perthousand" horiz-adv-x="1000" 
d="M91 -15h56l415 722h-53zM175 662q24 0 41 -10.5t27.5 -27.5t15.5 -37.5t5 -41.5t-5 -41.5t-15.5 -37.5t-27.5 -27.5t-41 -10.5t-41 10.5t-27.5 27.5t-15.5 37.5t-5 41.5t5 41.5t15.5 37.5t27.5 27.5t41 10.5zM478 264q24 0 41 -10.5t27.5 -27.5t15.5 -37.5t5 -41.5
t-5 -41.5t-15.5 -37.5t-27.5 -27.5t-41 -10.5t-41 10.5t-27.5 27.5t-15.5 37.5t-5 41.5t5 41.5t15.5 37.5t27.5 27.5t41 10.5zM478 -15q36 0 63 12t45 33.5t27 51.5t9 65t-9 65t-27 51.5t-45 33.5t-63 12t-63 -12t-45 -33.5t-27 -51.5t-9 -65t9 -65t27 -51.5t45 -33.5
t63 -12zM175 383q36 0 63 12t45 33.5t27 51.5t9 65t-9 65t-27 51.5t-45 33.5t-63 12t-63 -12t-45 -33.5t-27 -51.5t-9 -65t9 -65t27 -51.5t45 -33.5t63 -12zM825 -15q36 0 63 12t45 33.5t27 51.5t9 65t-9 65t-27 51.5t-45 33.5t-63 12t-63 -12t-45 -33.5t-27 -51.5t-9 -65
t9 -65t27 -51.5t45 -33.5t63 -12zM825 264q24 0 41 -10.5t27.5 -27.5t15.5 -37.5t5 -41.5t-5 -41.5t-15.5 -37.5t-27.5 -27.5t-41 -10.5t-41 10.5t-27.5 27.5t-15.5 37.5t-5 41.5t5 41.5t15.5 37.5t27.5 27.5t41 10.5z" />
    <glyph glyph-name="perthousand" unicode="&#x2030;" horiz-adv-x="1000" 
d="M91 -15h56l415 722h-53zM175 662q24 0 41 -10.5t27.5 -27.5t15.5 -37.5t5 -41.5t-5 -41.5t-15.5 -37.5t-27.5 -27.5t-41 -10.5t-41 10.5t-27.5 27.5t-15.5 37.5t-5 41.5t5 41.5t15.5 37.5t27.5 27.5t41 10.5zM478 264q24 0 41 -10.5t27.5 -27.5t15.5 -37.5t5 -41.5
t-5 -41.5t-15.5 -37.5t-27.5 -27.5t-41 -10.5t-41 10.5t-27.5 27.5t-15.5 37.5t-5 41.5t5 41.5t15.5 37.5t27.5 27.5t41 10.5zM478 -15q36 0 63 12t45 33.5t27 51.5t9 65t-9 65t-27 51.5t-45 33.5t-63 12t-63 -12t-45 -33.5t-27 -51.5t-9 -65t9 -65t27 -51.5t45 -33.5
t63 -12zM175 383q36 0 63 12t45 33.5t27 51.5t9 65t-9 65t-27 51.5t-45 33.5t-63 12t-63 -12t-45 -33.5t-27 -51.5t-9 -65t9 -65t27 -51.5t45 -33.5t63 -12zM825 -15q36 0 63 12t45 33.5t27 51.5t9 65t-9 65t-27 51.5t-45 33.5t-63 12t-63 -12t-45 -33.5t-27 -51.5t-9 -65
t9 -65t27 -51.5t45 -33.5t63 -12zM825 264q24 0 41 -10.5t27.5 -27.5t15.5 -37.5t5 -41.5t-5 -41.5t-15.5 -37.5t-27.5 -27.5t-41 -10.5t-41 10.5t-27.5 27.5t-15.5 37.5t-5 41.5t5 41.5t15.5 37.5t27.5 27.5t41 10.5z" />
    <glyph glyph-name="guilsinglleft" horiz-adv-x="278" 
d="M164 462l-106 -195l106 -195h50l-92 195l93 195h-51z" />
    <glyph glyph-name="guilsinglleft" unicode="&#x2039;" horiz-adv-x="278" 
d="M164 462l-106 -195l106 -195h50l-92 195l93 195h-51z" />
    <glyph glyph-name="quoteleft" horiz-adv-x="278" 
d="M154 517l43 205h-52l-72 -205h81z" />
    <glyph glyph-name="quoteleft" unicode="&#x2018;" horiz-adv-x="278" 
d="M154 517l43 205h-52l-72 -205h81z" />
    <glyph glyph-name="quoteright" horiz-adv-x="278" 
d="M124 722l-43 -205h52l72 205h-81z" />
    <glyph glyph-name="quoteright" unicode="&#x2019;" horiz-adv-x="278" 
d="M124 722l-43 -205h52l72 205h-81z" />
    <glyph glyph-name="quotedblleft" 
d="M384 517l43 205h-52l-72 -205h81zM200 517l43 205h-52l-72 -205h81z" />
    <glyph glyph-name="quotedblleft" unicode="&#x201c;" 
d="M384 517l43 205h-52l-72 -205h81zM200 517l43 205h-52l-72 -205h81z" />
    <glyph glyph-name="quotedblright" 
d="M356 722l-43 -205h52l72 205h-81zM172 722l-43 -205h52l72 205h-81z" />
    <glyph glyph-name="quotedblright" unicode="&#x201d;" 
d="M356 722l-43 -205h52l72 205h-81zM172 722l-43 -205h52l72 205h-81z" />
    <glyph glyph-name="bullet" horiz-adv-x="500" 
d="M430 361q0 37 -14 70t-39 57.5t-58 38.5t-70 14t-69.5 -14t-57 -38.5t-38.5 -57.5t-14 -70t14 -69.5t38.5 -57t57 -39t69.5 -14.5t70 14.5t58 39t39 57t14 69.5z" />
    <glyph glyph-name="bullet" unicode="&#x2022;" horiz-adv-x="500" 
d="M430 361q0 37 -14 70t-39 57.5t-58 38.5t-70 14t-69.5 -14t-57 -38.5t-38.5 -57.5t-14 -70t14 -69.5t38.5 -57t57 -39t69.5 -14.5t70 14.5t58 39t39 57t14 69.5z" />
    <glyph glyph-name="endash" horiz-adv-x="500" 
d="M500 237v60h-500v-60h500z" />
    <glyph glyph-name="endash" unicode="&#x2013;" horiz-adv-x="500" 
d="M500 237v60h-500v-60h500z" />
    <glyph glyph-name="emdash" horiz-adv-x="1000" 
d="M1000 237v60h-1000v-60h1000z" />
    <glyph glyph-name="emdash" unicode="&#x2014;" horiz-adv-x="1000" 
d="M1000 237v60h-1000v-60h1000z" />
    <glyph glyph-name="trademark" horiz-adv-x="940" 
d="M349 722h-320v-40h133v-381h55v381h132v40zM523 722h-99v-421h55v377h2l145 -377h34l145 377h2v-377h55v421h-99l-118 -311h-2z" />
    <glyph glyph-name="trademark" unicode="&#x2122;" horiz-adv-x="940" 
d="M349 722h-320v-40h133v-381h55v381h132v40zM523 722h-99v-421h55v377h2l145 -377h34l145 377h2v-377h55v421h-99l-118 -311h-2z" />
    <glyph glyph-name="guilsinglright" horiz-adv-x="278" 
d="M114 72l106 195l-106 195h-50l92 -195l-93 -195h51z" />
    <glyph glyph-name="guilsinglright" unicode="&#x203a;" horiz-adv-x="278" 
d="M114 72l106 195l-106 195h-50l92 -195l-93 -195h51z" />
    <glyph glyph-name="caron" unicode="&#xa1;" horiz-adv-x="278" 
d="M275 707h-46l-90 -106l-89 106h-47l99 -145h73z" />
    <glyph glyph-name="caron" unicode="&#x2c7;" horiz-adv-x="278" 
d="M275 707h-46l-90 -106l-89 106h-47l99 -145h73z" />
    <glyph glyph-name="breve" unicode="&#xa2;" horiz-adv-x="278" 
d="M243 707q-5 -16 -17 -26t-27 -16t-31.5 -8t-31.5 -2q-14 0 -30 2t-30 7.5t-25 15.5t-15 27h-19q0 -27 9.5 -46t26 -30.5t38 -16.5t45.5 -5q27 0 49 4t38.5 15t26 30t11.5 49h-18z" />
    <glyph glyph-name="breve" unicode="&#x2d8;" horiz-adv-x="278" 
d="M243 707q-5 -16 -17 -26t-27 -16t-31.5 -8t-31.5 -2q-14 0 -30 2t-30 7.5t-25 15.5t-15 27h-19q0 -27 9.5 -46t26 -30.5t38 -16.5t45.5 -5q27 0 49 4t38.5 15t26 30t11.5 49h-18z" />
    <glyph glyph-name="currency" unicode="&#xa4;" 
d="M32 110l52 -53l44 43q33 -23 68 -36.5t77 -13.5q87 0 155 50l44 -43l52 53l-43 42q23 35 35.5 68t12.5 75q0 46 -11 82.5t-37 73.5l43 43l-52 53l-44 -43q-34 23 -69 36t-77 13t-81 -11.5t-73 -37.5l-44 43l-52 -53l43 -43q-26 -36 -37 -71t-11 -80q0 -43 12 -78t36 -70z
M276 120q-36 0 -69 14.5t-57.5 39t-39 57.5t-13.5 69q-1 39 13.5 72.5t39.5 58.5t59 39t73 13q36 1 68.5 -14t56.5 -40t38 -57.5t14 -68.5q0 -38 -14.5 -71.5t-39.5 -58.5t-58.5 -39t-70.5 -14z" />
    <glyph glyph-name="section" unicode="&#xa7;" 
d="M260 461q13 -8 32.5 -15t37.5 -16t30.5 -21.5t12.5 -32.5t-9.5 -34t-24 -24.5t-31 -19t-31.5 -16.5q-13 6 -30.5 12.5t-33 16.5t-26.5 23t-11 31q0 20 7.5 34t19.5 24.5t27 19.5zM405 718q-26 7 -52.5 13t-52.5 6q-32 0 -63.5 -7t-56.5 -23t-40.5 -42t-15.5 -64
q0 -23 7.5 -41t20.5 -32.5t30 -26t36 -21.5q-18 -8 -37 -19.5t-34.5 -26.5t-25.5 -34t-10 -41q0 -39 20 -63t49.5 -39.5t64.5 -26t64.5 -22t49.5 -27.5t20 -43t-12 -46t-31 -30.5t-42.5 -16.5t-46.5 -5q-34 0 -63.5 5.5t-60.5 18.5v-57q30 -11 63.5 -16.5t65.5 -5.5
q36 0 70.5 9t61.5 27.5t43.5 47.5t16.5 70q0 26 -9 46t-24 35t-35.5 26t-42.5 20q18 8 36.5 20t34 27t25 34t9.5 41q0 32 -18.5 53t-46 36.5t-60 27.5t-60 25t-46 30.5t-18.5 43.5q0 23 11 38t28.5 24t38 12.5t39.5 3.5q9 0 22.5 -1.5t27.5 -4t27 -6t22 -7.5v55z" />
    <glyph glyph-name="dieresis" unicode="&#xa8;" horiz-adv-x="278" 
d="M263 619v88h-74v-88h74zM89 619v88h-74v-88h74z" />
    <glyph glyph-name="copyright" unicode="&#xa9;" horiz-adv-x="800" 
d="M401 -15q78 0 146 29.5t119 81t80.5 120t29.5 146.5q0 77 -29.5 145.5t-80.5 119.5t-119 80.5t-146 29.5t-146.5 -29.5t-120 -80.5t-81 -119.5t-29.5 -145.5q0 -78 29.5 -146.5t81 -120t120 -81t146.5 -29.5zM84 362q0 69 23.5 126.5t66 99.5t100.5 65.5t127 23.5
t126.5 -23.5t99.5 -65.5t65.5 -99.5t23.5 -126.5t-23.5 -127.5t-65.5 -100.5t-99.5 -65.5t-126.5 -23.5t-127 23.5t-100.5 65.5t-66 100.5t-23.5 127.5zM536 294q-3 -21 -13.5 -38.5t-26.5 -30.5t-36 -20t-42 -7q-36 0 -64 14.5t-46.5 38.5t-28 54t-9.5 61q0 32 9 62
t27 52.5t45.5 36t64.5 13.5q44 0 78 -26t42 -66h55q-10 69 -59 105.5t-117 36.5q-48 0 -86 -16t-64.5 -45t-40.5 -68.5t-14 -85.5t15 -85.5t42 -69t65.5 -46t85.5 -16.5q32 0 62 10t53.5 29t39 46t18.5 61h-55z" />
    <glyph glyph-name="guillemotleft" unicode="&#xab;" 
d="M388 462l-106 -195l106 -195h50l-92 195l93 195h-51zM208 462l-106 -195l106 -195h50l-92 195l93 195h-51z" />
    <glyph glyph-name="logicalnot" horiz-adv-x="660" 
d="M520 112h60v266h-500v-60h440v-206z" />
    <glyph glyph-name="registered" unicode="&#xae;" horiz-adv-x="800" 
d="M401 -15q78 0 146 29.5t119 81t80.5 120t29.5 146.5q0 77 -29.5 145.5t-80.5 119.5t-119 80.5t-146 29.5t-146.5 -29.5t-120 -80.5t-81 -119.5t-29.5 -145.5q0 -78 29.5 -146.5t81 -120t120 -81t146.5 -29.5zM401 45q-69 0 -127 23.5t-100.5 65.5t-66 100.5t-23.5 127.5
t23.5 126.5t66 99.5t100.5 65.5t127 23.5t126.5 -23.5t99.5 -65.5t65.5 -99.5t23.5 -126.5t-23.5 -127.5t-65.5 -100.5t-99.5 -65.5t-126.5 -23.5zM315 340h92l121 -191h62l-128 191q28 2 52.5 9.5t42.5 21.5t28 36t10 53q0 58 -33 88.5t-117 30.5h-185v-430h55v191z
M315 390v139h118q19 0 37.5 -2t33 -9.5t23 -21t8.5 -35.5q0 -30 -14 -45t-35.5 -21t-47 -5.5t-47.5 0.5h-76z" />
    <glyph glyph-name="degree" unicode="&#xb0;" horiz-adv-x="400" 
d="M350 557q0 31 -12 58t-32.5 47.5t-47.5 32.5t-58 12t-58.5 -12t-48 -32.5t-32 -47.5t-11.5 -58t12 -58.5t32 -47.5t47.5 -32t58.5 -12t58 12t47.5 32t32.5 47.5t12 58.5zM95 557q0 22 7.5 41.5t21.5 33.5t33 22t42 8q46 0 76 -30t30 -75q0 -46 -30 -75.5t-75 -29.5
q-46 0 -75.5 29.5t-29.5 75.5z" />
    <glyph glyph-name="plusminus" unicode="&#xb1;" horiz-adv-x="660" 
d="M300 330h-220v-60h220v-170h60v170h220v60h-220v172h-60v-172zM80 0h500v60h-500v-60z" />
    <glyph glyph-name="ogonek" unicode="&#xb2;" horiz-adv-x="278" 
d="M246 -126q-13 -5 -24 -8.5t-22.5 -6t-24.5 -4t-31 -1.5q-10 0 -22 4t-22.5 11t-17.5 17.5t-7 24.5q0 11 9.5 22.5t25 23t36.5 22t45 19.5v2h-53q-18 -5 -38.5 -14t-38.5 -21.5t-29.5 -28.5t-11.5 -34q0 -26 9.5 -43.5t24.5 -28.5t33.5 -16t36.5 -5q13 0 29.5 2t34 5t33 7
t25.5 8v43z" />
    <glyph glyph-name="ogonek" unicode="&#x2db;" horiz-adv-x="278" 
d="M246 -126q-13 -5 -24 -8.5t-22.5 -6t-24.5 -4t-31 -1.5q-10 0 -22 4t-22.5 11t-17.5 17.5t-7 24.5q0 11 9.5 22.5t25 23t36.5 22t45 19.5v2h-53q-18 -5 -38.5 -14t-38.5 -21.5t-29.5 -28.5t-11.5 -34q0 -26 9.5 -43.5t24.5 -28.5t33.5 -16t36.5 -5q13 0 29.5 2t34 5t33 7
t25.5 8v43z" />
    <glyph glyph-name="acute" unicode="&#xb4;" horiz-adv-x="278" 
d="M178 762l-91 -143h44l127 143h-80z" />
    <glyph glyph-name="mu" unicode="&#xb5;" 
d="M416 213q0 -34 -8.5 -65t-26.5 -55t-45 -38.5t-64 -14.5q-62 0 -97 36t-35 102v324h-60v-694h60v202q29 -11 58.5 -18t58.5 -7q49 0 90 22t67 69l2 -2l3 -74h62q-2 26 -3.5 55t-1.5 58v389h-60v-289z" />
    <glyph glyph-name="mu" unicode="&#x3bc;" 
d="M416 213q0 -34 -8.5 -65t-26.5 -55t-45 -38.5t-64 -14.5q-62 0 -97 36t-35 102v324h-60v-694h60v202q29 -11 58.5 -18t58.5 -7q49 0 90 22t67 69l2 -2l3 -74h62q-2 26 -3.5 55t-1.5 58v389h-60v-289z" />
    <glyph glyph-name="paragraph" unicode="&#xb6;" horiz-adv-x="650" 
d="M258 -146h65v808h118v-808h65v868h-217q-106 0 -164.5 -50.5t-58.5 -145.5q0 -39 15.5 -73.5t42 -60.5t61.5 -41t73 -15v-482z" />
    <glyph glyph-name="periodcentered" unicode="&#xb7;" horiz-adv-x="278" 
d="M179 294h-80v-86h80v86z" />
    <glyph glyph-name="periodcentered" unicode="&#x22c5;" horiz-adv-x="278" 
d="M179 294h-80v-86h80v86z" />
    <glyph glyph-name="cedilla" unicode="&#xb8;" horiz-adv-x="278" 
d="M28 -161q18 -5 30.5 -9t24.5 -7t25.5 -4.5t32.5 -1.5q15 0 31.5 3.5t30 11.5t22.5 20.5t9 30.5q0 22 -9 35.5t-23 20.5t-32 9t-37 2l15 55h-23l-28 -87q8 1 16.5 2t16.5 1q17 0 32.5 -7.5t15.5 -28.5q0 -11 -2 -17.5t-10 -14.5q-6 -5 -20.5 -8.5t-21.5 -2.5
q-23 4 -45 10.5t-44 14.5z" />
    <glyph glyph-name="guillemotright" unicode="&#xbb;" 
d="M168 72l106 195l-106 195h-50l92 -195l-93 -195h51zM348 72l106 195l-106 195h-50l92 -195l-93 -195h51z" />
    <glyph glyph-name="hungarumlaut" unicode="&#xbd;" 
d="M125 566h47l129 141h-81zM256 566h47l129 141h-81z" />
    <glyph glyph-name="hungarumlaut" unicode="&#x2dd;" 
d="M125 566h47l129 141h-81zM256 566h47l129 141h-81z" />
    <glyph glyph-name="Aacute" unicode="&#xc1;" horiz-adv-x="667" 
d="M5 0h67l76 198h359l78 -198h70l-288 725h-77zM169 252l159 412l156 -412h-315zM369 904l-95 -141h48l128 141h-81z" />
    <glyph glyph-name="Acircumflex" unicode="&#xc2;" horiz-adv-x="667" 
d="M5 0h67l76 198h359l78 -198h70l-288 725h-77zM169 252l159 412l156 -412h-315zM294 907l-101 -145h47l90 106l89 -106h46l-98 145h-73z" />
    <glyph glyph-name="Adieresis" unicode="&#xc4;" horiz-adv-x="667" 
d="M5 0h67l76 198h359l78 -198h70l-288 725h-77zM169 252l159 412l156 -412h-315zM376 790h73v77h-73v-77zM205 790h73v77h-73v-77z" />
    <glyph glyph-name="Ccedilla" unicode="&#xc7;" horiz-adv-x="667" 
d="M248 -161q18 -5 30.5 -9t24.5 -7t25.5 -4.5t32.5 -1.5q15 0 31.5 3.5t30 11.5t22.5 20.5t9 30.5q0 22 -9 35.5t-23 20.5t-32 9t-37 2l10 36q2 -1 9 -1q43 0 84.5 12.5t75 37t57 60t31.5 80.5h-70q-7 -34 -24.5 -58.5t-41.5 -40.5t-53 -23.5t-59 -7.5q-69 0 -115.5 28.5
t-74.5 74t-39.5 101.5t-11.5 112q0 55 11.5 111.5t39.5 102t74.5 74t115.5 28.5q31 0 59.5 -7t51.5 -22t38.5 -38.5t20.5 -56.5h70q-4 49 -25.5 83.5t-54.5 57t-74.5 33t-85.5 10.5q-82 0 -140.5 -31t-96.5 -83t-56 -120t-18 -142q0 -71 16 -136t50 -115.5t86.5 -83
t126.5 -38.5l-23 -70q8 1 16.5 2t16.5 1q17 0 32.5 -7.5t15.5 -28.5q0 -11 -2 -17.5t-10 -14.5q-6 -5 -20.5 -8.5t-21.5 -2.5q-23 4 -45 10.5t-44 14.5z" />
    <glyph glyph-name="Eacute" unicode="&#xc9;" horiz-adv-x="611" 
d="M102 0h444v58h-379v287h350v55h-350v263h364v57h-429v-720zM359 904l-95 -141h47l129 141h-81z" />
    <glyph glyph-name="Edieresis" unicode="&#xcb;" horiz-adv-x="611" 
d="M102 0h444v58h-379v287h350v55h-350v263h364v57h-429v-720zM366 790h73v77h-73v-77zM194 790h73v77h-73v-77z" />
    <glyph glyph-name="Iacute" unicode="&#xcd;" horiz-adv-x="278" 
d="M104 0h65v725h-65v-725zM179 904l-94 -141h47l128 141h-81z" />
    <glyph glyph-name="Icircumflex" unicode="&#xce;" horiz-adv-x="278" 
d="M104 0h65v725h-65v-725zM104 907l-100 -145h46l90 106l89 -106h47l-99 145h-73z" />
    <glyph glyph-name="Oacute" unicode="&#xd3;" horiz-adv-x="778" 
d="M64 368q0 -75 17.5 -144t56 -121t99 -83t146.5 -31q100 0 163 37.5t99 94t49 121.5t13 121q0 38 -4.5 76t-15 74t-28 69t-42.5 62t-56.5 47t-63 28t-61.5 13.5t-52 3.5q-91 0 -152 -33t-98.5 -85.5t-53.5 -118.5t-16 -131zM135 366q0 63 15 119.5t45.5 99.5t78 68
t112.5 25q74 0 122 -31t76 -78t39 -102t11 -104q0 -61 -13.5 -118t-43.5 -101t-77 -70.5t-114 -26.5q-68 0 -116 27.5t-78 72.5t-43.5 102t-13.5 117zM425 904l-95 -141h48l128 141h-81z" />
    <glyph glyph-name="Ocircumflex" unicode="&#xd4;" horiz-adv-x="778" 
d="M64 368q0 -75 17.5 -144t56 -121t99 -83t146.5 -31q100 0 163 37.5t99 94t49 121.5t13 121q0 38 -4.5 76t-15 74t-28 69t-42.5 62t-56.5 47t-63 28t-61.5 13.5t-52 3.5q-91 0 -152 -33t-98.5 -85.5t-53.5 -118.5t-16 -131zM135 366q0 63 15 119.5t45.5 99.5t78 68
t112.5 25q74 0 122 -31t76 -78t39 -102t11 -104q0 -61 -13.5 -118t-43.5 -101t-77 -70.5t-114 -26.5q-68 0 -116 27.5t-78 72.5t-43.5 102t-13.5 117zM350 908l-101 -146h46l91 106l89 -106h46l-98 146h-73z" />
    <glyph glyph-name="Odieresis" unicode="&#xd6;" horiz-adv-x="778" 
d="M64 368q0 -75 17.5 -144t56 -121t99 -83t146.5 -31q100 0 163 37.5t99 94t49 121.5t13 121q0 38 -4.5 76t-15 74t-28 69t-42.5 62t-56.5 47t-63 28t-61.5 13.5t-52 3.5q-91 0 -152 -33t-98.5 -85.5t-53.5 -118.5t-16 -131zM135 366q0 63 15 119.5t45.5 99.5t78 68
t112.5 25q74 0 122 -31t76 -78t39 -102t11 -104q0 -61 -13.5 -118t-43.5 -101t-77 -70.5t-114 -26.5q-68 0 -116 27.5t-78 72.5t-43.5 102t-13.5 117zM432 791h73v76h-73v-76zM261 791h73v76h-73v-76z" />
    <glyph glyph-name="Uacute" unicode="&#xda;" horiz-adv-x="722" 
d="M94 725v-446q0 -26 1 -50.5t5.5 -48.5t14.5 -47t27 -46q12 -15 29 -32.5t42 -32t59.5 -24t81.5 -9.5q63 0 118.5 21.5t93.5 70.5q20 26 31 52.5t16 51t6 45.5t1 36v459h-62v-450q0 -37 -3.5 -72t-19.5 -63q-6 -10 -18.5 -26t-34 -31.5t-52.5 -26.5t-74 -11q-11 0 -31 1.5
t-43 9.5t-47.5 25t-44.5 47q-25 38 -29 78.5t-4 71.5v447h-63zM402 904l-94 -141h47l128 141h-81z" />
    <glyph glyph-name="Udieresis" unicode="&#xdc;" horiz-adv-x="722" 
d="M94 725v-446q0 -26 1 -50.5t5.5 -48.5t14.5 -47t27 -46q12 -15 29 -32.5t42 -32t59.5 -24t81.5 -9.5q63 0 118.5 21.5t93.5 70.5q20 26 31 52.5t16 51t6 45.5t1 36v459h-62v-450q0 -37 -3.5 -72t-19.5 -63q-6 -10 -18.5 -26t-34 -31.5t-52.5 -26.5t-74 -11q-11 0 -31 1.5
t-43 9.5t-47.5 25t-44.5 47q-25 38 -29 78.5t-4 71.5v447h-63zM410 791h72v76h-72v-76zM238 791h73v76h-73v-76z" />
    <glyph glyph-name="germandbls" unicode="&#xdf;" horiz-adv-x="611" 
d="M147 488q0 33 6.5 67.5t22 62.5t42 46t67.5 18q22 0 44 -6t39 -18t28 -30.5t11 -43.5q0 -26 -18.5 -46.5t-40.5 -41.5t-40.5 -45t-18.5 -56q0 -33 16 -55.5t40 -40t52 -32.5t52 -31t40 -36t16 -49q0 -57 -29.5 -84t-79.5 -27q-43 0 -70 27.5t-25 73.5h-65
q3 -73 46.5 -114.5t115.5 -41.5q35 0 66.5 11.5t55 33t37 53t13.5 71.5q0 39 -16 65.5t-40 46t-52 34t-52 29t-40 31.5t-16 42q0 18 18.5 37.5t40.5 41t40.5 46.5t18.5 55q0 38 -15 67t-40 48.5t-57.5 29.5t-67.5 10q-53 0 -91.5 -16.5t-63.5 -46.5t-37.5 -72t-12.5 -93
v-509h60v488z" />
    <glyph glyph-name="aacute" unicode="&#xe1;" horiz-adv-x="500" 
d="M122 375q2 11 6 26.5t18 30.5t36.5 23.5t59.5 8.5q46 0 71.5 -13t37 -35t13 -51t0.5 -62q-14 2 -27 2.5t-31 0.5q-19 0 -46 -1.5t-57 -6.5t-60 -15.5t-53.5 -29.5t-38.5 -47.5t-15 -68.5q0 -36 14 -64t37.5 -46.5t53 -28t59.5 -9.5q42 0 72.5 12t50.5 28.5t31.5 33
t16.5 24.5l3 -87h60q-2 26 -6 68.5t-4 96.5q0 9 0.5 34t0.5 53t0.5 53t0.5 35q0 28 -3.5 60.5t-26.5 58.5q-27 29 -68.5 41.5t-86.5 12.5q-60 0 -95.5 -17.5t-54.5 -40.5t-25 -46t-8 -34h64zM364 258q-1 -45 -3 -78t-13 -57q-17 -38 -52 -61t-86 -23q-30 0 -51.5 9.5t-35 24
t-19.5 32.5t-6 35q0 30 12 50t28.5 31.5t33 17t24.5 7.5q34 9 80.5 10.5t87.5 1.5zM286 761l-95 -141h47l129 141h-81z" />
    <glyph glyph-name="acircumflex" unicode="&#xe2;" horiz-adv-x="500" 
d="M122 375q2 11 6 26.5t18 30.5t36.5 23.5t59.5 8.5q46 0 71.5 -13t37 -35t13 -51t0.5 -62q-14 2 -27 2.5t-31 0.5q-19 0 -46 -1.5t-57 -6.5t-60 -15.5t-53.5 -29.5t-38.5 -47.5t-15 -68.5q0 -36 14 -64t37.5 -46.5t53 -28t59.5 -9.5q42 0 72.5 12t50.5 28.5t31.5 33
t16.5 24.5l3 -87h60q-2 26 -6 68.5t-4 96.5q0 9 0.5 34t0.5 53t0.5 53t0.5 35q0 28 -3.5 60.5t-26.5 58.5q-27 29 -68.5 41.5t-86.5 12.5q-60 0 -95.5 -17.5t-54.5 -40.5t-25 -46t-8 -34h64zM364 258q-1 -45 -3 -78t-13 -57q-17 -38 -52 -61t-86 -23q-30 0 -51.5 9.5t-35 24
t-19.5 32.5t-6 35q0 30 12 50t28.5 31.5t33 17t24.5 7.5q34 9 80.5 10.5t87.5 1.5zM211 764l-101 -146h46l91 107l89 -107h46l-98 146h-73z" />
    <glyph glyph-name="adieresis" unicode="&#xe4;" horiz-adv-x="500" 
d="M122 375q2 11 6 26.5t18 30.5t36.5 23.5t59.5 8.5q46 0 71.5 -13t37 -35t13 -51t0.5 -62q-14 2 -27 2.5t-31 0.5q-19 0 -46 -1.5t-57 -6.5t-60 -15.5t-53.5 -29.5t-38.5 -47.5t-15 -68.5q0 -36 14 -64t37.5 -46.5t53 -28t59.5 -9.5q42 0 72.5 12t50.5 28.5t31.5 33
t16.5 24.5l3 -87h60q-2 26 -6 68.5t-4 96.5q0 9 0.5 34t0.5 53t0.5 53t0.5 35q0 28 -3.5 60.5t-26.5 58.5q-27 29 -68.5 41.5t-86.5 12.5q-60 0 -95.5 -17.5t-54.5 -40.5t-25 -46t-8 -34h64zM364 258q-1 -45 -3 -78t-13 -57q-17 -38 -52 -61t-86 -23q-30 0 -51.5 9.5t-35 24
t-19.5 32.5t-6 35q0 30 12 50t28.5 31.5t33 17t24.5 7.5q34 9 80.5 10.5t87.5 1.5zM293 647h73v77h-73v-77zM122 647h72v77h-72v-77z" />
    <glyph glyph-name="ccedilla" unicode="&#xe7;" horiz-adv-x="500" 
d="M158 -161q18 -5 30.5 -9t24.5 -7t25.5 -4.5t32.5 -1.5q15 0 31.5 3.5t30 11.5t22.5 20.5t9 30.5q0 22 -9 35.5t-23 20.5t-32 9t-37 2l10 36q165 2 189 171h-65q-4 -52 -41 -84.5t-96 -32.5q-35 0 -62.5 17t-46.5 46t-29.5 67.5t-10.5 81.5t10.5 81t29.5 66.5t46.5 45.5
t62.5 17q63 0 98 -28t39 -86h65q-2 40 -17.5 71.5t-41.5 53t-60 33t-73 11.5q-56 0 -98 -22.5t-70 -59.5t-42 -85t-14 -99q0 -49 12 -95.5t37 -83t63.5 -60t90.5 -26.5l-22 -68q8 1 16.5 2t16.5 1q17 0 32.5 -7.5t15.5 -28.5q0 -11 -2 -17.5t-10 -14.5q-6 -5 -20.5 -8.5
t-21.5 -2.5q-23 4 -45 10.5t-44 14.5z" />
    <glyph glyph-name="eacute" unicode="&#xe9;" 
d="M503 242q0 17 -0.5 37.5t-4.5 43t-12.5 46.5t-23.5 49q-11 17 -26 34t-37 30.5t-51.5 22t-68.5 8.5q-53 0 -95 -18.5t-72 -53.5t-46 -84.5t-16 -112.5q0 -60 17 -107.5t47.5 -80.5t73 -50t93.5 -17q48 0 85 14.5t64 38t44 54.5t23 64h-63q-9 -35 -25.5 -57.5t-37.5 -36
t-44 -19t-44 -5.5q-42 0 -73 15t-52 42t-32 63.5t-11 79.5h388zM117 292q10 87 54.5 129.5t104.5 42.5q46 0 79.5 -19.5t53.5 -51.5q19 -32 23 -59.5t6 -41.5h-321zM314 760l-95 -141h47l129 141h-81z" />
    <glyph glyph-name="edieresis" unicode="&#xeb;" 
d="M503 242q0 17 -0.5 37.5t-4.5 43t-12.5 46.5t-23.5 49q-11 17 -26 34t-37 30.5t-51.5 22t-68.5 8.5q-53 0 -95 -18.5t-72 -53.5t-46 -84.5t-16 -112.5q0 -60 17 -107.5t47.5 -80.5t73 -50t93.5 -17q48 0 85 14.5t64 38t44 54.5t23 64h-63q-9 -35 -25.5 -57.5t-37.5 -36
t-44 -19t-44 -5.5q-42 0 -73 15t-52 42t-32 63.5t-11 79.5h388zM117 292q10 87 54.5 129.5t104.5 42.5q46 0 79.5 -19.5t53.5 -51.5q19 -32 23 -59.5t6 -41.5h-321zM320 647h73v76h-73v-76zM149 647h73v76h-73v-76z" />
    <glyph glyph-name="iacute" unicode="&#xed;" horiz-adv-x="222" 
d="M76 0h63v505h-63v-505zM146 762l-95 -141h48l128 141h-81z" />
    <glyph glyph-name="icircumflex" unicode="&#xee;" horiz-adv-x="222" 
d="M76 0h63v505h-63v-505zM68 766l-101 -146h46l91 106l89 -106h46l-98 146h-73z" />
    <glyph glyph-name="oacute" unicode="&#xf3;" 
d="M40 256q0 -61 16 -110.5t46 -84t73.5 -53.5t99.5 -19q48 0 90 16t73.5 48.5t50 82.5t18.5 118q0 71 -20 120.5t-52.5 81t-74.5 45.5t-85 14q-50 0 -92.5 -17t-74.5 -49.5t-50 -81t-18 -111.5zM109 256q0 62 16.5 102t41 63.5t54 32.5t55.5 9q36 0 66.5 -14t52.5 -40.5
t34.5 -64.5t12.5 -86q0 -41 -9.5 -79.5t-29.5 -68.5t-51.5 -48.5t-76.5 -18.5q-41 0 -70.5 15t-48.5 36q-29 33 -38 77.5t-9 84.5zM315 760l-95 -141h47l129 141h-81z" />
    <glyph glyph-name="ocircumflex" unicode="&#xf4;" 
d="M40 256q0 -61 16 -110.5t46 -84t73.5 -53.5t99.5 -19q48 0 90 16t73.5 48.5t50 82.5t18.5 118q0 71 -20 120.5t-52.5 81t-74.5 45.5t-85 14q-50 0 -92.5 -17t-74.5 -49.5t-50 -81t-18 -111.5zM109 256q0 62 16.5 102t41 63.5t54 32.5t55.5 9q36 0 66.5 -14t52.5 -40.5
t34.5 -64.5t12.5 -86q0 -41 -9.5 -79.5t-29.5 -68.5t-51.5 -48.5t-76.5 -18.5q-41 0 -70.5 15t-48.5 36q-29 33 -38 77.5t-9 84.5zM241 764l-101 -146h47l90 106l89 -106h46l-98 146h-73z" />
    <glyph glyph-name="odieresis" unicode="&#xf6;" 
d="M40 256q0 -61 16 -110.5t46 -84t73.5 -53.5t99.5 -19q48 0 90 16t73.5 48.5t50 82.5t18.5 118q0 71 -20 120.5t-52.5 81t-74.5 45.5t-85 14q-50 0 -92.5 -17t-74.5 -49.5t-50 -81t-18 -111.5zM109 256q0 62 16.5 102t41 63.5t54 32.5t55.5 9q36 0 66.5 -14t52.5 -40.5
t34.5 -64.5t12.5 -86q0 -41 -9.5 -79.5t-29.5 -68.5t-51.5 -48.5t-76.5 -18.5q-41 0 -70.5 15t-48.5 36q-29 33 -38 77.5t-9 84.5zM323 647h73v76h-73v-76zM152 647h73v76h-73v-76z" />
    <glyph glyph-name="divide" unicode="&#xf7;" horiz-adv-x="660" 
d="M80 221h500v60h-500v-60zM368 0v88h-75v-88h75zM368 414v88h-75v-88h75z" />
    <glyph glyph-name="uacute" unicode="&#xfa;" 
d="M76 506v-320q0 -48 10.5 -78.5t22.5 -47.5q7 -9 18.5 -20.5t29.5 -21.5t41.5 -17t54.5 -7q30 0 55 8t44.5 20t33.5 27t23 29l2 -78h61l-2 75v431h-64v-258q0 -20 -2 -53t-15.5 -65.5t-42.5 -56t-83 -23.5q-46 0 -71 19t-36.5 45t-13.5 52.5t-2 41.5v298h-64zM314 760
l-95 -141h47l129 141h-81z" />
    <glyph glyph-name="udieresis" unicode="&#xfc;" 
d="M76 506v-320q0 -48 10.5 -78.5t22.5 -47.5q7 -9 18.5 -20.5t29.5 -21.5t41.5 -17t54.5 -7q30 0 55 8t44.5 20t33.5 27t23 29l2 -78h61l-2 75v431h-64v-258q0 -20 -2 -53t-15.5 -65.5t-42.5 -56t-83 -23.5q-46 0 -71 19t-36.5 45t-13.5 52.5t-2 41.5v298h-64zM321 647h72
v76h-72v-76zM149 647h73v76h-73v-76z" />
    <glyph glyph-name="dotaccent" unicode="&#xff;" horiz-adv-x="278" 
d="M176 619v88h-74v-88h74z" />
    <glyph glyph-name="dotaccent" unicode="&#x2d9;" horiz-adv-x="278" 
d="M176 619v88h-74v-88h74z" />
    <glyph glyph-name="ordfeminine" horiz-adv-x="300" 
d="M232 574h2q1 -22 -2.5 -42.5t-14 -37t-29.5 -26.5t-49 -10t-48 11t-18 42q0 26 17.5 38.5t42.5 17t52 4.5q28 0 47 1v2zM232 612q-16 -1 -34 -1t-37 -1t-37.5 -3.5t-34.5 -8.5q-29 -11 -47.5 -33.5t-18.5 -53.5q0 -45 32 -69t77 -24q33 0 59.5 15t37.5 34h2l3 -40h46
q-1 11 -2.5 22.5t-1.5 23.5v165q1 52 -30.5 75.5t-85.5 23.5q-47 0 -81 -19t-41 -66h46q5 31 26.5 38t48.5 7q34 0 52 -10.5t21 -47.5v-27z" />
    <glyph glyph-name="ugrave" 
d="M416 213q0 -34 -8.5 -65t-26.5 -55t-45 -38.5t-64 -14.5q-62 0 -97 36t-35 102v324h-60v-314q0 -15 1.5 -35.5t7.5 -43t18 -45t31.5 -40t48.5 -28.5t70 -11q49 0 90 22t67 69l2 -2l3 -74h62q-2 26 -3.5 55t-1.5 58v389h-60v-289zM159 762l127 -143h44l-91 143h-80z" />
    <glyph glyph-name="atilde" horiz-adv-x="500" 
d="M101 140q0 47 29 70.5t70.5 32.5t86.5 9t77 1q2 -39 -2.5 -77.5t-21 -68.5t-47 -48.5t-79.5 -18.5q-46 0 -79.5 24.5t-33.5 75.5zM364 308q-27 -2 -56.5 -1.5t-59 -0.5t-58 -5.5t-53.5 -15.5q-45 -19 -73 -56.5t-28 -88.5q0 -37 13 -65.5t35.5 -48.5t53 -30.5t65.5 -10.5
q25 0 50 7t46 18.5t37 26t24 30.5l3 7h2l2 -74h62q-2 26 -4 55t-1 58v238q1 86 -47 126t-131 40q-36 0 -68 -7.5t-56.5 -24.5t-41 -44t-22.5 -66h64q3 25 13.5 42t27 27t37.5 14t45 4q54 0 84 -23t35 -85v-46zM349 695q-6 -16 -19.5 -24.5t-30.5 -8.5q-9 0 -20 3.5t-24 7
t-27 7t-28 3.5q-35 0 -57.5 -23t-30.5 -58h38q4 15 18 22t29 7q17 0 30 -3t24 -7q12 -5 23 -8t22 -3q38 0 60.5 25.5t30.5 59.5h-38z" />
    <glyph glyph-name="igrave" horiz-adv-x="222" 
d="M81 502v-502h60v502h-60zM-8 762l127 -143h44l-91 143h-80z" />
    <glyph glyph-name="Idieresis" horiz-adv-x="278" 
d="M172 0v725h-65v-725h65zM263 790v88h-74v-88h74zM89 790v88h-74v-88h74z" />
    <glyph glyph-name="dotlessi" unicode="&#x131;" horiz-adv-x="222" 
d="M141 0v502h-60v-502h60z" />
    <glyph glyph-name="ydieresis" horiz-adv-x="500" 
d="M8 502l208 -502l-76 -192h66l277 694h-65l-168 -420l-169 420h-73zM374 619v88h-74v-88h74zM200 619v88h-74v-88h74z" />
    <glyph glyph-name="sterling" 
d="M505 0v60h-320v312h162v60h-162v42q0 36 8.5 68t26 55t45.5 36.5t67 13.5q53 0 88 -22t37 -61h70q-1 34 -16 61t-40.5 45t-59 27.5t-71.5 9.5q-72 0 -116.5 -22.5t-68 -60.5t-30.5 -87.5t-4 -104.5h-75v-60h74v-312h-60v-60h445z" />
    <glyph glyph-name="ae" horiz-adv-x="833" 
d="M428 299q-1 28 8 57t27 52.5t44 38.5t60 15q40 0 67.5 -13t45 -35.5t25.5 -52t8 -62.5h-285zM122 375q3 25 13.5 42t27 27t37.5 14t45 4q54 0 83.5 -23t34.5 -85v-55q-27 -1 -56.5 -0.5t-58.5 -0.5t-57.5 -5.5t-53.5 -15.5q-43 -19 -72 -52.5t-29 -84.5q0 -37 13 -65.5
t35.5 -48.5t53 -30.5t65.5 -10.5q68 5 120.5 32.5t74.5 86.5q23 -57 68 -85.5t99 -33.5q76 0 130 42t77 133h-63q-6 -26 -19 -48t-32.5 -38t-43 -25t-50.5 -9q-39 0 -65.5 17.5t-42.5 46.5t-22.5 65.5t-5.5 74.5h350q0 56 -12 106t-38.5 87t-68 58.5t-100.5 21.5
q-22 -1 -44.5 -7.5t-43 -19.5t-37.5 -32t-29 -46h-2q-6 25 -21.5 44t-37.5 32t-47.5 20t-50.5 9q-36 0 -68 -7.5t-56.5 -24.5t-41 -44t-22.5 -66h64zM363 243q1 -39 -4 -75.5t-20.5 -65t-45 -45.5t-77.5 -17q-19 0 -39 5t-37 15.5t-28 27t-11 38.5q0 43 16 66.5t42 35t59 14
t68 2.5z" />
    <glyph glyph-name="radical" unicode="&#x221a;" horiz-adv-x="487" 
d="M490 786h-49l-194 -939l-166 347l-88 -44l19 -40l45 22l168 -346h55z" />
    <glyph glyph-name="Aring" horiz-adv-x="667" 
d="M173 255l159 407l156 -407h-315zM76 0l76 195h359l77 -195h71l-288 722h-76l-286 -722h67zM246 831q0 -18 7 -34t19 -28t28 -19t34 -7t34 7t28 19t19 28t7 34t-7 34t-19 28t-28 19t-34 7t-34 -7t-28 -19t-19 -28t-7 -34zM389 831q0 -20 -17.5 -37.5t-37.5 -17.5
q-21 0 -38 17.5t-17 37.5q0 22 17 38.5t38 16.5t38 -17t17 -38z" />
    <glyph glyph-name="ring" unicode="&#x2da;" horiz-adv-x="278" 
d="M51 649q0 -18 7 -34t19 -28t28 -19t34 -7t34 7t28 19t19 28t7 34t-7 34t-19 28t-28 19t-34 7t-34 -7t-28 -19t-19 -28t-7 -34zM194 649q0 -20 -17.5 -37.5t-37.5 -17.5q-21 0 -38 17.5t-17 37.5q0 22 17 38.5t38 16.5t38 -17t17 -38z" />
    <glyph glyph-name="tilde" unicode="&#x2dc;" horiz-adv-x="278" 
d="M239 695q-6 -16 -19.5 -24.5t-30.5 -8.5q-9 0 -20 3.5t-24 7t-27 7t-28 3.5q-35 0 -57.5 -23t-30.5 -58h38q4 15 18 22t29 7q17 0 30 -3t24 -7q12 -5 23 -8t22 -3q38 0 60.5 25.5t30.5 59.5h-38z" />
    <glyph glyph-name="ecircumflex" 
d="M503 237q0 59 -12 110t-39.5 89t-71 59.5t-106.5 21.5q-56 0 -98 -22.5t-70 -59.5t-42 -85t-14 -99t13.5 -99t40.5 -85t68.5 -59.5t97.5 -22.5q91 0 147.5 42t79.5 133h-63q-6 -26 -19 -48t-32.5 -38t-43 -25t-50.5 -9q-46 0 -78.5 15.5t-53.5 42.5t-31 63t-11 76h388z
M117 292q3 33 14.5 63.5t31 54.5t47.5 38t65 14q39 0 68.5 -13t49.5 -35.5t31 -54t14 -67.5h-321zM142 619h46l90 106l89 -106h47l-99 145h-73z" />
    <glyph glyph-name="ucircumflex" 
d="M416 213q0 -34 -8.5 -65t-26.5 -55t-45 -38.5t-64 -14.5q-62 0 -97 36t-35 102v324h-60v-314q0 -15 1.5 -35.5t7.5 -43t18 -45t31.5 -40t48.5 -28.5t70 -11q49 0 90 22t67 69l2 -2l3 -74h62q-2 26 -3.5 55t-1.5 58v389h-60v-289zM142 619h46l90 106l89 -106h47l-99 145
h-73z" />
    <glyph glyph-name="Ecircumflex" horiz-adv-x="611" 
d="M546 0v60h-379v283h350v60h-350v259h364v60h-429v-722h444zM170 762h46l90 106l89 -106h47l-99 145h-73z" />
    <glyph glyph-name="aring" horiz-adv-x="500" 
d="M101 140q0 47 29 70.5t70.5 32.5t86.5 9t77 1q2 -39 -2.5 -77.5t-21 -68.5t-47 -48.5t-79.5 -18.5q-46 0 -79.5 24.5t-33.5 75.5zM364 308q-27 -2 -56.5 -1.5t-59 -0.5t-58 -5.5t-53.5 -15.5q-45 -19 -73 -56.5t-28 -88.5q0 -37 13 -65.5t35.5 -48.5t53 -30.5t65.5 -10.5
q25 0 50 7t46 18.5t37 26t24 30.5l3 7h2l2 -74h62q-2 26 -4 55t-1 58v238q1 86 -47 126t-131 40q-36 0 -68 -7.5t-56.5 -24.5t-41 -44t-22.5 -66h64q3 25 13.5 42t27 27t37.5 14t45 4q54 0 84 -23t35 -85v-46zM162 649q0 -18 7 -34t19 -28t28 -19t34 -7t34 7t28 19t19 28
t7 34t-7 34t-19 28t-28 19t-34 7t-34 -7t-28 -19t-19 -28t-7 -34zM305 649q0 -20 -17.5 -37.5t-37.5 -17.5q-21 0 -38 17.5t-17 37.5q0 22 17 38.5t38 16.5t38 -17t17 -38z" />
    <glyph glyph-name="lessequal" unicode="&#x2264;" horiz-adv-x="660" 
d="M76 260l497 -192v53l-431 166l431 166v54l-497 -193v-54zM76 23v-48h497v48h-497z" />
    <glyph glyph-name="agrave" horiz-adv-x="500" 
d="M101 140q0 47 29 70.5t70.5 32.5t86.5 9t77 1q2 -39 -2.5 -77.5t-21 -68.5t-47 -48.5t-79.5 -18.5q-46 0 -79.5 24.5t-33.5 75.5zM364 308q-27 -2 -56.5 -1.5t-59 -0.5t-58 -5.5t-53.5 -15.5q-45 -19 -73 -56.5t-28 -88.5q0 -37 13 -65.5t35.5 -48.5t53 -30.5t65.5 -10.5
q25 0 50 7t46 18.5t37 26t24 30.5l3 7h2l2 -74h62q-2 26 -4 55t-1 58v238q1 86 -47 126t-131 40q-36 0 -68 -7.5t-56.5 -24.5t-41 -44t-22.5 -66h64q3 25 13.5 42t27 27t37.5 14t45 4q54 0 84 -23t35 -85v-46zM131 707l127 -143h44l-91 143h-80z" />
    <glyph glyph-name="Ugrave" horiz-adv-x="722" 
d="M97 722v-468q1 -58 17.5 -107.5t49.5 -85.5t82 -56t115 -20t115 20t82 56t49.5 85.5t17.5 107.5v468h-65v-467q-4 -99 -56.5 -154.5t-142.5 -55.5t-142.5 55.5t-56.5 154.5v467h-65zM242 905l127 -143h44l-91 143h-80z" />
    <glyph glyph-name="questiondown" horiz-adv-x="500" 
d="M265 376v-70q2 -22 -1.5 -35.5t-14 -26.5t-28 -29.5t-44.5 -44.5q-21 -20 -39.5 -39.5t-33 -41t-22.5 -46.5t-8 -56q0 -46 17 -79.5t46 -55.5t67.5 -33t80.5 -11q28 0 55.5 3t54.5 11v61q-23 -7 -46.5 -11t-47.5 -4q-31 0 -60 5.5t-51.5 19.5t-36.5 37.5t-14 58.5
q0 31 13.5 57.5t34 49.5t44.5 44t44.5 41.5t34.5 41.5t15 45v108h-60zM255 542v-86h80v86h-80z" />
    <glyph glyph-name="cent" 
d="M204 71q-33 27 -51 75.5t-18 105.5q0 43 10.5 81t29.5 66.5t46.5 45.5t62.5 17q8 0 14.5 -0.5t14.5 -1.5zM328 514q-15 3 -34 3q-56 0 -98 -22.5t-70 -59.5t-42 -85t-14 -99q0 -38 7 -74t21.5 -67.5t36.5 -57t52 -41.5l-41 -144h45l36 127q27 -9 63 -9q172 0 196 172h-65
q-4 -52 -41 -84.5t-96 -32.5q-21 0 -42 8l112 402q63 -24 67 -102h65q-3 60 -35 100t-82 57l38 134h-44z" />
    <glyph glyph-name="fi" unicode="&#xfb01;" 
d="M406 502v-502h60v502h-60zM471 722h-70v-75h70v75zM183 0v447h114v55h-114v64q-1 27 0 48t8.5 35.5t24.5 22t48 7.5q9 0 18.5 -1t18.5 -3v48q-14 3 -28.5 7t-28.5 4q-65 0 -93 -30t-28 -95v-107h-101v-55h101v-447h60z" />
    <glyph glyph-name="oslash" 
d="M140 127q-17 29 -24 61.5t-7 62.5q0 35 9.5 72.5t29.5 68t52.5 50.5t77.5 20q39 0 68 -15t49 -40zM415 377q17 -29 24.5 -61.5t7.5 -64.5q0 -35 -9.5 -72.5t-29.5 -68t-52.5 -50.5t-77.5 -20q-41 0 -70 16t-49 41zM33 10l24 -25l60 65q28 -29 68 -47t93 -18q60 0 104 23
t73 60.5t43 85t14 97.5q0 48 -13 93t-39 82l60 66l-24 25l-59 -64q-28 29 -67.5 46.5t-91.5 17.5q-60 0 -104 -23t-73 -60.5t-43 -85.5t-14 -97q0 -47 12.5 -91.5t38.5 -81.5z" />
    <glyph glyph-name="Ograve" horiz-adv-x="778" 
d="M137 361q0 59 14 116t44.5 101.5t78 71.5t115.5 27q67 0 115 -27t78.5 -71.5t44.5 -101.5t14 -116t-14 -116t-44.5 -101.5t-78.5 -71.5t-115 -27q-68 0 -115.5 27t-78 71.5t-44.5 101.5t-14 116zM711 361q0 84 -21 153.5t-62 119t-101 76.5t-138 27t-138 -27t-101 -76.5
t-62 -119t-21 -153.5t21 -153.5t62 -119t101 -76.5t138 -27t138 27t101 76.5t62 119t21 153.5zM270 913l127 -143h44l-91 143h-80z" />
    <glyph glyph-name="Otilde" horiz-adv-x="778" 
d="M64 368q0 -75 17.5 -144t56 -121t99 -83t146.5 -31q100 0 163 37.5t99 94t49 121.5t13 121q0 38 -4.5 76t-15 74t-28 69t-42.5 62t-56.5 47t-63 28t-61.5 13.5t-52 3.5q-91 0 -152 -33t-98.5 -85.5t-53.5 -118.5t-16 -131zM135 366q0 63 15 119.5t45.5 99.5t78 68
t112.5 25q74 0 122 -31t76 -78t39 -102t11 -104q0 -61 -13.5 -118t-43.5 -101t-77 -70.5t-114 -26.5q-68 0 -116 27.5t-78 72.5t-43.5 102t-13.5 117zM486 882q-4 -11 -13 -21.5t-37 -10.5h-7q-4 0 -10 2l-48 14q-5 2 -12.5 3.5t-18.5 1.5q-22 0 -38 -8t-27 -20t-17 -26.5
t-9 -27.5h38q4 8 13 19t37 11q2 0 9.5 -0.5t18.5 -3.5l45 -13q7 -2 14 -3.5t15 -1.5q12 0 24.5 4.5t24.5 15t22 26.5t15 39h-39z" />
    <glyph glyph-name="fl" unicode="&#xfb02;" 
d="M185 0v447h114v55h-114v64q-1 27 0 48t8.5 35.5t24.5 22t48 7.5q9 0 18.5 -1t18.5 -3v48q-14 3 -28.5 7t-28.5 4q-65 0 -93 -30t-28 -95v-107h-101v-55h101v-447h60zM470 722h-60v-722h60v722z" />
    <glyph glyph-name="ntilde" 
d="M140 289q0 34 8.5 65t26.5 55t45 38.5t64 14.5q62 0 97 -36t35 -102v-324h60v314q0 14 -1.5 35t-7.5 43.5t-18 45t-31.5 40t-48.5 28.5t-70 11q-49 0 -90 -22t-67 -69l-2 2l-3 74h-62q2 -26 3.5 -55t1.5 -58v-389h60v289zM379 695q-6 -16 -19.5 -24.5t-30.5 -8.5
q-9 0 -20 3.5t-24 7t-27 7t-28 3.5q-35 0 -57.5 -23t-30.5 -58h38q4 15 18 22t29 7q17 0 30 -3t24 -7q12 -5 23 -8t22 -3q38 0 60.5 25.5t30.5 59.5h-38z" />
    <glyph glyph-name="AE" horiz-adv-x="1000" 
d="M426 722l-418 -722h72l114 196h350l34 -196h356v60h-299l-47 283h319v60h-328l-43 259h389v60h-499zM465 662h2l69 -406h-308z" />
    <glyph glyph-name="circumflex" unicode="&#x2c6;" horiz-adv-x="278" 
d="M3 619h46l90 106l89 -106h47l-99 145h-73z" />
    <glyph glyph-name="Ucircumflex" horiz-adv-x="722" 
d="M97 722v-468q1 -58 17.5 -107.5t49.5 -85.5t82 -56t115 -20t115 20t82 56t49.5 85.5t17.5 107.5v468h-65v-467q-4 -99 -56.5 -154.5t-142.5 -55.5t-142.5 55.5t-56.5 154.5v467h-65zM225 762h46l90 106l89 -106h47l-99 145h-73z" />
    <glyph glyph-name="notequal" unicode="&#x2260;" horiz-adv-x="660" 
d="M258 173h-182v-48h156l-64 -118l42 -23l75 141h288v48h-262l72 135h190v48h-164l66 123l-42 22l-77 -145h-280v-48h253z" />
    <glyph glyph-name="summation" unicode="&#x2211;" horiz-adv-x="598" 
d="M555 786h-515v-47l321 -451l-335 -455v-47h541v51h-478l337 451l-318 447h447v51z" />
    <glyph glyph-name="ordmasculine" horiz-adv-x="334" 
d="M65 578q0 21 6 42t18.5 38t31.5 28t46 11q26 0 45.5 -11t32 -28t18.5 -38t6 -42t-6 -42.5t-18.5 -38.5t-32 -28t-45.5 -11q-27 0 -46 11t-31.5 28t-18.5 38.5t-6 42.5zM167 737q-39 0 -67.5 -13.5t-47.5 -36t-28 -51t-9 -58.5t9 -59t28 -51.5t47.5 -36t67.5 -13.5
t67.5 13.5t47.5 36t28 51.5t9 59t-9 58.5t-28 51t-47.5 36t-67.5 13.5z" />
    <glyph glyph-name="partialdiff" unicode="&#x2202;" horiz-adv-x="489" 
d="M94 628q20 16 45 30.5t65 14.5q55 0 98 -35t65 -102q10 -30 15 -59t6.5 -55.5t1.5 -49.5t-1 -42q-22 29 -45.5 47t-46.5 28t-43.5 13.5t-35.5 3.5q-31 0 -64.5 -11.5t-61.5 -36.5t-46 -65t-18 -98q0 -51 15.5 -92t42.5 -70t62 -45t74 -16q69 0 116.5 42.5t72.5 113.5
q9 26 14.5 56.5t9 60.5t4.5 57t1 46q0 88 -15.5 148.5t-39.5 100.5t-53 61.5t-55 32t-47 12.5t-28 2q-41 0 -74 -14t-63 -42zM383 275q-4 -55 -15 -94.5t-25.5 -66t-31.5 -43t-33.5 -25t-31 -11t-24.5 -2.5q-23 0 -48 10.5t-46 32.5t-34.5 55.5t-13.5 78.5q0 46 14.5 77.5
t36 50.5t46 27t44.5 8q36 0 80.5 -23.5t81.5 -74.5z" />
    <glyph glyph-name="Egrave" horiz-adv-x="611" 
d="M546 0v60h-379v283h350v60h-350v259h364v60h-429v-722h444zM187 905l127 -143h44l-91 143h-80z" />
    <glyph glyph-name="florin" unicode="&#x192;" 
d="M233 408l-84 -432q-3 -14 -7 -31t-10.5 -33t-16 -28.5t-24.5 -16.5q-20 -6 -48 1l-11 -54q22 -6 46 -6q48 0 75 24t41.5 59.5t21 77t13.5 76.5l70 363h107l8 60h-106l20 100q6 35 22 57t61 22q25 0 44 -4l8 57q-18 3 -35.5 5t-35.5 2q-38 0 -62 -15t-38.5 -38.5
t-22 -51.5t-11.5 -54l-16 -80h-94l-9 -60h94z" />
    <glyph glyph-name="ograve" 
d="M447 251q0 -35 -9.5 -72.5t-29.5 -68t-52.5 -50.5t-77.5 -20t-77.5 20t-52.5 50.5t-29.5 68t-9.5 72.5t9.5 72.5t29.5 68t52.5 50.5t77.5 20t77.5 -20t52.5 -50.5t29.5 -68t9.5 -72.5zM278 517q-60 0 -104 -23t-73 -60.5t-43 -85.5t-14 -97q0 -50 14 -97.5t43 -85
t73 -60.5t104 -23t104 23t73 60.5t43 85t14 97.5q0 49 -14 97t-43 85.5t-73 60.5t-104 23zM159 762l127 -143h44l-91 143h-80z" />
    <glyph glyph-name="egrave" 
d="M503 237q0 59 -12 110t-39.5 89t-71 59.5t-106.5 21.5q-56 0 -98 -22.5t-70 -59.5t-42 -85t-14 -99t13.5 -99t40.5 -85t68.5 -59.5t97.5 -22.5q91 0 147.5 42t79.5 133h-63q-6 -26 -19 -48t-32.5 -38t-43 -25t-50.5 -9q-46 0 -78.5 15.5t-53.5 42.5t-31 63t-11 76h388z
M117 292q3 33 14.5 63.5t31 54.5t47.5 38t65 14q39 0 68.5 -13t49.5 -35.5t31 -54t14 -67.5h-321zM159 762l127 -143h44l-91 143h-80z" />
    <glyph glyph-name="Igrave" horiz-adv-x="278" 
d="M172 0v725h-65v-725h65zM25 905l127 -143h44l-91 143h-80z" />
    <glyph glyph-name="Ntilde" horiz-adv-x="722" 
d="M92 0h65v624h2l390 -624h82v722h-65v-635h-2l-398 635h-74v-722zM459 855q-6 -16 -19.5 -24.5t-30.5 -8.5q-9 0 -20 3.5t-24 7t-27 7t-28 3.5q-35 0 -57.5 -23t-30.5 -58h38q4 15 18 22t29 7q17 0 30 -3t24 -7q12 -5 23 -8t22 -3q38 0 60.5 25.5t30.5 59.5h-38z" />
    <glyph glyph-name="greaterequal" unicode="&#x2265;" horiz-adv-x="660" 
d="M573 260v54l-497 193v-54l430 -166l-430 -166v-53zM573 23h-497v-48h497v48z" />
    <glyph glyph-name="Oslash" horiz-adv-x="778" 
d="M186 160q-26 42 -37.5 94t-11.5 107q0 59 14 116t44.5 101.5t78 71.5t115.5 27q61 0 106 -22.5t76 -61.5zM163 76q42 -45 98 -68t128 -23q78 0 138 27t101 76.5t62 119t21 153.5q0 157 -70 254l85 97l-27 25l-82 -92q-41 44 -98 68t-130 24q-78 0 -138 -27t-101 -76.5
t-62 -119t-21 -153.5q0 -78 18 -142.5t53 -112.5l-84 -94l29 -27zM593 561q25 -43 36.5 -94.5t11.5 -105.5q0 -59 -14 -116t-44.5 -101.5t-78.5 -71.5t-115 -27q-61 0 -105.5 22t-74.5 60z" />
    <glyph glyph-name="idieresis" horiz-adv-x="222" 
d="M81 502v-502h60v502h-60zM235 619v88h-74v-88h74zM61 619v88h-74v-88h74z" />
    <glyph glyph-name="yen" 
d="M312 0v136h200v60h-200v60h200v60h-199l242 376h-70l-200 -319l-201 319h-83l244 -376h-201v-60h203v-60h-203v-60h203v-136h65z" />
    <glyph glyph-name="Atilde" horiz-adv-x="667" 
d="M173 255l159 407l156 -407h-315zM76 0l76 195h359l77 -195h71l-288 722h-76l-286 -722h67zM434 855q-6 -16 -19.5 -24.5t-30.5 -8.5q-9 0 -20 3.5t-24 7t-27 7t-28 3.5q-35 0 -57.5 -23t-30.5 -58h38q4 15 18 22t29 7q17 0 30 -3t24 -7q12 -5 23 -8t22 -3q38 0 60.5 25.5
t30.5 59.5h-38z" />
    <glyph glyph-name="macron" unicode="&#x2c9;" horiz-adv-x="278" 
d="M262 647v60h-245v-60h245z" />
    <glyph glyph-name="lozenge" unicode="&#x25ca;" horiz-adv-x="600" 
d="M322 747h-53l-167 -391l167 -391h53l169 391zM437 356l-141 -335l-141 335l141 335z" />
    <glyph glyph-name="exclamdown" horiz-adv-x="389" 
d="M155 542v-86h80v86h-80zM167 371l-13 -551h82l-13 551h-56z" />
    <glyph glyph-name="Agrave" horiz-adv-x="667" 
d="M173 255l159 407l156 -407h-315zM76 0l76 195h359l77 -195h71l-288 722h-76l-286 -722h67zM191 905l127 -143h44l-91 143h-80z" />
    <glyph glyph-name="otilde" 
d="M40 256q0 -61 16 -110.5t46 -84t73.5 -53.5t99.5 -19q48 0 90 16t73.5 48.5t50 82.5t18.5 118q0 71 -20 120.5t-52.5 81t-74.5 45.5t-85 14q-50 0 -92.5 -17t-74.5 -49.5t-50 -81t-18 -111.5zM109 256q0 62 16.5 102t41 63.5t54 32.5t55.5 9q36 0 66.5 -14t52.5 -40.5
t34.5 -64.5t12.5 -86q0 -41 -9.5 -79.5t-29.5 -68.5t-51.5 -48.5t-76.5 -18.5q-41 0 -70.5 15t-48.5 36q-29 33 -38 77.5t-9 84.5zM378 738q-5 -11 -14 -21.5t-37 -10.5h-7q-4 0 -10 2l-47 14q-5 2 -13 3.5t-19 1.5q-22 0 -38 -8t-27 -20t-17 -26.5t-9 -27.5h39q2 4 5 9.5
t8 10t13.5 7.5t22.5 3q3 0 10 -0.5t18 -3.5l45 -13q7 -2 14.5 -3.5t14.5 -1.5q12 0 24.5 4.5t24.5 15t22 26.5t15 39h-38z" />
    <glyph glyph-name="space" unicode=" " horiz-adv-x="278" 
 />
    <glyph glyph-name="space" unicode="&#xa0;" horiz-adv-x="278" 
 />
    <glyph glyph-name="OE" unicode="&#x152;" horiz-adv-x="611" 
d="M56 188q2 -23 10 -57.5t40 -69.5q35 -40 85 -55t103 -15q58 0 105 14.5t81 40.5t52.5 63t18.5 81q0 34 -12.5 66t-36.5 55q-13 12 -27 21.5t-32.5 18t-44 17.5t-61.5 21q-50 17 -87.5 32t-62.5 32t-37 38.5t-12 51.5q0 57 44.5 96t133.5 39q54 0 83 -14t43 -27
q18 -18 22.5 -37t6.5 -35h67q-1 48 -22.5 80t-54.5 51.5t-72.5 28t-76.5 8.5q-50 0 -94 -12.5t-76 -37t-50.5 -60.5t-18.5 -84q0 -40 12.5 -69t38.5 -52t67.5 -42.5t99.5 -39.5q52 -18 89 -32t60.5 -30t34 -36.5t10.5 -51.5q0 -37 -16.5 -63.5t-42.5 -43.5t-60 -25t-68 -8
q-9 0 -24 1t-32.5 4.5t-36 10.5t-34.5 19q-17 13 -26.5 28.5t-14 30.5t-5.5 28t-1 20h-68zM354 904l-95 -141h47l129 141h-81z" />
    <glyph glyph-name="oe" unicode="&#x153;" horiz-adv-x="500" 
d="M44 137q2 -49 25 -78t54.5 -44.5t64.5 -20t55 -4.5q49 0 87 12t63.5 33.5t39 50t13.5 61.5q0 37 -13 60.5t-31.5 37.5t-40.5 21.5t-40 12.5l-103 27q-46 12 -69.5 27.5t-23.5 50.5q0 38 29 61t88 23q18 0 39 -3t39 -12.5t30.5 -27.5t14.5 -47h67q-4 46 -23.5 73.5
t-46.5 41.5t-57.5 18.5t-57.5 4.5q-53 0 -88.5 -12.5t-57 -33t-30.5 -45.5t-9 -49q0 -32 11 -53t28.5 -34.5t38 -21t39.5 -12.5l103 -27q19 -5 36.5 -10.5t31.5 -15.5t22.5 -25.5t8.5 -39.5q0 -34 -17 -54t-39.5 -30t-45 -12.5t-34.5 -2.5q-39 0 -67 11t-42 26
q-16 17 -19.5 33t-5.5 29h-67zM286 761l-95 -141h47l129 141h-81z" />
    <glyph glyph-name="Ydieresis" unicode="&#x178;" horiz-adv-x="444" 
d="M40 0h365v53h-292l285 393v56h-350v-52h279l-287 -392v-58zM280 761l-95 -141h47l129 141h-81z" />
    <glyph glyph-name="Scaron" horiz-adv-x="611" 
d="M56 188q2 -23 10 -57.5t40 -69.5q35 -40 85 -55t103 -15q58 0 105 14.5t81 40.5t52.5 63t18.5 81q0 34 -12.5 66t-36.5 55q-13 12 -27 21.5t-32.5 18t-44 17.5t-61.5 21q-50 17 -87.5 32t-62.5 32t-37 38.5t-12 51.5q0 57 44.5 96t133.5 39q54 0 83 -14t43 -27
q18 -18 22.5 -37t6.5 -35h67q-1 48 -22.5 80t-54.5 51.5t-72.5 28t-76.5 8.5q-50 0 -94 -12.5t-76 -37t-50.5 -60.5t-18.5 -84q0 -40 12.5 -69t38.5 -52t67.5 -42.5t99.5 -39.5q52 -18 89 -32t60.5 -30t34 -36.5t10.5 -51.5q0 -37 -16.5 -63.5t-42.5 -43.5t-60 -25t-68 -8
q-9 0 -24 1t-32.5 4.5t-36 10.5t-34.5 19q-17 13 -26.5 28.5t-14 30.5t-5.5 28t-1 20h-68zM162 905l98 -143h80l96 143h-46l-89 -105l-93 105h-46z" />
    <glyph glyph-name="Scaron" unicode="&#x160;" horiz-adv-x="611" 
d="M56 188q2 -23 10 -57.5t40 -69.5q35 -40 85 -55t103 -15q58 0 105 14.5t81 40.5t52.5 63t18.5 81q0 34 -12.5 66t-36.5 55q-13 12 -27 21.5t-32.5 18t-44 17.5t-61.5 21q-50 17 -87.5 32t-62.5 32t-37 38.5t-12 51.5q0 57 44.5 96t133.5 39q54 0 83 -14t43 -27
q18 -18 22.5 -37t6.5 -35h67q-1 48 -22.5 80t-54.5 51.5t-72.5 28t-76.5 8.5q-50 0 -94 -12.5t-76 -37t-50.5 -60.5t-18.5 -84q0 -40 12.5 -69t38.5 -52t67.5 -42.5t99.5 -39.5q52 -18 89 -32t60.5 -30t34 -36.5t10.5 -51.5q0 -37 -16.5 -63.5t-42.5 -43.5t-60 -25t-68 -8
q-9 0 -24 1t-32.5 4.5t-36 10.5t-34.5 19q-17 13 -26.5 28.5t-14 30.5t-5.5 28t-1 20h-68zM162 905l98 -143h80l96 143h-46l-89 -105l-93 105h-46z" />
    <glyph glyph-name="Sacute" horiz-adv-x="611" 
d="M56 188q2 -23 10 -57.5t40 -69.5q35 -40 85 -55t103 -15q58 0 105 14.5t81 40.5t52.5 63t18.5 81q0 34 -12.5 66t-36.5 55q-13 12 -27 21.5t-32.5 18t-44 17.5t-61.5 21q-50 17 -87.5 32t-62.5 32t-37 38.5t-12 51.5q0 57 44.5 96t133.5 39q54 0 83 -14t43 -27
q18 -18 22.5 -37t6.5 -35h67q-1 48 -22.5 80t-54.5 51.5t-72.5 28t-76.5 8.5q-50 0 -94 -12.5t-76 -37t-50.5 -60.5t-18.5 -84q0 -40 12.5 -69t38.5 -52t67.5 -42.5t99.5 -39.5q52 -18 89 -32t60.5 -30t34 -36.5t10.5 -51.5q0 -37 -16.5 -63.5t-42.5 -43.5t-60 -25t-68 -8
q-9 0 -24 1t-32.5 4.5t-36 10.5t-34.5 19q-17 13 -26.5 28.5t-14 30.5t-5.5 28t-1 20h-68zM354 904l-95 -141h47l129 141h-81z" />
    <glyph glyph-name="Sacute" unicode="&#x15a;" horiz-adv-x="611" 
d="M56 188q2 -23 10 -57.5t40 -69.5q35 -40 85 -55t103 -15q58 0 105 14.5t81 40.5t52.5 63t18.5 81q0 34 -12.5 66t-36.5 55q-13 12 -27 21.5t-32.5 18t-44 17.5t-61.5 21q-50 17 -87.5 32t-62.5 32t-37 38.5t-12 51.5q0 57 44.5 96t133.5 39q54 0 83 -14t43 -27
q18 -18 22.5 -37t6.5 -35h67q-1 48 -22.5 80t-54.5 51.5t-72.5 28t-76.5 8.5q-50 0 -94 -12.5t-76 -37t-50.5 -60.5t-18.5 -84q0 -40 12.5 -69t38.5 -52t67.5 -42.5t99.5 -39.5q52 -18 89 -32t60.5 -30t34 -36.5t10.5 -51.5q0 -37 -16.5 -63.5t-42.5 -43.5t-60 -25t-68 -8
q-9 0 -24 1t-32.5 4.5t-36 10.5t-34.5 19q-17 13 -26.5 28.5t-14 30.5t-5.5 28t-1 20h-68zM354 904l-95 -141h47l129 141h-81z" />
    <glyph glyph-name="Tcaron" 
d="M243 0h64l1 662h229v58h-528v-58h233zM134 914l98 -144h80l96 144h-46l-89 -106l-93 106h-46z" />
    <glyph glyph-name="Tcaron" unicode="&#x164;" 
d="M243 0h64l1 662h229v58h-528v-58h233zM134 914l98 -144h80l96 144h-46l-89 -106l-93 106h-46z" />
    <glyph glyph-name="Zcaron" 
d="M12 0h518v58h-447l436 602v62h-479v-58h401l-429 -597v-67zM134 908l99 -144h79l97 144h-47l-89 -106l-92 106h-47z" />
    <glyph glyph-name="Zcaron" unicode="&#x17d;" 
d="M12 0h518v58h-447l436 602v62h-479v-58h401l-429 -597v-67zM134 908l99 -144h79l97 144h-47l-89 -106l-92 106h-47z" />
    <glyph glyph-name="Zacute" 
d="M12 0h518v58h-447l436 602v62h-479v-58h401l-429 -597v-67zM338 904l-95 -141h47l129 141h-81z" />
    <glyph glyph-name="Zacute" unicode="&#x179;" 
d="M12 0h518v58h-447l436 602v62h-479v-58h401l-429 -597v-67zM338 904l-95 -141h47l129 141h-81z" />
    <glyph glyph-name="scaron" horiz-adv-x="500" 
d="M44 137q2 -49 25 -78t54.5 -44.5t64.5 -20t55 -4.5q49 0 87 12t63.5 33.5t39 50t13.5 61.5q0 37 -13 60.5t-31.5 37.5t-40.5 21.5t-40 12.5l-103 27q-46 12 -69.5 27.5t-23.5 50.5q0 38 29 61t88 23q18 0 39 -3t39 -12.5t30.5 -27.5t14.5 -47h67q-4 46 -23.5 73.5
t-46.5 41.5t-57.5 18.5t-57.5 4.5q-53 0 -88.5 -12.5t-57 -33t-30.5 -45.5t-9 -49q0 -32 11 -53t28.5 -34.5t38 -21t39.5 -12.5l103 -27q19 -5 36.5 -10.5t31.5 -15.5t22.5 -25.5t8.5 -39.5q0 -34 -17 -54t-39.5 -30t-45 -12.5t-34.5 -2.5q-39 0 -67 11t-42 26
q-16 17 -19.5 33t-5.5 29h-67zM106 761l99 -143h80l96 143h-47l-89 -105l-92 105h-47z" />
    <glyph glyph-name="scaron" unicode="&#x161;" horiz-adv-x="500" 
d="M44 137q2 -49 25 -78t54.5 -44.5t64.5 -20t55 -4.5q49 0 87 12t63.5 33.5t39 50t13.5 61.5q0 37 -13 60.5t-31.5 37.5t-40.5 21.5t-40 12.5l-103 27q-46 12 -69.5 27.5t-23.5 50.5q0 38 29 61t88 23q18 0 39 -3t39 -12.5t30.5 -27.5t14.5 -47h67q-4 46 -23.5 73.5
t-46.5 41.5t-57.5 18.5t-57.5 4.5q-53 0 -88.5 -12.5t-57 -33t-30.5 -45.5t-9 -49q0 -32 11 -53t28.5 -34.5t38 -21t39.5 -12.5l103 -27q19 -5 36.5 -10.5t31.5 -15.5t22.5 -25.5t8.5 -39.5q0 -34 -17 -54t-39.5 -30t-45 -12.5t-34.5 -2.5q-39 0 -67 11t-42 26
q-16 17 -19.5 33t-5.5 29h-67zM106 761l99 -143h80l96 143h-47l-89 -105l-92 105h-47z" />
    <glyph glyph-name="sacute" horiz-adv-x="500" 
d="M44 137q2 -49 25 -78t54.5 -44.5t64.5 -20t55 -4.5q49 0 87 12t63.5 33.5t39 50t13.5 61.5q0 37 -13 60.5t-31.5 37.5t-40.5 21.5t-40 12.5l-103 27q-46 12 -69.5 27.5t-23.5 50.5q0 38 29 61t88 23q18 0 39 -3t39 -12.5t30.5 -27.5t14.5 -47h67q-4 46 -23.5 73.5
t-46.5 41.5t-57.5 18.5t-57.5 4.5q-53 0 -88.5 -12.5t-57 -33t-30.5 -45.5t-9 -49q0 -32 11 -53t28.5 -34.5t38 -21t39.5 -12.5l103 -27q19 -5 36.5 -10.5t31.5 -15.5t22.5 -25.5t8.5 -39.5q0 -34 -17 -54t-39.5 -30t-45 -12.5t-34.5 -2.5q-39 0 -67 11t-42 26
q-16 17 -19.5 33t-5.5 29h-67zM286 761l-95 -141h47l129 141h-81z" />
    <glyph glyph-name="sacute" unicode="&#x15b;" horiz-adv-x="500" 
d="M44 137q2 -49 25 -78t54.5 -44.5t64.5 -20t55 -4.5q49 0 87 12t63.5 33.5t39 50t13.5 61.5q0 37 -13 60.5t-31.5 37.5t-40.5 21.5t-40 12.5l-103 27q-46 12 -69.5 27.5t-23.5 50.5q0 38 29 61t88 23q18 0 39 -3t39 -12.5t30.5 -27.5t14.5 -47h67q-4 46 -23.5 73.5
t-46.5 41.5t-57.5 18.5t-57.5 4.5q-53 0 -88.5 -12.5t-57 -33t-30.5 -45.5t-9 -49q0 -32 11 -53t28.5 -34.5t38 -21t39.5 -12.5l103 -27q19 -5 36.5 -10.5t31.5 -15.5t22.5 -25.5t8.5 -39.5q0 -34 -17 -54t-39.5 -30t-45 -12.5t-34.5 -2.5q-39 0 -67 11t-42 26
q-16 17 -19.5 33t-5.5 29h-67zM286 761l-95 -141h47l129 141h-81z" />
    <glyph glyph-name="tcaron" horiz-adv-x="333" 
d="M119 454v-350q0 -57 32.5 -82.5t86.5 -25.5q26 0 41 3t25 7v52q-9 -4 -19.5 -7t-26.5 -3q-29 0 -44 9t-22.5 21.5t-8.5 27t-1 25.5v323h115v48h-115v133l-63 -26v-107h-96v-48h96zM253 725v-97h24q0 -25 -7 -50.5t-35 -35.5v-27q20 6 33.5 18.5t22 28t12 33t3.5 33.5v97
h-53z" />
    <glyph glyph-name="tcaron" unicode="&#x165;" horiz-adv-x="333" 
d="M119 454v-350q0 -57 32.5 -82.5t86.5 -25.5q26 0 41 3t25 7v52q-9 -4 -19.5 -7t-26.5 -3q-29 0 -44 9t-22.5 21.5t-8.5 27t-1 25.5v323h115v48h-115v133l-63 -26v-107h-96v-48h96zM253 725v-97h24q0 -25 -7 -50.5t-35 -35.5v-27q20 6 33.5 18.5t22 28t12 33t3.5 33.5v97
h-53z" />
    <glyph glyph-name="zcaron" horiz-adv-x="444" 
d="M40 0h365v53h-292l285 393v56h-350v-52h279l-287 -392v-58zM83 761l98 -143h80l96 143h-46l-89 -105l-93 105h-46z" />
    <glyph glyph-name="zcaron" unicode="&#x17e;" horiz-adv-x="444" 
d="M40 0h365v53h-292l285 393v56h-350v-52h279l-287 -392v-58zM83 761l98 -143h80l96 143h-46l-89 -105l-93 105h-46z" />
    <glyph glyph-name="zacute" horiz-adv-x="444" 
d="M40 0h365v53h-292l285 393v56h-350v-52h279l-287 -392v-58zM280 761l-95 -141h47l129 141h-81z" />
    <glyph glyph-name="zacute" unicode="&#x17a;" horiz-adv-x="444" 
d="M40 0h365v53h-292l285 393v56h-350v-52h279l-287 -392v-58zM280 761l-95 -141h47l129 141h-81z" />
    <glyph glyph-name="Lslash" unicode="&#xa3;" 
d="M528 0v60h-363v365l94 37v40l-94 -37v257h-65v-283l-94 -37v-40l94 37v-399h428z" />
    <glyph glyph-name="Lslash" unicode="&#x141;" 
d="M528 0v60h-363v365l94 37v40l-94 -37v257h-65v-283l-94 -37v-40l94 37v-399h428z" />
    <glyph glyph-name="Aogonek" unicode="&#xa5;" horiz-adv-x="667" 
d="M169 252l159 412l156 -412h-315zM5 0h67l76 198h359l78 -198h14q-18 -7 -38.5 -17t-38.5 -24t-29.5 -32t-11.5 -39q0 -12 5 -23.5t16.5 -21.5t29 -16t43.5 -6q37 0 60.5 7t33.5 11v29q-25 -10 -44.5 -11.5t-23.5 -1.5q-22 0 -42.5 10.5t-20.5 38.5q0 16 7 28.5t19.5 23.5
t31 21.5t42.5 22.5h17l-288 725h-77z" />
    <glyph glyph-name="Aogonek" unicode="&#x104;" horiz-adv-x="667" 
d="M169 252l159 412l156 -412h-315zM5 0h67l76 198h359l78 -198h14q-18 -7 -38.5 -17t-38.5 -24t-29.5 -32t-11.5 -39q0 -12 5 -23.5t16.5 -21.5t29 -16t43.5 -6q37 0 60.5 7t33.5 11v29q-25 -10 -44.5 -11.5t-23.5 -1.5q-22 0 -42.5 10.5t-20.5 38.5q0 16 7 28.5t19.5 23.5
t31 21.5t42.5 22.5h17l-288 725h-77z" />
    <glyph glyph-name="brokenbar" unicode="&#xa6;" horiz-adv-x="222" 
d="M81 -89h60v250h-60v-250zM81 411h60v250h-60v-250z" />
    <glyph glyph-name="Scommaaccent" horiz-adv-x="611" 
d="M56 188q2 -23 10 -57.5t40 -69.5q35 -40 85 -55t103 -15q58 0 105 14.5t81 40.5t52.5 63t18.5 81q0 34 -12.5 66t-36.5 55q-13 12 -27 21.5t-32.5 18t-44 17.5t-61.5 21q-50 17 -87.5 32t-62.5 32t-37 38.5t-12 51.5q0 57 44.5 96t133.5 39q54 0 83 -14t43 -27
q18 -18 22.5 -37t6.5 -35h67q-1 48 -22.5 80t-54.5 51.5t-72.5 28t-76.5 8.5q-50 0 -94 -12.5t-76 -37t-50.5 -60.5t-18.5 -84q0 -40 12.5 -69t38.5 -52t67.5 -42.5t99.5 -39.5q52 -18 89 -32t60.5 -30t34 -36.5t10.5 -51.5q0 -37 -16.5 -63.5t-42.5 -43.5t-60 -25t-68 -8
q-9 0 -24 1t-32.5 4.5t-36 10.5t-34.5 19q-17 13 -26.5 28.5t-14 30.5t-5.5 28t-1 20h-68zM283 -40v-97h24q0 -25 -7 -50.5t-35 -35.5v-27q20 6 33.5 18.5t22 28t12 33t3.5 33.5v97h-53z" />
    <glyph glyph-name="Zdotaccent" unicode="&#xaf;" 
d="M12 0h518v58h-447l436 602v62h-479v-58h401l-429 -597v-67zM255 789h73v77h-73v-77z" />
    <glyph glyph-name="Zdotaccent" unicode="&#x17b;" 
d="M12 0h518v58h-447l436 602v62h-479v-58h401l-429 -597v-67zM255 789h73v77h-73v-77z" />
    <glyph glyph-name="lslash" unicode="&#xb3;" horiz-adv-x="222" 
d="M81 722v-274l-76 -31v-34l76 30v-413h60v437l76 31v34l-76 -30v250h-60z" />
    <glyph glyph-name="lslash" unicode="&#x142;" horiz-adv-x="222" 
d="M81 722v-274l-76 -31v-34l76 30v-413h60v437l76 31v34l-76 -30v250h-60z" />
    <glyph glyph-name="aogonek" unicode="&#xb9;" horiz-adv-x="500" 
d="M364 258q-1 -45 -3 -78t-13 -57q-17 -38 -52 -61t-86 -23q-30 0 -51.5 9.5t-35 24t-19.5 32.5t-6 35q0 30 12 50t28.5 31.5t33 17t24.5 7.5q34 9 80.5 10.5t87.5 1.5zM122 375q2 11 6 26.5t18 30.5t36.5 23.5t59.5 8.5q46 0 71.5 -13t37 -35t13 -51t0.5 -62
q-14 2 -27 2.5t-31 0.5q-19 0 -46 -1.5t-57 -6.5t-60 -15.5t-53.5 -29.5t-38.5 -47.5t-15 -68.5q0 -36 14 -64t37.5 -46.5t53 -28t59.5 -9.5q42 0 72.5 12t50.5 28.5t31.5 33t16.5 24.5l3 -87h11q-18 -7 -38.5 -17t-38.5 -24t-29.5 -32t-11.5 -39q0 -12 5 -23.5t16.5 -21.5
t29 -16t43.5 -6q37 0 60.5 7t33.5 11v29q-25 -10 -44.5 -11.5t-23.5 -1.5q-22 0 -42.5 10.5t-20.5 38.5q0 16 7 28.5t19.5 23.5t31 21.5t42.5 22.5h10q-2 26 -6 68.5t-4 96.5q0 9 0.5 34t0.5 53t0.5 53t0.5 35q0 28 -3.5 60.5t-26.5 58.5q-27 29 -68.5 41.5t-86.5 12.5
q-60 0 -95.5 -17.5t-54.5 -40.5t-25 -46t-8 -34h64z" />
    <glyph glyph-name="aogonek" unicode="&#x105;" horiz-adv-x="500" 
d="M364 258q-1 -45 -3 -78t-13 -57q-17 -38 -52 -61t-86 -23q-30 0 -51.5 9.5t-35 24t-19.5 32.5t-6 35q0 30 12 50t28.5 31.5t33 17t24.5 7.5q34 9 80.5 10.5t87.5 1.5zM122 375q2 11 6 26.5t18 30.5t36.5 23.5t59.5 8.5q46 0 71.5 -13t37 -35t13 -51t0.5 -62
q-14 2 -27 2.5t-31 0.5q-19 0 -46 -1.5t-57 -6.5t-60 -15.5t-53.5 -29.5t-38.5 -47.5t-15 -68.5q0 -36 14 -64t37.5 -46.5t53 -28t59.5 -9.5q42 0 72.5 12t50.5 28.5t31.5 33t16.5 24.5l3 -87h11q-18 -7 -38.5 -17t-38.5 -24t-29.5 -32t-11.5 -39q0 -12 5 -23.5t16.5 -21.5
t29 -16t43.5 -6q37 0 60.5 7t33.5 11v29q-25 -10 -44.5 -11.5t-23.5 -1.5q-22 0 -42.5 10.5t-20.5 38.5q0 16 7 28.5t19.5 23.5t31 21.5t42.5 22.5h10q-2 26 -6 68.5t-4 96.5q0 9 0.5 34t0.5 53t0.5 53t0.5 35q0 28 -3.5 60.5t-26.5 58.5q-27 29 -68.5 41.5t-86.5 12.5
q-60 0 -95.5 -17.5t-54.5 -40.5t-25 -46t-8 -34h64z" />
    <glyph glyph-name="scommaaccent" horiz-adv-x="500" 
d="M44 137q2 -49 25 -78t54.5 -44.5t64.5 -20t55 -4.5q49 0 87 12t63.5 33.5t39 50t13.5 61.5q0 37 -13 60.5t-31.5 37.5t-40.5 21.5t-40 12.5l-103 27q-46 12 -69.5 27.5t-23.5 50.5q0 38 29 61t88 23q18 0 39 -3t39 -12.5t30.5 -27.5t14.5 -47h67q-4 46 -23.5 73.5
t-46.5 41.5t-57.5 18.5t-57.5 4.5q-53 0 -88.5 -12.5t-57 -33t-30.5 -45.5t-9 -49q0 -32 11 -53t28.5 -34.5t38 -21t39.5 -12.5l103 -27q19 -5 36.5 -10.5t31.5 -15.5t22.5 -25.5t8.5 -39.5q0 -34 -17 -54t-39.5 -30t-45 -12.5t-34.5 -2.5q-39 0 -67 11t-42 26
q-16 17 -19.5 33t-5.5 29h-67zM227 -40v-97h24q0 -25 -7 -50.5t-35 -35.5v-27q20 6 33.5 18.5t22 28t12 33t3.5 33.5v97h-53z" />
    <glyph glyph-name="Lcaron" unicode="&#xbc;" 
d="M100 0h428v58h-364v667h-64v-725zM235 725v-97h24q0 -25 -7 -50.5t-35 -35.5v-27q20 6 33.5 18.5t22 28t12 33t3.5 33.5v97h-53z" />
    <glyph glyph-name="Lcaron" unicode="&#x13d;" 
d="M100 0h428v58h-364v667h-64v-725zM235 725v-97h24q0 -25 -7 -50.5t-35 -35.5v-27q20 6 33.5 18.5t22 28t12 33t3.5 33.5v97h-53z" />
    <glyph glyph-name="lcaron" unicode="&#xbe;" horiz-adv-x="258" 
d="M79 0h61v722h-61v-722zM211 725v-97h24q0 -25 -7 -50.5t-35 -35.5v-27q20 6 33.5 18.5t22 28t12 33t3.5 33.5v97h-53z" />
    <glyph glyph-name="lcaron" unicode="&#x13e;" horiz-adv-x="258" 
d="M79 0h61v722h-61v-722zM211 725v-97h24q0 -25 -7 -50.5t-35 -35.5v-27q20 6 33.5 18.5t22 28t12 33t3.5 33.5v97h-53z" />
    <glyph glyph-name="zdotaccent" unicode="&#xbf;" horiz-adv-x="444" 
d="M40 0h365v53h-292l285 393v56h-350v-52h279l-287 -392v-58zM187 647h73v77h-73v-77z" />
    <glyph glyph-name="zdotaccent" unicode="&#x17c;" horiz-adv-x="444" 
d="M40 0h365v53h-292l285 393v56h-350v-52h279l-287 -392v-58zM187 647h73v77h-73v-77z" />
    <glyph glyph-name="Racute" unicode="&#xc0;" horiz-adv-x="667" 
d="M103 0h65v344h210q36 0 58.5 -9.5t35.5 -31.5t19.5 -59t11.5 -91q3 -36 5 -59.5t4.5 -40t6 -28.5t9.5 -25h75q-8 9 -12.5 20.5t-7.5 29.5t-6 44t-6 63q-5 50 -10.5 88t-18.5 65t-36 43t-62 24q13 4 36.5 13t46.5 28t39.5 49.5t16.5 77.5t-15.5 75t-32.5 44
q-21 21 -46 32.5t-52.5 16.5t-57.5 6t-62 1h-214v-720zM168 661h172q19 0 48.5 -2t57.5 -13.5t48 -36t20 -70.5q0 -38 -19 -71t-61 -51q-13 -6 -30 -9t-34.5 -4.5t-34.5 -1.5h-28h-139v259zM364 904l-95 -141h47l129 141h-81z" />
    <glyph glyph-name="Racute" unicode="&#x154;" horiz-adv-x="667" 
d="M103 0h65v344h210q36 0 58.5 -9.5t35.5 -31.5t19.5 -59t11.5 -91q3 -36 5 -59.5t4.5 -40t6 -28.5t9.5 -25h75q-8 9 -12.5 20.5t-7.5 29.5t-6 44t-6 63q-5 50 -10.5 88t-18.5 65t-36 43t-62 24q13 4 36.5 13t46.5 28t39.5 49.5t16.5 77.5t-15.5 75t-32.5 44
q-21 21 -46 32.5t-52.5 16.5t-57.5 6t-62 1h-214v-720zM168 661h172q19 0 48.5 -2t57.5 -13.5t48 -36t20 -70.5q0 -38 -19 -71t-61 -51q-13 -6 -30 -9t-34.5 -4.5t-34.5 -1.5h-28h-139v259zM364 904l-95 -141h47l129 141h-81z" />
    <glyph glyph-name="Abreve" unicode="&#xc3;" horiz-adv-x="667" 
d="M5 0h67l76 198h359l78 -198h70l-288 725h-77zM169 252l159 412l156 -412h-315zM206 869q0 -7 1.5 -24t18.5 -37q20 -24 45.5 -30.5t56.5 -6.5q36 0 59 7.5t36.5 20.5t19.5 31t8 39h-19q-6 -19 -18.5 -29.5t-27 -16t-30 -6.5t-28.5 -1q-9 0 -24 1t-31 6t-29 15.5t-19 30.5
h-19z" />
    <glyph glyph-name="Abreve" unicode="&#x102;" horiz-adv-x="667" 
d="M5 0h67l76 198h359l78 -198h70l-288 725h-77zM169 252l159 412l156 -412h-315zM206 869q0 -7 1.5 -24t18.5 -37q20 -24 45.5 -30.5t56.5 -6.5q36 0 59 7.5t36.5 20.5t19.5 31t8 39h-19q-6 -19 -18.5 -29.5t-27 -16t-30 -6.5t-28.5 -1q-9 0 -24 1t-31 6t-29 15.5t-19 30.5
h-19z" />
    <glyph glyph-name="Lacute" unicode="&#xc5;" 
d="M100 0h428v58h-364v667h-64v-725zM206 904l-95 -141h47l129 141h-81z" />
    <glyph glyph-name="Lacute" unicode="&#x139;" 
d="M100 0h428v58h-364v667h-64v-725zM206 904l-95 -141h47l129 141h-81z" />
    <glyph glyph-name="Cacute" unicode="&#xc6;" horiz-adv-x="667" 
d="M612 553q0 21 -10 52t-36 59.5t-72.5 49t-118.5 20.5q-75 0 -133.5 -25.5t-98.5 -73.5t-61 -117.5t-21 -156.5q0 -75 17.5 -142.5t54 -118.5t94 -80.5t137.5 -29.5q53 0 97 13.5t77 38.5t54 58.5t28 74.5h-71q-3 -20 -15 -42.5t-33 -41.5t-52.5 -31t-74.5 -12
q-30 0 -67 8t-69 33q-33 26 -53.5 61.5t-32 73.5t-16 75t-4.5 67q0 29 4 63.5t14 69t27.5 66.5t44 57t63.5 40t87 15q31 0 60 -7.5t52.5 -22.5t39 -38.5t18.5 -55.5h70zM410 904l-95 -141h47l129 141h-81z" />
    <glyph glyph-name="Cacute" unicode="&#x106;" horiz-adv-x="667" 
d="M612 553q0 21 -10 52t-36 59.5t-72.5 49t-118.5 20.5q-75 0 -133.5 -25.5t-98.5 -73.5t-61 -117.5t-21 -156.5q0 -75 17.5 -142.5t54 -118.5t94 -80.5t137.5 -29.5q53 0 97 13.5t77 38.5t54 58.5t28 74.5h-71q-3 -20 -15 -42.5t-33 -41.5t-52.5 -31t-74.5 -12
q-30 0 -67 8t-69 33q-33 26 -53.5 61.5t-32 73.5t-16 75t-4.5 67q0 29 4 63.5t14 69t27.5 66.5t44 57t63.5 40t87 15q31 0 60 -7.5t52.5 -22.5t39 -38.5t18.5 -55.5h70zM410 904l-95 -141h47l129 141h-81z" />
    <glyph glyph-name="Ccaron" unicode="&#xc8;" horiz-adv-x="667" 
d="M612 553q0 21 -10 52t-36 59.5t-72.5 49t-118.5 20.5q-75 0 -133.5 -25.5t-98.5 -73.5t-61 -117.5t-21 -156.5q0 -75 17.5 -142.5t54 -118.5t94 -80.5t137.5 -29.5q53 0 97 13.5t77 38.5t54 58.5t28 74.5h-71q-3 -20 -15 -42.5t-33 -41.5t-52.5 -31t-74.5 -12
q-30 0 -67 8t-69 33q-33 26 -53.5 61.5t-32 73.5t-16 75t-4.5 67q0 29 4 63.5t14 69t27.5 66.5t44 57t63.5 40t87 15q31 0 60 -7.5t52.5 -22.5t39 -38.5t18.5 -55.5h70zM230 905l99 -143h80l96 143h-47l-89 -105l-92 105h-47z" />
    <glyph glyph-name="Ccaron" unicode="&#x10c;" horiz-adv-x="667" 
d="M612 553q0 21 -10 52t-36 59.5t-72.5 49t-118.5 20.5q-75 0 -133.5 -25.5t-98.5 -73.5t-61 -117.5t-21 -156.5q0 -75 17.5 -142.5t54 -118.5t94 -80.5t137.5 -29.5q53 0 97 13.5t77 38.5t54 58.5t28 74.5h-71q-3 -20 -15 -42.5t-33 -41.5t-52.5 -31t-74.5 -12
q-30 0 -67 8t-69 33q-33 26 -53.5 61.5t-32 73.5t-16 75t-4.5 67q0 29 4 63.5t14 69t27.5 66.5t44 57t63.5 40t87 15q31 0 60 -7.5t52.5 -22.5t39 -38.5t18.5 -55.5h70zM230 905l99 -143h80l96 143h-47l-89 -105l-92 105h-47z" />
    <glyph glyph-name="Eogonek" unicode="&#xca;" horiz-adv-x="611" 
d="M102 0h405q-18 -7 -38.5 -17t-38.5 -24t-29.5 -32t-11.5 -39q0 -12 5 -23.5t16.5 -21.5t29 -16t43.5 -6q37 0 60.5 7t33.5 11v29q-25 -10 -44.5 -11.5t-23.5 -1.5q-22 0 -42.5 10.5t-20.5 38.5q0 16 7 28.5t19.5 23.5t31 21.5t42.5 22.5v58h-379v287h350v55h-350v263h364
v57h-429v-720z" />
    <glyph glyph-name="Eogonek" unicode="&#x118;" horiz-adv-x="611" 
d="M102 0h405q-18 -7 -38.5 -17t-38.5 -24t-29.5 -32t-11.5 -39q0 -12 5 -23.5t16.5 -21.5t29 -16t43.5 -6q37 0 60.5 7t33.5 11v29q-25 -10 -44.5 -11.5t-23.5 -1.5q-22 0 -42.5 10.5t-20.5 38.5q0 16 7 28.5t19.5 23.5t31 21.5t42.5 22.5v58h-379v287h350v55h-350v263h364
v57h-429v-720z" />
    <glyph glyph-name="Ecaron" unicode="&#xcc;" horiz-adv-x="611" 
d="M102 0h444v58h-379v287h350v55h-350v263h364v57h-429v-720zM169 904l98 -144h80l96 144h-46l-89 -106l-93 106h-46z" />
    <glyph glyph-name="Ecaron" unicode="&#x11a;" horiz-adv-x="611" 
d="M102 0h444v58h-379v287h350v55h-350v263h364v57h-429v-720zM169 904l98 -144h80l96 144h-46l-89 -106l-93 106h-46z" />
    <glyph glyph-name="Dcaron" unicode="&#xcf;" horiz-adv-x="722" 
d="M91 0h151q45 0 85 1t76 7t69.5 19.5t64.5 37.5q34 26 57 61t37.5 74.5t21 81.5t6.5 84t-7 84t-22 80t-39 71.5t-58 58.5q-30 22 -61 34t-62.5 17.5t-62.5 6.5t-61 1h-195v-719zM156 662h127q31 0 64 -1.5t64.5 -10.5t61 -27.5t53.5 -52.5q36 -50 49 -104.5t13 -109.5
q0 -73 -25 -141t-83 -111q-24 -18 -51.5 -27t-57 -13.5t-60 -5t-60.5 -0.5h-95v604zM205 904l98 -144h80l96 144h-46l-89 -106l-93 106h-46z" />
    <glyph glyph-name="Dcaron" unicode="&#x10e;" horiz-adv-x="722" 
d="M91 0h151q45 0 85 1t76 7t69.5 19.5t64.5 37.5q34 26 57 61t37.5 74.5t21 81.5t6.5 84t-7 84t-22 80t-39 71.5t-58 58.5q-30 22 -61 34t-62.5 17.5t-62.5 6.5t-61 1h-195v-719zM156 662h127q31 0 64 -1.5t64.5 -10.5t61 -27.5t53.5 -52.5q36 -50 49 -104.5t13 -109.5
q0 -73 -25 -141t-83 -111q-24 -18 -51.5 -27t-57 -13.5t-60 -5t-60.5 -0.5h-95v604zM205 904l98 -144h80l96 144h-46l-89 -106l-93 106h-46z" />
    <glyph glyph-name="Dcroat" unicode="&#xd0;" horiz-adv-x="722" 
d="M91 426h-69v-50h69v-376h151q45 0 85 1t76 7t69.5 19.5t64.5 37.5q34 26 57 61t37.5 74.5t21 81.5t6.5 84t-7 84t-22 80t-39 71.5t-58 58.5q-30 22 -61 34t-62.5 17.5t-62.5 6.5t-61 1h-195v-293zM156 662h127q31 0 64 -1.5t64.5 -10.5t61 -27.5t53.5 -52.5
q36 -50 49 -104.5t13 -109.5q0 -73 -25 -141t-83 -111q-24 -18 -51.5 -27t-57 -13.5t-60 -5t-60.5 -0.5h-95v318h212v50h-212v236z" />
    <glyph glyph-name="Dcroat" unicode="&#x110;" horiz-adv-x="722" 
d="M91 426h-69v-50h69v-376h151q45 0 85 1t76 7t69.5 19.5t64.5 37.5q34 26 57 61t37.5 74.5t21 81.5t6.5 84t-7 84t-22 80t-39 71.5t-58 58.5q-30 22 -61 34t-62.5 17.5t-62.5 6.5t-61 1h-195v-293zM156 662h127q31 0 64 -1.5t64.5 -10.5t61 -27.5t53.5 -52.5
q36 -50 49 -104.5t13 -109.5q0 -73 -25 -141t-83 -111q-24 -18 -51.5 -27t-57 -13.5t-60 -5t-60.5 -0.5h-95v318h212v50h-212v236z" />
    <glyph glyph-name="Nacute" unicode="&#xd1;" horiz-adv-x="722" 
d="M91 0h63v624l392 -624h79v725h-62v-638l-400 638h-72v-725zM393 904l-95 -141h48l128 141h-81z" />
    <glyph glyph-name="Nacute" unicode="&#x143;" horiz-adv-x="722" 
d="M91 0h63v624l392 -624h79v725h-62v-638l-400 638h-72v-725zM393 904l-95 -141h48l128 141h-81z" />
    <glyph glyph-name="Ncaron" unicode="&#xd2;" horiz-adv-x="722" 
d="M91 0h63v624l392 -624h79v725h-62v-638l-400 638h-72v-725zM218 904l98 -144h80l96 144h-46l-89 -106l-93 106h-46z" />
    <glyph glyph-name="Ncaron" unicode="&#x147;" horiz-adv-x="722" 
d="M91 0h63v624l392 -624h79v725h-62v-638l-400 638h-72v-725zM218 904l98 -144h80l96 144h-46l-89 -106l-93 106h-46z" />
    <glyph glyph-name="Ohungarumlaut" unicode="&#xd5;" horiz-adv-x="778" 
d="M64 368q0 -75 17.5 -144t56 -121t99 -83t146.5 -31q100 0 163 37.5t99 94t49 121.5t13 121q0 38 -4.5 76t-15 74t-28 69t-42.5 62t-56.5 47t-63 28t-61.5 13.5t-52 3.5q-91 0 -152 -33t-98.5 -85.5t-53.5 -118.5t-16 -131zM135 366q0 63 15 119.5t45.5 99.5t78 68
t112.5 25q74 0 122 -31t76 -78t39 -102t11 -104q0 -61 -13.5 -118t-43.5 -101t-77 -70.5t-114 -26.5q-68 0 -116 27.5t-78 72.5t-43.5 102t-13.5 117zM517 904l-95 -141h47l129 141h-81zM369 904l-95 -141h47l129 141h-81z" />
    <glyph glyph-name="Ohungarumlaut" unicode="&#x150;" horiz-adv-x="778" 
d="M64 368q0 -75 17.5 -144t56 -121t99 -83t146.5 -31q100 0 163 37.5t99 94t49 121.5t13 121q0 38 -4.5 76t-15 74t-28 69t-42.5 62t-56.5 47t-63 28t-61.5 13.5t-52 3.5q-91 0 -152 -33t-98.5 -85.5t-53.5 -118.5t-16 -131zM135 366q0 63 15 119.5t45.5 99.5t78 68
t112.5 25q74 0 122 -31t76 -78t39 -102t11 -104q0 -61 -13.5 -118t-43.5 -101t-77 -70.5t-114 -26.5q-68 0 -116 27.5t-78 72.5t-43.5 102t-13.5 117zM517 904l-95 -141h47l129 141h-81zM369 904l-95 -141h47l129 141h-81z" />
    <glyph glyph-name="multiply" unicode="&#xd7;" horiz-adv-x="660" 
d="M331 216l212 -210l37 36l-212 211l212 211l-37 38l-212 -212l-214 212l-37 -38l214 -211l-214 -211l37 -36z" />
    <glyph glyph-name="Rcaron" unicode="&#xd8;" horiz-adv-x="667" 
d="M103 0h65v344h210q36 0 58.5 -9.5t35.5 -31.5t19.5 -59t11.5 -91q3 -36 5 -59.5t4.5 -40t6 -28.5t9.5 -25h75q-8 9 -12.5 20.5t-7.5 29.5t-6 44t-6 63q-5 50 -10.5 88t-18.5 65t-36 43t-62 24q13 4 36.5 13t46.5 28t39.5 49.5t16.5 77.5t-15.5 75t-32.5 44
q-21 21 -46 32.5t-52.5 16.5t-57.5 6t-62 1h-214v-720zM168 661h172q19 0 48.5 -2t57.5 -13.5t48 -36t20 -70.5q0 -38 -19 -71t-61 -51q-13 -6 -30 -9t-34.5 -4.5t-34.5 -1.5h-28h-139v259zM197 904l98 -144h80l96 144h-46l-89 -106l-93 106h-46z" />
    <glyph glyph-name="Rcaron" unicode="&#x158;" horiz-adv-x="667" 
d="M103 0h65v344h210q36 0 58.5 -9.5t35.5 -31.5t19.5 -59t11.5 -91q3 -36 5 -59.5t4.5 -40t6 -28.5t9.5 -25h75q-8 9 -12.5 20.5t-7.5 29.5t-6 44t-6 63q-5 50 -10.5 88t-18.5 65t-36 43t-62 24q13 4 36.5 13t46.5 28t39.5 49.5t16.5 77.5t-15.5 75t-32.5 44
q-21 21 -46 32.5t-52.5 16.5t-57.5 6t-62 1h-214v-720zM168 661h172q19 0 48.5 -2t57.5 -13.5t48 -36t20 -70.5q0 -38 -19 -71t-61 -51q-13 -6 -30 -9t-34.5 -4.5t-34.5 -1.5h-28h-139v259zM197 904l98 -144h80l96 144h-46l-89 -106l-93 106h-46z" />
    <glyph glyph-name="Uring" unicode="&#xd9;" horiz-adv-x="722" 
d="M94 725v-446q0 -26 1 -50.5t5.5 -48.5t14.5 -47t27 -46q12 -15 29 -32.5t42 -32t59.5 -24t81.5 -9.5q63 0 118.5 21.5t93.5 70.5q20 26 31 52.5t16 51t6 45.5t1 36v459h-62v-450q0 -37 -3.5 -72t-19.5 -63q-6 -10 -18.5 -26t-34 -31.5t-52.5 -26.5t-74 -11q-11 0 -31 1.5
t-43 9.5t-47.5 25t-44.5 47q-25 38 -29 78.5t-4 71.5v447h-63zM274 831q0 -37 26 -62.5t62 -25.5q37 0 62.5 25.5t25.5 62.5q0 36 -25.5 62t-62.5 26q-36 0 -62 -25.5t-26 -62.5zM304 831q0 25 17.5 41.5t40.5 16.5q24 0 41 -17t17 -41t-17 -41t-41 -17q-23 0 -40.5 16.5
t-17.5 41.5z" />
    <glyph glyph-name="Uring" unicode="&#x16e;" horiz-adv-x="722" 
d="M94 725v-446q0 -26 1 -50.5t5.5 -48.5t14.5 -47t27 -46q12 -15 29 -32.5t42 -32t59.5 -24t81.5 -9.5q63 0 118.5 21.5t93.5 70.5q20 26 31 52.5t16 51t6 45.5t1 36v459h-62v-450q0 -37 -3.5 -72t-19.5 -63q-6 -10 -18.5 -26t-34 -31.5t-52.5 -26.5t-74 -11q-11 0 -31 1.5
t-43 9.5t-47.5 25t-44.5 47q-25 38 -29 78.5t-4 71.5v447h-63zM274 831q0 -37 26 -62.5t62 -25.5q37 0 62.5 25.5t25.5 62.5q0 36 -25.5 62t-62.5 26q-36 0 -62 -25.5t-26 -62.5zM304 831q0 25 17.5 41.5t40.5 16.5q24 0 41 -17t17 -41t-17 -41t-41 -17q-23 0 -40.5 16.5
t-17.5 41.5z" />
    <glyph glyph-name="Uhungarumlaut" unicode="&#xdb;" horiz-adv-x="722" 
d="M94 725v-446q0 -26 1 -50.5t5.5 -48.5t14.5 -47t27 -46q12 -15 29 -32.5t42 -32t59.5 -24t81.5 -9.5q63 0 118.5 21.5t93.5 70.5q20 26 31 52.5t16 51t6 45.5t1 36v459h-62v-450q0 -37 -3.5 -72t-19.5 -63q-6 -10 -18.5 -26t-34 -31.5t-52.5 -26.5t-74 -11q-11 0 -31 1.5
t-43 9.5t-47.5 25t-44.5 47q-25 38 -29 78.5t-4 71.5v447h-63zM471 904l-95 -141h47l129 141h-81zM323 904l-95 -141h47l129 141h-81z" />
    <glyph glyph-name="Uhungarumlaut" unicode="&#x170;" horiz-adv-x="722" 
d="M94 725v-446q0 -26 1 -50.5t5.5 -48.5t14.5 -47t27 -46q12 -15 29 -32.5t42 -32t59.5 -24t81.5 -9.5q63 0 118.5 21.5t93.5 70.5q20 26 31 52.5t16 51t6 45.5t1 36v459h-62v-450q0 -37 -3.5 -72t-19.5 -63q-6 -10 -18.5 -26t-34 -31.5t-52.5 -26.5t-74 -11q-11 0 -31 1.5
t-43 9.5t-47.5 25t-44.5 47q-25 38 -29 78.5t-4 71.5v447h-63zM471 904l-95 -141h47l129 141h-81zM323 904l-95 -141h47l129 141h-81z" />
    <glyph glyph-name="Yacute" unicode="&#xdd;" horiz-adv-x="611" 
d="M3 725l266 -412v-313h66v310l263 415h-70l-221 -352l-221 352h-83zM341 904l-95 -141h48l128 141h-81z" />
    <glyph glyph-name="Tcommaaccent" unicode="&#xde;" 
d="M243 0h65v662h229v58h-528v-58h234v-662zM249 -40v-97h24q0 -25 -7 -50.5t-35 -35.5v-27q20 6 33.5 18.5t22 28t12 33t3.5 33.5v97h-53z" />
    <glyph glyph-name="Tcommaaccent" unicode="&#x162;" 
d="M243 0h65v662h229v58h-528v-58h234v-662zM249 -40v-97h24q0 -25 -7 -50.5t-35 -35.5v-27q20 6 33.5 18.5t22 28t12 33t3.5 33.5v97h-53z" />
    <glyph glyph-name="racute" unicode="&#xe0;" horiz-adv-x="333" 
d="M87 0h62v286q0 16 2 43t15.5 53t41.5 45.5t81 19.5q12 0 19 -0.5t15 -2.5v62q-8 1 -17 1h-19q-9 0 -26.5 -1.5t-37.5 -9t-40.5 -24t-36.5 -46.5q-1 19 -1.5 31t-1 20t-1 14t-0.5 14h-61q3 -32 4 -68t1 -68zM238 761l-95 -141h47l129 141h-81z" />
    <glyph glyph-name="racute" unicode="&#x155;" horiz-adv-x="333" 
d="M87 0h62v286q0 16 2 43t15.5 53t41.5 45.5t81 19.5q12 0 19 -0.5t15 -2.5v62q-8 1 -17 1h-19q-9 0 -26.5 -1.5t-37.5 -9t-40.5 -24t-36.5 -46.5q-1 19 -1.5 31t-1 20t-1 14t-0.5 14h-61q3 -32 4 -68t1 -68zM238 761l-95 -141h47l129 141h-81z" />
    <glyph glyph-name="abreve" unicode="&#xe3;" horiz-adv-x="500" 
d="M122 375q2 11 6 26.5t18 30.5t36.5 23.5t59.5 8.5q46 0 71.5 -13t37 -35t13 -51t0.5 -62q-14 2 -27 2.5t-31 0.5q-19 0 -46 -1.5t-57 -6.5t-60 -15.5t-53.5 -29.5t-38.5 -47.5t-15 -68.5q0 -36 14 -64t37.5 -46.5t53 -28t59.5 -9.5q42 0 72.5 12t50.5 28.5t31.5 33
t16.5 24.5l3 -87h60q-2 26 -6 68.5t-4 96.5q0 9 0.5 34t0.5 53t0.5 53t0.5 35q0 28 -3.5 60.5t-26.5 58.5q-27 29 -68.5 41.5t-86.5 12.5q-60 0 -95.5 -17.5t-54.5 -40.5t-25 -46t-8 -34h64zM364 258q-1 -45 -3 -78t-13 -57q-17 -38 -52 -61t-86 -23q-30 0 -51.5 9.5t-35 24
t-19.5 32.5t-6 35q0 30 12 50t28.5 31.5t33 17t24.5 7.5q34 9 80.5 10.5t87.5 1.5zM128 738q0 -7 1.5 -24t18.5 -37q20 -24 45.5 -30.5t56.5 -6.5q36 0 59 7.5t36.5 20.5t19.5 31t8 39h-19q-6 -19 -18.5 -29.5t-27 -16t-30 -6.5t-28.5 -1q-9 0 -24 1t-31 6t-29 15.5
t-19 30.5h-19z" />
    <glyph glyph-name="abreve" unicode="&#x103;" horiz-adv-x="500" 
d="M122 375q2 11 6 26.5t18 30.5t36.5 23.5t59.5 8.5q46 0 71.5 -13t37 -35t13 -51t0.5 -62q-14 2 -27 2.5t-31 0.5q-19 0 -46 -1.5t-57 -6.5t-60 -15.5t-53.5 -29.5t-38.5 -47.5t-15 -68.5q0 -36 14 -64t37.5 -46.5t53 -28t59.5 -9.5q42 0 72.5 12t50.5 28.5t31.5 33
t16.5 24.5l3 -87h60q-2 26 -6 68.5t-4 96.5q0 9 0.5 34t0.5 53t0.5 53t0.5 35q0 28 -3.5 60.5t-26.5 58.5q-27 29 -68.5 41.5t-86.5 12.5q-60 0 -95.5 -17.5t-54.5 -40.5t-25 -46t-8 -34h64zM364 258q-1 -45 -3 -78t-13 -57q-17 -38 -52 -61t-86 -23q-30 0 -51.5 9.5t-35 24
t-19.5 32.5t-6 35q0 30 12 50t28.5 31.5t33 17t24.5 7.5q34 9 80.5 10.5t87.5 1.5zM128 738q0 -7 1.5 -24t18.5 -37q20 -24 45.5 -30.5t56.5 -6.5q36 0 59 7.5t36.5 20.5t19.5 31t8 39h-19q-6 -19 -18.5 -29.5t-27 -16t-30 -6.5t-28.5 -1q-9 0 -24 1t-31 6t-29 15.5
t-19 30.5h-19z" />
    <glyph glyph-name="lacute" unicode="&#xe5;" horiz-adv-x="222" 
d="M79 0h61v722h-61v-722zM174 904l-95 -141h47l129 141h-81z" />
    <glyph glyph-name="lacute" unicode="&#x13a;" horiz-adv-x="222" 
d="M79 0h61v722h-61v-722zM174 904l-95 -141h47l129 141h-81z" />
    <glyph glyph-name="cacute" unicode="&#xe6;" horiz-adv-x="500" 
d="M462 348q-2 20 -8 48.5t-33 60.5q-16 19 -36 31t-41 19t-40 9.5t-34 2.5q-40 0 -80 -14.5t-72 -47t-52 -84t-20 -126.5q0 -73 20.5 -122.5t53 -79.5t71.5 -42.5t76 -12.5q47 0 82 12.5t59 35t37 53t17 66.5h-67q-1 -21 -9 -41t-23.5 -36.5t-39 -26.5t-55.5 -10
q-26 0 -56 9.5t-56 40.5q-15 18 -24 40t-13.5 43.5t-6 41t-1.5 32.5q0 30 5.5 67.5t22 70t48 55t83.5 22.5q60 0 89 -32t34 -85h69zM303 756l-95 -141h48l128 141h-81z" />
    <glyph glyph-name="cacute" unicode="&#x107;" horiz-adv-x="500" 
d="M462 348q-2 20 -8 48.5t-33 60.5q-16 19 -36 31t-41 19t-40 9.5t-34 2.5q-40 0 -80 -14.5t-72 -47t-52 -84t-20 -126.5q0 -73 20.5 -122.5t53 -79.5t71.5 -42.5t76 -12.5q47 0 82 12.5t59 35t37 53t17 66.5h-67q-1 -21 -9 -41t-23.5 -36.5t-39 -26.5t-55.5 -10
q-26 0 -56 9.5t-56 40.5q-15 18 -24 40t-13.5 43.5t-6 41t-1.5 32.5q0 30 5.5 67.5t22 70t48 55t83.5 22.5q60 0 89 -32t34 -85h69zM303 756l-95 -141h48l128 141h-81z" />
    <glyph glyph-name="ccaron" unicode="&#xe8;" horiz-adv-x="500" 
d="M462 348q-2 20 -8 48.5t-33 60.5q-16 19 -36 31t-41 19t-40 9.5t-34 2.5q-40 0 -80 -14.5t-72 -47t-52 -84t-20 -126.5q0 -73 20.5 -122.5t53 -79.5t71.5 -42.5t76 -12.5q47 0 82 12.5t59 35t37 53t17 66.5h-67q-1 -21 -9 -41t-23.5 -36.5t-39 -26.5t-55.5 -10
q-26 0 -56 9.5t-56 40.5q-15 18 -24 40t-13.5 43.5t-6 41t-1.5 32.5q0 30 5.5 67.5t22 70t48 55t83.5 22.5q60 0 89 -32t34 -85h69zM124 758l98 -144h80l96 144h-46l-89 -106l-93 106h-46z" />
    <glyph glyph-name="ccaron" unicode="&#x10d;" horiz-adv-x="500" 
d="M462 348q-2 20 -8 48.5t-33 60.5q-16 19 -36 31t-41 19t-40 9.5t-34 2.5q-40 0 -80 -14.5t-72 -47t-52 -84t-20 -126.5q0 -73 20.5 -122.5t53 -79.5t71.5 -42.5t76 -12.5q47 0 82 12.5t59 35t37 53t17 66.5h-67q-1 -21 -9 -41t-23.5 -36.5t-39 -26.5t-55.5 -10
q-26 0 -56 9.5t-56 40.5q-15 18 -24 40t-13.5 43.5t-6 41t-1.5 32.5q0 30 5.5 67.5t22 70t48 55t83.5 22.5q60 0 89 -32t34 -85h69zM124 758l98 -144h80l96 144h-46l-89 -106l-93 106h-46z" />
    <glyph glyph-name="eogonek" unicode="&#xea;" 
d="M117 292q10 87 54.5 129.5t104.5 42.5q46 0 79.5 -19.5t53.5 -51.5q19 -32 23 -59.5t6 -41.5h-321zM503 242q0 17 -0.5 37.5t-4.5 43t-12.5 46.5t-23.5 49q-11 17 -26 34t-37 30.5t-51.5 22t-68.5 8.5q-53 0 -95 -18.5t-72 -53.5t-46 -84.5t-16 -112.5q0 -60 17 -107.5
t47.5 -80.5t73 -50t93.5 -17q10 0 19.5 0.5t17.5 1.5q9 2 17 4l16 4q-18 -7 -38 -17t-37.5 -24t-29 -31.5t-11.5 -38.5q0 -12 5 -23.5t16.5 -21.5t29 -16t43.5 -6q37 0 60.5 7t33.5 11v29q-25 -10 -44.5 -11.5t-23.5 -1.5q-22 0 -42.5 10.5t-20.5 38.5q0 27 17.5 44t49.5 35
q50 29 88.5 74t49.5 103h-63q-9 -35 -25.5 -57.5t-37.5 -36t-44 -19t-44 -5.5q-42 0 -73 15t-52 42t-32 63.5t-11 79.5h388z" />
    <glyph glyph-name="eogonek" unicode="&#x119;" 
d="M117 292q10 87 54.5 129.5t104.5 42.5q46 0 79.5 -19.5t53.5 -51.5q19 -32 23 -59.5t6 -41.5h-321zM503 242q0 17 -0.5 37.5t-4.5 43t-12.5 46.5t-23.5 49q-11 17 -26 34t-37 30.5t-51.5 22t-68.5 8.5q-53 0 -95 -18.5t-72 -53.5t-46 -84.5t-16 -112.5q0 -60 17 -107.5
t47.5 -80.5t73 -50t93.5 -17q10 0 19.5 0.5t17.5 1.5q9 2 17 4l16 4q-18 -7 -38 -17t-37.5 -24t-29 -31.5t-11.5 -38.5q0 -12 5 -23.5t16.5 -21.5t29 -16t43.5 -6q37 0 60.5 7t33.5 11v29q-25 -10 -44.5 -11.5t-23.5 -1.5q-22 0 -42.5 10.5t-20.5 38.5q0 27 17.5 44t49.5 35
q50 29 88.5 74t49.5 103h-63q-9 -35 -25.5 -57.5t-37.5 -36t-44 -19t-44 -5.5q-42 0 -73 15t-52 42t-32 63.5t-11 79.5h388z" />
    <glyph glyph-name="ecaron" unicode="&#xec;" 
d="M503 242q0 17 -0.5 37.5t-4.5 43t-12.5 46.5t-23.5 49q-11 17 -26 34t-37 30.5t-51.5 22t-68.5 8.5q-53 0 -95 -18.5t-72 -53.5t-46 -84.5t-16 -112.5q0 -60 17 -107.5t47.5 -80.5t73 -50t93.5 -17q48 0 85 14.5t64 38t44 54.5t23 64h-63q-9 -35 -25.5 -57.5t-37.5 -36
t-44 -19t-44 -5.5q-42 0 -73 15t-52 42t-32 63.5t-11 79.5h388zM117 292q10 87 54.5 129.5t104.5 42.5q46 0 79.5 -19.5t53.5 -51.5q19 -32 23 -59.5t6 -41.5h-321zM147 762l98 -144h80l96 144h-46l-89 -106l-93 106h-46z" />
    <glyph glyph-name="ecaron" unicode="&#x11b;" 
d="M503 242q0 17 -0.5 37.5t-4.5 43t-12.5 46.5t-23.5 49q-11 17 -26 34t-37 30.5t-51.5 22t-68.5 8.5q-53 0 -95 -18.5t-72 -53.5t-46 -84.5t-16 -112.5q0 -60 17 -107.5t47.5 -80.5t73 -50t93.5 -17q48 0 85 14.5t64 38t44 54.5t23 64h-63q-9 -35 -25.5 -57.5t-37.5 -36
t-44 -19t-44 -5.5q-42 0 -73 15t-52 42t-32 63.5t-11 79.5h388zM117 292q10 87 54.5 129.5t104.5 42.5q46 0 79.5 -19.5t53.5 -51.5q19 -32 23 -59.5t6 -41.5h-321zM147 762l98 -144h80l96 144h-46l-89 -106l-93 106h-46z" />
    <glyph glyph-name="dcaron" unicode="&#xef;" horiz-adv-x="596" 
d="M478 722h-65l4 -293q-25 38 -69.5 61.5t-101.5 23.5q-54 0 -93 -20.5t-64.5 -56.5t-37.5 -84t-12 -102q0 -66 16 -115t43.5 -82t66 -49t83.5 -16q63 0 106.5 28.5t63.5 64.5l4 -82h59q-1 25 -2 60t-1 60v602zM260 43q-39 0 -65 12.5t-43 32t-26.5 43t-14 46t-5 41.5
t-0.5 28q0 16 1 37t5.5 43.5t12.5 44t22 39.5q19 24 47.5 38.5t65.5 14.5q38 0 66 -14.5t44 -34.5q15 -18 24 -40t13.5 -43.5t6 -41.5t1.5 -34q0 -56 -12.5 -96t-33.5 -65.5t-49 -38t-60 -12.5zM549 725v-97h24q0 -25 -7 -50.5t-35 -35.5v-27q20 6 33.5 18.5t22 28t12 33
t3.5 33.5v97h-53z" />
    <glyph glyph-name="dcaron" unicode="&#x10f;" horiz-adv-x="596" 
d="M478 722h-65l4 -293q-25 38 -69.5 61.5t-101.5 23.5q-54 0 -93 -20.5t-64.5 -56.5t-37.5 -84t-12 -102q0 -66 16 -115t43.5 -82t66 -49t83.5 -16q63 0 106.5 28.5t63.5 64.5l4 -82h59q-1 25 -2 60t-1 60v602zM260 43q-39 0 -65 12.5t-43 32t-26.5 43t-14 46t-5 41.5
t-0.5 28q0 16 1 37t5.5 43.5t12.5 44t22 39.5q19 24 47.5 38.5t65.5 14.5q38 0 66 -14.5t44 -34.5q15 -18 24 -40t13.5 -43.5t6 -41.5t1.5 -34q0 -56 -12.5 -96t-33.5 -65.5t-49 -38t-60 -12.5zM549 725v-97h24q0 -25 -7 -50.5t-35 -35.5v-27q20 6 33.5 18.5t22 28t12 33
t3.5 33.5v97h-53z" />
    <glyph glyph-name="dcroat" unicode="&#xf0;" 
d="M240 589h175l2 -160q-25 38 -69.5 61.5t-101.5 23.5q-54 0 -93 -20.5t-64.5 -56.5t-37.5 -84t-12 -102q0 -66 16 -115t43.5 -82t66 -49t83.5 -16q63 0 106.5 28.5t63.5 64.5l4 -82h59q-1 25 -2 60t-1 60v469h63v48h-63v85h-65l1 -85h-174v-48zM260 43q-39 0 -65 12.5
t-43 32t-26.5 43t-14 46t-5 41.5t-0.5 28q0 16 1 37t5.5 43.5t12.5 44t22 39.5q19 24 47.5 38.5t65.5 14.5q38 0 66 -14.5t44 -34.5q15 -18 24 -40t13.5 -43.5t6 -41.5t1.5 -34q0 -56 -12.5 -96t-33.5 -65.5t-49 -38t-60 -12.5z" />
    <glyph glyph-name="dcroat" unicode="&#x111;" 
d="M240 589h175l2 -160q-25 38 -69.5 61.5t-101.5 23.5q-54 0 -93 -20.5t-64.5 -56.5t-37.5 -84t-12 -102q0 -66 16 -115t43.5 -82t66 -49t83.5 -16q63 0 106.5 28.5t63.5 64.5l4 -82h59q-1 25 -2 60t-1 60v469h63v48h-63v85h-65l1 -85h-174v-48zM260 43q-39 0 -65 12.5
t-43 32t-26.5 43t-14 46t-5 41.5t-0.5 28q0 16 1 37t5.5 43.5t12.5 44t22 39.5q19 24 47.5 38.5t65.5 14.5q38 0 66 -14.5t44 -34.5q15 -18 24 -40t13.5 -43.5t6 -41.5t1.5 -34q0 -56 -12.5 -96t-33.5 -65.5t-49 -38t-60 -12.5z" />
    <glyph glyph-name="nacute" unicode="&#xf1;" 
d="M78 0h63v282q0 20 3.5 51t25.5 63q6 9 16 19.5t24.5 19.5t33.5 15t44 6q75 0 109 -60q10 -18 13 -43.5t3 -59.5v-293h64v311q0 47 -7 76.5t-18 45.5q-8 13 -21 27t-31 25t-41.5 18.5t-54.5 7.5t-60.5 -9t-54.5 -26q-22 -16 -33.5 -31t-17.5 -26l-4 87h-62q2 -26 3 -52.5
t1.5 -48.5t0.5 -36v-13zM338 761l-95 -141h47l129 141h-81z" />
    <glyph glyph-name="nacute" unicode="&#x144;" 
d="M78 0h63v282q0 20 3.5 51t25.5 63q6 9 16 19.5t24.5 19.5t33.5 15t44 6q75 0 109 -60q10 -18 13 -43.5t3 -59.5v-293h64v311q0 47 -7 76.5t-18 45.5q-8 13 -21 27t-31 25t-41.5 18.5t-54.5 7.5t-60.5 -9t-54.5 -26q-22 -16 -33.5 -31t-17.5 -26l-4 87h-62q2 -26 3 -52.5
t1.5 -48.5t0.5 -36v-13zM338 761l-95 -141h47l129 141h-81z" />
    <glyph glyph-name="ncaron" unicode="&#xf2;" 
d="M78 0h63v282q0 20 3.5 51t25.5 63q6 9 16 19.5t24.5 19.5t33.5 15t44 6q75 0 109 -60q10 -18 13 -43.5t3 -59.5v-293h64v311q0 47 -7 76.5t-18 45.5q-8 13 -21 27t-31 25t-41.5 18.5t-54.5 7.5t-60.5 -9t-54.5 -26q-22 -16 -33.5 -31t-17.5 -26l-4 87h-62q2 -26 3 -52.5
t1.5 -48.5t0.5 -36v-13zM159 758l98 -144h80l96 144h-46l-89 -106l-93 106h-46z" />
    <glyph glyph-name="ncaron" unicode="&#x148;" 
d="M78 0h63v282q0 20 3.5 51t25.5 63q6 9 16 19.5t24.5 19.5t33.5 15t44 6q75 0 109 -60q10 -18 13 -43.5t3 -59.5v-293h64v311q0 47 -7 76.5t-18 45.5q-8 13 -21 27t-31 25t-41.5 18.5t-54.5 7.5t-60.5 -9t-54.5 -26q-22 -16 -33.5 -31t-17.5 -26l-4 87h-62q2 -26 3 -52.5
t1.5 -48.5t0.5 -36v-13zM159 758l98 -144h80l96 144h-46l-89 -106l-93 106h-46z" />
    <glyph glyph-name="ohungarumlaut" unicode="&#xf5;" 
d="M40 256q0 -61 16 -110.5t46 -84t73.5 -53.5t99.5 -19q48 0 90 16t73.5 48.5t50 82.5t18.5 118q0 71 -20 120.5t-52.5 81t-74.5 45.5t-85 14q-50 0 -92.5 -17t-74.5 -49.5t-50 -81t-18 -111.5zM109 256q0 62 16.5 102t41 63.5t54 32.5t55.5 9q36 0 66.5 -14t52.5 -40.5
t34.5 -64.5t12.5 -86q0 -41 -9.5 -79.5t-29.5 -68.5t-51.5 -48.5t-76.5 -18.5q-41 0 -70.5 15t-48.5 36q-29 33 -38 77.5t-9 84.5zM412 760l-95 -141h47l129 141h-81zM264 760l-95 -141h47l129 141h-81z" />
    <glyph glyph-name="ohungarumlaut" unicode="&#x151;" 
d="M40 256q0 -61 16 -110.5t46 -84t73.5 -53.5t99.5 -19q48 0 90 16t73.5 48.5t50 82.5t18.5 118q0 71 -20 120.5t-52.5 81t-74.5 45.5t-85 14q-50 0 -92.5 -17t-74.5 -49.5t-50 -81t-18 -111.5zM109 256q0 62 16.5 102t41 63.5t54 32.5t55.5 9q36 0 66.5 -14t52.5 -40.5
t34.5 -64.5t12.5 -86q0 -41 -9.5 -79.5t-29.5 -68.5t-51.5 -48.5t-76.5 -18.5q-41 0 -70.5 15t-48.5 36q-29 33 -38 77.5t-9 84.5zM412 760l-95 -141h47l129 141h-81zM264 760l-95 -141h47l129 141h-81z" />
    <glyph glyph-name="rcaron" unicode="&#xf8;" horiz-adv-x="333" 
d="M87 0h62v286q0 16 2 43t15.5 53t41.5 45.5t81 19.5q12 0 19 -0.5t15 -2.5v62q-8 1 -17 1h-19q-9 0 -26.5 -1.5t-37.5 -9t-40.5 -24t-36.5 -46.5q-1 19 -1.5 31t-1 20t-1 14t-0.5 14h-61q3 -32 4 -68t1 -68zM51 758l98 -144h80l96 144h-46l-89 -106l-93 106h-46z" />
    <glyph glyph-name="rcaron" unicode="&#x159;" horiz-adv-x="333" 
d="M87 0h62v286q0 16 2 43t15.5 53t41.5 45.5t81 19.5q12 0 19 -0.5t15 -2.5v62q-8 1 -17 1h-19q-9 0 -26.5 -1.5t-37.5 -9t-40.5 -24t-36.5 -46.5q-1 19 -1.5 31t-1 20t-1 14t-0.5 14h-61q3 -32 4 -68t1 -68zM51 758l98 -144h80l96 144h-46l-89 -106l-93 106h-46z" />
    <glyph glyph-name="uring" unicode="&#xf9;" 
d="M76 506v-320q0 -48 10.5 -78.5t22.5 -47.5q7 -9 18.5 -20.5t29.5 -21.5t41.5 -17t54.5 -7q30 0 55 8t44.5 20t33.5 27t23 29l2 -78h61l-2 75v431h-64v-258q0 -20 -2 -53t-15.5 -65.5t-42.5 -56t-83 -23.5q-46 0 -71 19t-36.5 45t-13.5 52.5t-2 41.5v298h-64zM191 685
q0 -37 26 -62.5t62 -25.5q37 0 62.5 25.5t25.5 62.5q0 36 -25.5 62t-62.5 26q-36 0 -62 -25.5t-26 -62.5zM221 685q0 25 17.5 41.5t40.5 16.5q24 0 41 -17t17 -41t-17 -41t-41 -17q-23 0 -40.5 16.5t-17.5 41.5z" />
    <glyph glyph-name="uring" unicode="&#x16f;" 
d="M76 506v-320q0 -48 10.5 -78.5t22.5 -47.5q7 -9 18.5 -20.5t29.5 -21.5t41.5 -17t54.5 -7q30 0 55 8t44.5 20t33.5 27t23 29l2 -78h61l-2 75v431h-64v-258q0 -20 -2 -53t-15.5 -65.5t-42.5 -56t-83 -23.5q-46 0 -71 19t-36.5 45t-13.5 52.5t-2 41.5v298h-64zM191 685
q0 -37 26 -62.5t62 -25.5q37 0 62.5 25.5t25.5 62.5q0 36 -25.5 62t-62.5 26q-36 0 -62 -25.5t-26 -62.5zM221 685q0 25 17.5 41.5t40.5 16.5q24 0 41 -17t17 -41t-17 -41t-41 -17q-23 0 -40.5 16.5t-17.5 41.5z" />
    <glyph glyph-name="uhungarumlaut" unicode="&#xfb;" 
d="M76 506v-320q0 -48 10.5 -78.5t22.5 -47.5q7 -9 18.5 -20.5t29.5 -21.5t41.5 -17t54.5 -7q30 0 55 8t44.5 20t33.5 27t23 29l2 -78h61l-2 75v431h-64v-258q0 -20 -2 -53t-15.5 -65.5t-42.5 -56t-83 -23.5q-46 0 -71 19t-36.5 45t-13.5 52.5t-2 41.5v298h-64zM412 762
l-95 -141h47l129 141h-81zM264 762l-95 -141h47l129 141h-81z" />
    <glyph glyph-name="uhungarumlaut" unicode="&#x171;" 
d="M76 506v-320q0 -48 10.5 -78.5t22.5 -47.5q7 -9 18.5 -20.5t29.5 -21.5t41.5 -17t54.5 -7q30 0 55 8t44.5 20t33.5 27t23 29l2 -78h61l-2 75v431h-64v-258q0 -20 -2 -53t-15.5 -65.5t-42.5 -56t-83 -23.5q-46 0 -71 19t-36.5 45t-13.5 52.5t-2 41.5v298h-64zM412 762
l-95 -141h47l129 141h-81zM264 762l-95 -141h47l129 141h-81z" />
    <glyph glyph-name="yacute" unicode="&#xfd;" horiz-adv-x="500" 
d="M8 506l208 -504l-76 -191h66l277 695h-65l-168 -424l-169 424h-73zM285 760l-95 -141h47l129 141h-81z" />
    <glyph glyph-name="tcommaaccent" unicode="&#xfe;" horiz-adv-x="333" 
d="M119 454v-350q0 -57 32.5 -82.5t86.5 -25.5q26 0 41 3t25 7v52q-9 -4 -19.5 -7t-26.5 -3q-29 0 -44 9t-22.5 21.5t-8.5 27t-1 25.5v323h115v48h-115v133l-63 -26v-107h-96v-48h96zM156 -40v-97h24q0 -25 -7 -50.5t-35 -35.5v-27q20 6 33.5 18.5t22 28t12 33t3.5 33.5v97
h-53z" />
    <glyph glyph-name="tcommaaccent" unicode="&#x163;" horiz-adv-x="333" 
d="M119 454v-350q0 -57 32.5 -82.5t86.5 -25.5q26 0 41 3t25 7v52q-9 -4 -19.5 -7t-26.5 -3q-29 0 -44 9t-22.5 21.5t-8.5 27t-1 25.5v323h115v48h-115v133l-63 -26v-107h-96v-48h96zM156 -40v-97h24q0 -25 -7 -50.5t-35 -35.5v-27q20 6 33.5 18.5t22 28t12 33t3.5 33.5v97
h-53z" />
    <glyph glyph-name="onehalf" horiz-adv-x="834" 
d="M652 707h-53l-417 -707h55zM259 283v409h-49q-22 -20 -48.5 -37t-55.5 -28v-45q28 12 53.5 27t48.5 35v-361h51zM785 0v48h-202q17 19 50 49.5t65.5 67.5t56.5 76.5t24 75.5q0 27 -11 47t-29 33.5t-42.5 20t-51.5 6.5q-29 0 -54.5 -8t-44 -23.5t-29 -37.5t-10.5 -50h48
q0 28 24 49.5t65 21.5q36 0 58.5 -17t22.5 -45q0 -19 -12.5 -43t-32.5 -50t-44.5 -53t-49 -51t-47 -44t-36.5 -32v-41h282z" />
    <glyph glyph-name="Ncommaaccent" unicode="&#x145;" horiz-adv-x="722" 
d="M92 0h65v624h2l390 -624h82v722h-65v-635h-2l-398 635h-74v-722zM344 -40v-97h24q0 -25 -7 -50.5t-35 -35.5v-27q20 6 33.5 18.5t22 28t12 33t3.5 33.5v97h-53z" />
    <glyph glyph-name="umacron" unicode="&#x16b;" 
d="M76 506v-320q0 -48 10.5 -78.5t22.5 -47.5q7 -9 18.5 -20.5t29.5 -21.5t41.5 -17t54.5 -7q30 0 55 8t44.5 20t33.5 27t23 29l2 -78h61l-2 75v431h-64v-258q0 -20 -2 -53t-15.5 -65.5t-42.5 -56t-83 -23.5q-46 0 -71 19t-36.5 45t-13.5 52.5t-2 41.5v298h-64zM154 657h245
v57h-245v-57z" />
    <glyph glyph-name="Delta" unicode="&#x394;" horiz-adv-x="669" 
d="M364 712h-63l-285 -712h636zM332 660l240 -608h-479z" />
    <glyph glyph-name="amacron" unicode="&#x101;" horiz-adv-x="500" 
d="M122 375q2 11 6 26.5t18 30.5t36.5 23.5t59.5 8.5q46 0 71.5 -13t37 -35t13 -51t0.5 -62q-14 2 -27 2.5t-31 0.5q-19 0 -46 -1.5t-57 -6.5t-60 -15.5t-53.5 -29.5t-38.5 -47.5t-15 -68.5q0 -36 14 -64t37.5 -46.5t53 -28t59.5 -9.5q42 0 72.5 12t50.5 28.5t31.5 33
t16.5 24.5l3 -87h60q-2 26 -6 68.5t-4 96.5q0 9 0.5 34t0.5 53t0.5 53t0.5 35q0 28 -3.5 60.5t-26.5 58.5q-27 29 -68.5 41.5t-86.5 12.5q-60 0 -95.5 -17.5t-54.5 -40.5t-25 -46t-8 -34h64zM364 258q-1 -45 -3 -78t-13 -57q-17 -38 -52 -61t-86 -23q-30 0 -51.5 9.5t-35 24
t-19.5 32.5t-6 35q0 30 12 50t28.5 31.5t33 17t24.5 7.5q34 9 80.5 10.5t87.5 1.5zM127 657h245v57h-245v-57z" />
    <glyph glyph-name=".363" unicode="&#xe002;" horiz-adv-x="611" 
d="M274 0h65v314l264 408h-70l-221 -349l-221 349h-83l266 -410v-312zM430 790v88h-74v-88h74zM256 790v88h-74v-88h74z" />
    <glyph glyph-name="scedilla" unicode="&#xba;" horiz-adv-x="500" 
d="M44 137q1 -37 16 -64t39.5 -44.5t57.5 -27t70 -11.5l-24 -73q11 2 19 2.5t13 0.5q23 0 36.5 -9t13.5 -30q0 -15 -6 -23t-14.5 -11.5t-16.5 -4.5t-11 -1q-26 0 -50 7.5t-46 17.5l-7 -28q29 -11 54 -17t51 -6q13 0 30.5 2.5t33.5 10t26.5 21t10.5 36.5q0 24 -11.5 37
t-27 19t-33 7t-29.5 1l11 41q55 1 93 16t60.5 37.5t32.5 50t10 53.5q0 37 -13 60.5t-31.5 37.5t-40.5 21.5t-40 12.5l-103 27q-46 12 -69.5 27.5t-23.5 50.5q0 38 29 61t88 23q18 0 39 -3t39 -12.5t30.5 -27.5t14.5 -47h67q-4 46 -23.5 73.5t-46.5 41.5t-57.5 18.5
t-57.5 4.5q-53 0 -88.5 -12.5t-57 -33t-30.5 -45.5t-9 -49q0 -32 11 -53t28.5 -34.5t38 -21t39.5 -12.5l103 -27q19 -5 36.5 -10.5t31.5 -15.5t22.5 -25.5t8.5 -39.5q0 -34 -17 -54t-39.5 -30t-45 -12.5t-34.5 -2.5q-39 0 -67 11t-42 26q-16 17 -19.5 33t-5.5 29h-67z" />
    <glyph glyph-name="scedilla" unicode="&#xf6c2;" horiz-adv-x="500" 
d="M44 137q1 -37 16 -64t39.5 -44.5t57.5 -27t70 -11.5l-24 -73q11 2 19 2.5t13 0.5q23 0 36.5 -9t13.5 -30q0 -15 -6 -23t-14.5 -11.5t-16.5 -4.5t-11 -1q-26 0 -50 7.5t-46 17.5l-7 -28q29 -11 54 -17t51 -6q13 0 30.5 2.5t33.5 10t26.5 21t10.5 36.5q0 24 -11.5 37
t-27 19t-33 7t-29.5 1l11 41q55 1 93 16t60.5 37.5t32.5 50t10 53.5q0 37 -13 60.5t-31.5 37.5t-40.5 21.5t-40 12.5l-103 27q-46 12 -69.5 27.5t-23.5 50.5q0 38 29 61t88 23q18 0 39 -3t39 -12.5t30.5 -27.5t14.5 -47h67q-4 46 -23.5 73.5t-46.5 41.5t-57.5 18.5
t-57.5 4.5q-53 0 -88.5 -12.5t-57 -33t-30.5 -45.5t-9 -49q0 -32 11 -53t28.5 -34.5t38 -21t39.5 -12.5l103 -27q19 -5 36.5 -10.5t31.5 -15.5t22.5 -25.5t8.5 -39.5q0 -34 -17 -54t-39.5 -30t-45 -12.5t-34.5 -2.5q-39 0 -67 11t-42 26q-16 17 -19.5 33t-5.5 29h-67z" />
    <glyph glyph-name="scedilla" unicode="&#x15f;" horiz-adv-x="500" 
d="M44 137q1 -37 16 -64t39.5 -44.5t57.5 -27t70 -11.5l-24 -73q11 2 19 2.5t13 0.5q23 0 36.5 -9t13.5 -30q0 -15 -6 -23t-14.5 -11.5t-16.5 -4.5t-11 -1q-26 0 -50 7.5t-46 17.5l-7 -28q29 -11 54 -17t51 -6q13 0 30.5 2.5t33.5 10t26.5 21t10.5 36.5q0 24 -11.5 37
t-27 19t-33 7t-29.5 1l11 41q55 1 93 16t60.5 37.5t32.5 50t10 53.5q0 37 -13 60.5t-31.5 37.5t-40.5 21.5t-40 12.5l-103 27q-46 12 -69.5 27.5t-23.5 50.5q0 38 29 61t88 23q18 0 39 -3t39 -12.5t30.5 -27.5t14.5 -47h67q-4 46 -23.5 73.5t-46.5 41.5t-57.5 18.5
t-57.5 4.5q-53 0 -88.5 -12.5t-57 -33t-30.5 -45.5t-9 -49q0 -32 11 -53t28.5 -34.5t38 -21t39.5 -12.5l103 -27q19 -5 36.5 -10.5t31.5 -15.5t22.5 -25.5t8.5 -39.5q0 -34 -17 -54t-39.5 -30t-45 -12.5t-34.5 -2.5q-39 0 -67 11t-42 26q-16 17 -19.5 33t-5.5 29h-67z" />
    <glyph glyph-name="Omacron" unicode="&#x14c;" horiz-adv-x="778" 
d="M64 368q0 -75 17.5 -144t56 -121t99 -83t146.5 -31q100 0 163 37.5t99 94t49 121.5t13 121q0 38 -4.5 76t-15 74t-28 69t-42.5 62t-56.5 47t-63 28t-61.5 13.5t-52 3.5q-91 0 -152 -33t-98.5 -85.5t-53.5 -118.5t-16 -131zM135 366q0 63 15 119.5t45.5 99.5t78 68
t112.5 25q74 0 122 -31t76 -78t39 -102t11 -104q0 -61 -13.5 -118t-43.5 -101t-77 -70.5t-114 -26.5q-68 0 -116 27.5t-78 72.5t-43.5 102t-13.5 117zM266 800h245v57h-245v-57z" />
    <glyph glyph-name="commaaccent" unicode="&#xf004;" horiz-adv-x="278" 
d="M107 -40v-97h24q0 -25 -7 -50.5t-35 -35.5v-27q20 6 33.5 18.5t22 28t12 33t3.5 33.5v97h-53z" />
    <glyph glyph-name="commaaccent" unicode="&#xf6c3;" horiz-adv-x="278" 
d="M107 -40v-97h24q0 -25 -7 -50.5t-35 -35.5v-27q20 6 33.5 18.5t22 28t12 33t3.5 33.5v97h-53z" />
    <glyph glyph-name=".361" unicode="&#xe000;" horiz-adv-x="1000" 
d="M131 361q0 59 13.5 116t42 101.5t72.5 71.5t104 27q92 0 141.5 -47t48.5 -156v-253q0 -84 -51 -128.5t-139 -47.5q-60 0 -104 27t-72.5 71.5t-42 101.5t-13.5 116zM555 0h391v60h-326v283h297v60h-297v259h311v60h-376v-63q-45 46 -92.5 62t-99.5 16q-70 0 -126 -27
t-95 -76.5t-60 -119t-21 -153.5t21 -153.5t60 -119t95 -76.5t126 -27q25 0 51.5 5t51.5 15.5t47 26t38 37.5h4v-69z" />
    <glyph glyph-name="Emacron" unicode="&#x112;" horiz-adv-x="611" 
d="M102 0h444v58h-379v287h350v55h-350v263h364v57h-429v-720zM195 800h245v57h-245v-57z" />
    <glyph glyph-name="uogonek" unicode="&#x173;" 
d="M470 506h-64v-258q0 -20 -2 -53t-15.5 -65.5t-42.5 -56t-83 -23.5q-46 0 -71 19t-36.5 45t-13.5 52.5t-2 41.5v298h-64v-320q0 -48 10.5 -78.5t22.5 -47.5q7 -9 18.5 -20.5t29.5 -21.5t41.5 -17t54.5 -7q30 0 55 8t44.5 20t33.5 27t23 29l2 -78h11q-18 -7 -38.5 -17
t-38.5 -24t-29.5 -32t-11.5 -39q0 -12 5 -23.5t16.5 -21.5t29 -16t43.5 -6q37 0 60.5 7t33.5 11v29q-25 -10 -44.5 -11.5t-23.5 -1.5q-22 0 -42.5 10.5t-20.5 38.5q0 16 7 28.5t19.5 23.5t31 21.5t42.5 22.5h11l-2 75v431z" />
    <glyph glyph-name="Thorn" horiz-adv-x="611" 
d="M165 507h158q36 0 69.5 -6.5t58.5 -23t40 -44.5t15 -70t-15 -70t-40 -44.5t-58.5 -23t-69.5 -6.5h-158v288zM100 0h65v159h143q50 0 98.5 7.5t86 30t60.5 62t23 104.5q0 64 -23 104t-60.5 62.5t-86 30t-98.5 7.5h-143v155h-65v-722z" />
    <glyph glyph-name="Eth" horiz-adv-x="722" 
d="M156 662h102q77 2 138 -14.5t104 -53.5t65.5 -95t22.5 -138q0 -68 -16 -123.5t-50.5 -95t-89 -61t-130.5 -21.5h-146v315h216v45h-216v242zM91 0h195q179 0 275.5 90.5t96.5 270.5t-96.5 270.5t-275.5 90.5h-195v-302h-68v-45h68v-375z" />
    <glyph glyph-name="emacron" unicode="&#x113;" 
d="M503 242q0 17 -0.5 37.5t-4.5 43t-12.5 46.5t-23.5 49q-11 17 -26 34t-37 30.5t-51.5 22t-68.5 8.5q-53 0 -95 -18.5t-72 -53.5t-46 -84.5t-16 -112.5q0 -60 17 -107.5t47.5 -80.5t73 -50t93.5 -17q48 0 85 14.5t64 38t44 54.5t23 64h-63q-9 -35 -25.5 -57.5t-37.5 -36
t-44 -19t-44 -5.5q-42 0 -73 15t-52 42t-32 63.5t-11 79.5h388zM117 292q10 87 54.5 129.5t104.5 42.5q46 0 79.5 -19.5t53.5 -51.5q19 -32 23 -59.5t6 -41.5h-321zM154 657h245v57h-245v-57z" />
    <glyph glyph-name="edotaccent" unicode="&#x117;" 
d="M503 242q0 17 -0.5 37.5t-4.5 43t-12.5 46.5t-23.5 49q-11 17 -26 34t-37 30.5t-51.5 22t-68.5 8.5q-53 0 -95 -18.5t-72 -53.5t-46 -84.5t-16 -112.5q0 -60 17 -107.5t47.5 -80.5t73 -50t93.5 -17q48 0 85 14.5t64 38t44 54.5t23 64h-63q-9 -35 -25.5 -57.5t-37.5 -36
t-44 -19t-44 -5.5q-42 0 -73 15t-52 42t-32 63.5t-11 79.5h388zM117 292q10 87 54.5 129.5t104.5 42.5q46 0 79.5 -19.5t53.5 -51.5q19 -32 23 -59.5t6 -41.5h-321zM235 647h73v77h-73v-77z" />
    <glyph glyph-name="gbreve" unicode="&#x11f;" 
d="M426 262q0 -37 -8.5 -73.5t-27.5 -66t-49.5 -47.5t-73.5 -18q-41 0 -71 19t-49 48t-28 65t-9 71q0 34 9 70t27.5 65.5t48 48t70.5 18.5q40 0 70.5 -18t50.5 -46.5t30 -64t10 -71.5zM426 428l-2 -4q-30 44 -70 68.5t-95 24.5q-57 0 -98 -22t-66.5 -58t-37.5 -83.5
t-12 -98.5q0 -52 12.5 -98t39 -80.5t67 -54.5t97.5 -20q49 0 95 24.5t68 69.5h2v-94q-1 -32 -14 -57.5t-34 -43.5t-48 -28t-56 -10q-24 0 -48 4t-44 13.5t-33.5 24.5t-16.5 38h-65q0 -39 18.5 -65t47 -41.5t64 -22t69.5 -6.5q35 0 59.5 4.5t54.5 18.5q42 19 63.5 48t31 62.5
t10.5 71t1 75.5v301q0 29 1.5 58t3.5 55h-62zM382 707q-5 -16 -17 -26t-27 -16t-31.5 -8t-31.5 -2q-14 0 -30 2t-30 7.5t-25 15.5t-15 27h-19q0 -27 9.5 -46t26 -30.5t38 -16.5t45.5 -5q27 0 49 4t38.5 15t26 30t11.5 49h-18z" />
    <glyph glyph-name="threequarters" horiz-adv-x="834" 
d="M626 0h51v97h63v48h-63v270h-62l-201 -287v-31h212v-97zM652 707h-53l-417 -707h55zM626 145h-142l140 213h2v-213zM146 476q23 3 45 0.5t39.5 -11.5t28 -25t10.5 -40q0 -36 -28 -55.5t-73 -19.5q-39 0 -65.5 19.5t-27.5 49.5h-54q1 -30 13 -52t32 -36.5t46.5 -21.5
t56.5 -7q28 0 55.5 7.5t49.5 22.5t35.5 37t13.5 51q0 42 -28 69t-71 35v2q38 8 65 32t27 62q0 30 -13 51t-34 34.5t-48.5 20t-55.5 6.5q-26 0 -51 -7.5t-44.5 -21.5t-31 -34.5t-11.5 -46.5h54q5 27 26 44.5t64 17.5q40 0 65.5 -17.5t25.5 -44.5q0 -22 -10 -37t-26.5 -24
t-37 -11.5t-42.5 -0.5v-48z" />
    <glyph glyph-name="fraction" unicode="&#x2215;" horiz-adv-x="167" 
d="M319 707h-53l-417 -707h55z" />
    <glyph glyph-name="Edotaccent" unicode="&#x116;" horiz-adv-x="611" 
d="M102 0h444v58h-379v287h350v55h-350v263h364v57h-429v-720zM281 789h73v77h-73v-77z" />
    <glyph glyph-name="Amacron" unicode="&#x100;" horiz-adv-x="667" 
d="M5 0h67l76 198h359l78 -198h70l-288 725h-77zM169 252l159 412l156 -412h-315zM211 800h245v57h-245v-57z" />
    <glyph glyph-name="imacron" unicode="&#x12b;" horiz-adv-x="222" 
d="M76 0h63v505h-63v-505zM-12 658h245v57h-245v-57z" />
    <glyph glyph-name="Rcommaaccent" unicode="&#x156;" horiz-adv-x="667" 
d="M168 404v258h146q26 0 60.5 -0.5t65 -12t52 -38t21.5 -78.5q0 -46 -19.5 -72t-49.5 -38.5t-66.5 -15.5t-70.5 -3h-139zM168 344h179q49 0 77.5 -7t44 -28t22 -59t12.5 -100q3 -38 7.5 -76t17.5 -74h75q-11 16 -16.5 35.5t-8.5 44.5t-5.5 58t-7.5 77q-3 31 -9.5 58t-20 48
t-35.5 35t-56 20v2q63 16 101 56t38 99q0 52 -18 90t-56 61q-41 25 -82 31.5t-88 6.5h-236v-722h65v344zM317 -40v-97h24q0 -25 -7 -50.5t-35 -35.5v-27q20 6 33.5 18.5t22 28t12 33t3.5 33.5v97h-53z" />
    <glyph glyph-name="Umacron" unicode="&#x16a;" horiz-adv-x="722" 
d="M94 725v-446q0 -26 1 -50.5t5.5 -48.5t14.5 -47t27 -46q12 -15 29 -32.5t42 -32t59.5 -24t81.5 -9.5q63 0 118.5 21.5t93.5 70.5q20 26 31 52.5t16 51t6 45.5t1 36v459h-62v-450q0 -37 -3.5 -72t-19.5 -63q-6 -10 -18.5 -26t-34 -31.5t-52.5 -26.5t-74 -11q-11 0 -31 1.5
t-43 9.5t-47.5 25t-44.5 47q-25 38 -29 78.5t-4 71.5v447h-63zM238 800h245v57h-245v-57z" />
    <glyph glyph-name="rcommaaccent" unicode="&#x157;" horiz-adv-x="333" 
d="M140 302q2 72 36.5 116t101.5 44q9 0 18.5 -1.5t18.5 -2.5v58q-15 1 -30 1.5t-30 -0.5q-38 -2 -68.5 -26.5t-44.5 -62.5h-2l-3 74h-62q2 -26 4 -55t1 -58v-389h60v302zM85 -40v-97h24q0 -25 -7 -50.5t-35 -35.5v-27q20 6 33.5 18.5t22 28t12 33t3.5 33.5v97h-53z" />
    <glyph glyph-name="Scedilla" unicode="&#xaa;" horiz-adv-x="611" 
d="M56 188q1 -13 3.5 -31t10.5 -38.5t22.5 -41.5t39.5 -40q19 -15 40 -24t41.5 -13.5t38.5 -6t32 -2.5l-24 -74q11 2 18.5 2.5t12.5 0.5q23 0 36.5 -9t13.5 -30q0 -15 -6 -23t-14 -11.5t-16 -4.5t-12 -1q-25 0 -49 7.5t-47 17.5l-7 -28q29 -11 54 -17t51 -6q14 0 31.5 2.5
t33.5 10t26.5 21t10.5 36.5q0 24 -11.5 37t-27.5 19t-33 7t-29 1l11 42q50 1 94.5 15t77.5 39.5t52.5 62t19.5 82.5q0 38 -15 73.5t-47 59.5q-13 10 -24 16.5t-27.5 13.5t-42.5 16t-68 23q-48 16 -84 31t-59 32t-34.5 38t-11.5 50q0 58 45 96.5t133 38.5q26 0 52.5 -5
t49 -18t37 -35t16.5 -55h67q0 16 -4.5 42t-32.5 55q-36 39 -85.5 55t-103.5 16q-50 0 -94 -12.5t-76 -37t-50.5 -60.5t-18.5 -84q0 -40 12.5 -69t38.5 -52t67.5 -42.5t99.5 -39.5q52 -18 89 -32t60.5 -30t34 -36.5t10.5 -51.5q0 -37 -16.5 -63.5t-42.5 -43.5t-60 -25t-68 -8
q-9 0 -24 1t-32.5 4.5t-36 10.5t-34.5 19q-17 13 -26.5 28.5t-14 30.5t-5.5 28t-1 20h-68z" />
    <glyph glyph-name="Scedilla" unicode="&#xf6c1;" horiz-adv-x="611" 
d="M56 188q1 -13 3.5 -31t10.5 -38.5t22.5 -41.5t39.5 -40q19 -15 40 -24t41.5 -13.5t38.5 -6t32 -2.5l-24 -74q11 2 18.5 2.5t12.5 0.5q23 0 36.5 -9t13.5 -30q0 -15 -6 -23t-14 -11.5t-16 -4.5t-12 -1q-25 0 -49 7.5t-47 17.5l-7 -28q29 -11 54 -17t51 -6q14 0 31.5 2.5
t33.5 10t26.5 21t10.5 36.5q0 24 -11.5 37t-27.5 19t-33 7t-29 1l11 42q50 1 94.5 15t77.5 39.5t52.5 62t19.5 82.5q0 38 -15 73.5t-47 59.5q-13 10 -24 16.5t-27.5 13.5t-42.5 16t-68 23q-48 16 -84 31t-59 32t-34.5 38t-11.5 50q0 58 45 96.5t133 38.5q26 0 52.5 -5
t49 -18t37 -35t16.5 -55h67q0 16 -4.5 42t-32.5 55q-36 39 -85.5 55t-103.5 16q-50 0 -94 -12.5t-76 -37t-50.5 -60.5t-18.5 -84q0 -40 12.5 -69t38.5 -52t67.5 -42.5t99.5 -39.5q52 -18 89 -32t60.5 -30t34 -36.5t10.5 -51.5q0 -37 -16.5 -63.5t-42.5 -43.5t-60 -25t-68 -8
q-9 0 -24 1t-32.5 4.5t-36 10.5t-34.5 19q-17 13 -26.5 28.5t-14 30.5t-5.5 28t-1 20h-68z" />
    <glyph glyph-name="Scedilla" unicode="&#x15e;" horiz-adv-x="611" 
d="M56 188q1 -13 3.5 -31t10.5 -38.5t22.5 -41.5t39.5 -40q19 -15 40 -24t41.5 -13.5t38.5 -6t32 -2.5l-24 -74q11 2 18.5 2.5t12.5 0.5q23 0 36.5 -9t13.5 -30q0 -15 -6 -23t-14 -11.5t-16 -4.5t-12 -1q-25 0 -49 7.5t-47 17.5l-7 -28q29 -11 54 -17t51 -6q14 0 31.5 2.5
t33.5 10t26.5 21t10.5 36.5q0 24 -11.5 37t-27.5 19t-33 7t-29 1l11 42q50 1 94.5 15t77.5 39.5t52.5 62t19.5 82.5q0 38 -15 73.5t-47 59.5q-13 10 -24 16.5t-27.5 13.5t-42.5 16t-68 23q-48 16 -84 31t-59 32t-34.5 38t-11.5 50q0 58 45 96.5t133 38.5q26 0 52.5 -5
t49 -18t37 -35t16.5 -55h67q0 16 -4.5 42t-32.5 55q-36 39 -85.5 55t-103.5 16q-50 0 -94 -12.5t-76 -37t-50.5 -60.5t-18.5 -84q0 -40 12.5 -69t38.5 -52t67.5 -42.5t99.5 -39.5q52 -18 89 -32t60.5 -30t34 -36.5t10.5 -51.5q0 -37 -16.5 -63.5t-42.5 -43.5t-60 -25t-68 -8
q-9 0 -24 1t-32.5 4.5t-36 10.5t-34.5 19q-17 13 -26.5 28.5t-14 30.5t-5.5 28t-1 20h-68z" />
    <glyph glyph-name="eth" 
d="M155 697q19 -5 31.5 -9t22.5 -8t19.5 -8t21.5 -10l-83 -51l29 -29l93 57q42 -26 71.5 -60t48 -70.5t28.5 -74.5t13 -71l-2 -2q-6 16 -18.5 38t-33.5 42t-52 34.5t-74 14.5q-57 0 -99.5 -22t-70.5 -57.5t-42 -81t-14 -92.5t14 -92t43 -80.5t73 -57.5t104 -22
q114 0 174 75.5t60 207.5q0 97 -18.5 166t-45.5 116t-57 75t-54 44l85 53l-30 28l-93 -58q-17 9 -30.5 15t-27 11t-30 9.5t-39.5 9.5zM109 237q0 33 9.5 69t29.5 65t52.5 48t77.5 19t77.5 -19t52.5 -48t29.5 -65t9.5 -69t-9.5 -68.5t-29.5 -64.5t-52.5 -48t-77.5 -19
t-77.5 19t-52.5 48t-29.5 64.5t-9.5 68.5z" />
    <glyph glyph-name="Uogonek" unicode="&#x172;" horiz-adv-x="722" 
d="M620 725h-62v-450q0 -37 -3.5 -72t-19.5 -63q-6 -10 -18.5 -26t-34 -31.5t-52.5 -26.5t-74 -11q-11 0 -31 1.5t-43 9.5t-47.5 25t-44.5 47q-25 38 -29 78.5t-4 71.5v447h-63v-446q0 -26 1 -50.5t5.5 -48.5t14.5 -47t27 -46q12 -15 29 -32.5t42 -32t59.5 -24t81.5 -9.5
q10 0 19.5 0.5t18.5 1.5q19 1 36 6q-17 -7 -36.5 -17t-36 -24t-27.5 -31t-11 -37q0 -12 5 -23.5t16.5 -21.5t29 -16t43.5 -6q37 0 60.5 7t33.5 11v29q-25 -10 -44.5 -11.5t-23.5 -1.5q-22 0 -42.5 10.5t-20.5 38.5q0 18 8.5 31t37.5 38q5 4 16.5 12t23.5 15.5t23.5 14
t16.5 9.5q17 8 34.5 24t31.5 33q20 26 31 52.5t16 51t6 45.5t1 36v459z" />
    <glyph glyph-name="Gbreve" unicode="&#x11e;" horiz-adv-x="722" 
d="M385 368v-60h181v-233q-38 -11 -78.5 -20.5t-81.5 -9.5q-73 0 -124.5 23.5t-84.5 65.5t-48 100t-15 127q0 56 13 112.5t41.5 101.5t73.5 73.5t110 28.5q32 0 62.5 -8t55 -24t41 -41.5t21.5 -59.5h74q-4 48 -27.5 84t-58.5 60.5t-79 36.5t-89 12q-78 0 -136 -32.5
t-96.5 -85.5t-57 -120.5t-18.5 -137.5q0 -83 20.5 -152.5t59.5 -119t96.5 -77t131.5 -27.5q70 0 131.5 9.5t127.5 35.5v338h-246zM465 869q-5 -16 -17 -26t-27 -16t-31.5 -8t-31.5 -2q-14 0 -30 2t-30 7.5t-25 15.5t-15 27h-19q0 -27 9.5 -46t26 -30.5t38 -16.5t45.5 -5
q27 0 49 4t38.5 15t26 30t11.5 49h-18z" />
    <glyph glyph-name="onesuperior" horiz-adv-x="333" 
d="M227 283v409h-49q-22 -20 -48.5 -37t-55.5 -28v-45q28 12 53.5 27t48.5 35v-361h51z" />
    <glyph glyph-name="iogonek" unicode="&#x12f;" horiz-adv-x="222" 
d="M72 647h73v76h-73v-76zM139 505h-63v-505h14q-18 -7 -38.5 -17t-38.5 -24t-29.5 -32t-11.5 -39q0 -12 5 -23.5t16.5 -21.5t29 -16t43.5 -6q37 0 60.5 7t33.5 11v29q-25 -10 -44.5 -11.5t-23.5 -1.5q-22 0 -42.5 10.5t-20.5 38.5q0 16 7 28.5t19.5 23.5t31 21.5t42.5 22.5
h10v505z" />
    <glyph glyph-name="threesuperior" horiz-adv-x="333" 
d="M146 476q23 3 45 0.5t39.5 -11.5t28 -25t10.5 -40q0 -36 -28 -55.5t-73 -19.5q-39 0 -65.5 19.5t-27.5 49.5h-54q1 -30 13 -52t32 -36.5t46.5 -21.5t56.5 -7q28 0 55.5 7.5t49.5 22.5t35.5 37t13.5 51q0 42 -28 69t-71 35v2q38 8 65 32t27 62q0 30 -13 51t-34 34.5
t-48.5 20t-55.5 6.5q-26 0 -51 -7.5t-44.5 -21.5t-31 -34.5t-11.5 -46.5h54q5 27 26 44.5t64 17.5q40 0 65.5 -17.5t25.5 -44.5q0 -22 -10 -37t-26.5 -24t-37 -11.5t-42.5 -0.5v-48z" />
    <glyph glyph-name="Lcommaaccent" unicode="&#x13b;" 
d="M528 0v60h-363v662h-65v-722h428zM261 -40v-97h24q0 -25 -7 -50.5t-35 -35.5v-27q20 6 33.5 18.5t22 28t12 33t3.5 33.5v97h-53z" />
    <glyph glyph-name="thorn" 
d="M130 263q0 38 9 74t28.5 63.5t50 44.5t74.5 17q43 0 72 -18t47 -47t26 -65t8 -72q0 -35 -6.5 -73.5t-22.5 -71t-44 -54t-71 -21.5q-49 0 -82 19t-52.5 50t-28 71t-8.5 83zM130 78h2q31 -45 75.5 -69t99.5 -24t93.5 24t63 62.5t35.5 86.5t11 95q0 49 -11 96t-36 84.5
t-64 60.5t-95 23q-50 0 -98 -23.5t-74 -67.5l-2 2v294h-60v-914h60v270z" />
    <glyph glyph-name="Iogonek" unicode="&#x12e;" horiz-adv-x="278" 
d="M169 725h-65v-725h13q-18 -7 -38.5 -17t-38.5 -24t-29.5 -32t-11.5 -39q0 -12 5 -23.5t16.5 -21.5t29 -16t43.5 -6q37 0 60.5 7t33.5 11v29q-25 -10 -44.5 -11.5t-23.5 -1.5q-22 0 -42.5 10.5t-20.5 38.5q0 16 7 28.5t19.5 23.5t31 21.5t42.5 22.5h13v725z" />
    <glyph glyph-name="minus" unicode="&#x2212;" horiz-adv-x="660" 
d="M80 221h500v60h-500v-60z" />
    <glyph glyph-name=".362" unicode="&#xe001;" horiz-adv-x="889" 
d="M425 256q0 -38 -7 -76.5t-24.5 -69.5t-48 -50.5t-76.5 -19.5q-42 0 -72.5 20t-50 50.5t-28.5 68t-9 72.5t9 72.5t28.5 68t50 50.5t72.5 20q45 1 75 -18t48 -49t25.5 -67t7.5 -72zM490 292q-1 30 8 60.5t27 55t44 39.5t60 15q40 0 67.5 -13t45 -36t25.5 -54t8 -67h-285z
M840 237q0 59 -12 110t-38.5 89t-68 59.5t-100.5 21.5q-24 0 -49 -7.5t-47.5 -23.5t-40.5 -39.5t-28 -54.5q-24 59 -70.5 92t-107.5 33q-60 0 -104 -23t-73 -60.5t-43 -85.5t-14 -97q0 -50 14 -97.5t43 -85t73 -60.5t104 -23q57 0 105.5 31t71.5 94h2q17 -64 65 -94.5
t105 -30.5q76 0 130 42t77 133h-63q-6 -26 -19 -48t-32.5 -38t-43 -25t-50.5 -9q-39 -1 -65.5 16.5t-42.5 46t-22.5 64t-5.5 70.5h350z" />
    <glyph glyph-name="ncommaaccent" unicode="&#x146;" 
d="M140 289q0 34 8.5 65t26.5 55t45 38.5t64 14.5q62 0 97 -36t35 -102v-324h60v314q0 14 -1.5 35t-7.5 43.5t-18 45t-31.5 40t-48.5 28.5t-70 11q-49 0 -90 -22t-67 -69l-2 2l-3 74h-62q2 -26 3.5 -55t1.5 -58v-389h60v289zM261 -40v-97h24q0 -25 -7 -50.5t-35 -35.5v-27
q20 6 33.5 18.5t22 28t12 33t3.5 33.5v97h-53z" />
    <glyph glyph-name="gcommaaccent" unicode="&#x123;" 
d="M58 -58q4 -48 25.5 -76.5t51 -43.5t62.5 -19t59 -4q24 0 51 3.5t53.5 14t50 28.5t39.5 47q21 38 25 87.5t4 124.5v286q0 12 1.5 43t3.5 73h-63l-2 -82q-18 28 -40.5 46t-45.5 28t-44.5 13.5t-39.5 3.5q-36 0 -74 -13t-69 -43t-50.5 -78.5t-19.5 -118.5q0 -69 15.5 -114.5
t42.5 -77.5q33 -37 72.5 -51t81.5 -14q30 0 57 7t48.5 19.5t37 29t24.5 35.5q1 -11 1.5 -20.5t0.5 -21.5q0 -31 -4 -67t-19.5 -66.5t-47 -50.5t-85.5 -20q-36 0 -65.5 9.5t-45.5 24.5q-17 16 -21 31.5t-5 26.5h-66zM416 261q0 -41 -10 -78.5t-29.5 -66t-48.5 -46t-68 -17.5
q-28 0 -55.5 11.5t-50 36t-36.5 63.5t-14 93q0 42 9.5 79.5t28.5 65.5t47.5 44t67.5 16q37 0 67 -16.5t50 -44.5t31 -64.5t11 -75.5zM294 619v97h-24q0 12 1 25.5t5.5 25t13 21t22.5 14.5v27q-20 -6 -34 -18.5t-22 -28t-11.5 -33t-3.5 -33.5v-97h53z" />
    <glyph glyph-name="twosuperior" horiz-adv-x="333" 
d="M315 283v48h-202q17 19 50 49.5t65.5 67.5t56.5 76.5t24 75.5q0 27 -11 47t-29 33.5t-42.5 20t-51.5 6.5q-29 0 -54.5 -8t-44 -23.5t-29 -37.5t-10.5 -50h48q0 28 24 49.5t65 21.5q36 0 58.5 -17t22.5 -45q0 -19 -12.5 -43t-32 -50t-44.5 -53t-49.5 -51.5t-47 -44
t-36.5 -31.5v-41h282z" />
    <glyph glyph-name="lcommaaccent" unicode="&#x13c;" horiz-adv-x="222" 
d="M141 722h-60v-722h60v722zM88 -40v-97h24q0 -25 -7 -50.5t-35 -35.5v-27q20 6 33.5 18.5t22 28t12 33t3.5 33.5v97h-53z" />
    <glyph glyph-name="Imacron" unicode="&#x12a;" horiz-adv-x="278" 
d="M104 0h65v725h-65v-725zM16 800h245v57h-245v-57z" />
    <glyph glyph-name="Idotaccent" unicode="&#x130;" horiz-adv-x="278" 
d="M172 0v725h-65v-725h65zM176 790v88h-74v-88h74z" />
    <glyph glyph-name="Kcommaaccent" unicode="&#x136;" horiz-adv-x="611" 
d="M170 0l1 377l346 -377h89l-363 396l333 326h-82l-323 -318l-1 318h-64v-722h64zM289 -40v-97h24q0 -25 -7 -50.5t-35 -35.5v-27q20 6 33.5 18.5t22 28t12 33t3.5 33.5v97h-53z" />
    <glyph glyph-name="onequarter" horiz-adv-x="834" 
d="M626 0h51v97h63v48h-63v270h-62l-201 -287v-31h212v-97zM652 707h-53l-417 -707h55zM626 145h-142l140 213h2v-213zM259 283v409h-49q-22 -20 -48.5 -37t-55.5 -28v-45q28 12 53.5 27t48.5 35v-361h51z" />
    <glyph glyph-name="Gcommaaccent" unicode="&#x122;" horiz-adv-x="722" 
d="M386 366v-58h181v-233q-51 -17 -98.5 -21t-74.5 -4q-39 0 -69 6.5t-52 17t-37.5 24t-27.5 26.5q-24 27 -38 59t-21.5 64.5t-10 63t-2.5 54.5q0 75 17 133t48.5 97.5t75.5 60.5t98 21q25 0 53 -5.5t53.5 -20.5t45 -41t27.5 -66h72q-5 51 -29.5 87.5t-60.5 60t-78 34.5
t-81 11q-62 0 -118.5 -24t-100 -71t-69.5 -116.5t-26 -160.5q0 -40 6 -83t19.5 -83.5t35 -76t52.5 -60.5q28 -22 56.5 -35.5t57 -20.5t55.5 -9.5t52 -2.5q87 0 143 12.5t91 23.5v336h-245zM347 -40v-97h24q0 -25 -7 -50.5t-35 -35.5v-27q20 6 33.5 18.5t22 28t12 33
t3.5 33.5v97h-53z" />
    <glyph glyph-name="omacron" unicode="&#x14d;" 
d="M40 256q0 -61 16 -110.5t46 -84t73.5 -53.5t99.5 -19q48 0 90 16t73.5 48.5t50 82.5t18.5 118q0 71 -20 120.5t-52.5 81t-74.5 45.5t-85 14q-50 0 -92.5 -17t-74.5 -49.5t-50 -81t-18 -111.5zM109 256q0 62 16.5 102t41 63.5t54 32.5t55.5 9q36 0 66.5 -14t52.5 -40.5
t34.5 -64.5t12.5 -86q0 -41 -9.5 -79.5t-29.5 -68.5t-51.5 -48.5t-76.5 -18.5q-41 0 -70.5 15t-48.5 36q-29 33 -38 77.5t-9 84.5zM155 657h245v57h-245v-57z" />
    <glyph glyph-name="kcommaaccent" unicode="&#x137;" horiz-adv-x="500" 
d="M146 722h-60v-722h60v272l264 -272h76l-274 285l254 217h-77l-243 -205v425zM233 -40v-97h24q0 -25 -7 -50.5t-35 -35.5v-27q20 6 33.5 18.5t22 28t12 33t3.5 33.5v97h-53z" />
    <glyph glyph-name=".E003h" unicode="&#xe003;" horiz-adv-x="660" 
d="M520 112h60v266h-500v-60h440v-206z" />
    </font>
</defs>
</svg>
